{
.appVersion = "1359";
classes = (
{
code = "A Aacute Acircumflex Adieresis Agrave Aring Atilde AE B C Ccedilla D E Eacute Ecircumflex Edieresis Egrave F G H I Iacute Icircumflex Idieresis Igrave J K L M N Ntilde O Oacute Ocircumflex Odieresis Ograve Otilde OE P Q R S T U Uacute Ucircumflex Udieresis Ugrave V W Wacute Wcircumflex Wdieresis Wgrave X Y Yacute Ycircumflex Ydieresis Ygrave Z  A_E A_L C_H C_H_E C_Q D_E E_O E_S E_S_S_E Eacute_E F_E F_F_E N_E S_E";
name = Uppercase;
}
);
copyright = "Copyright (c) 2022. Camille Wisniewski.";
customParameters = (
{
name = panose;
value = (
0,
0,
5,
0,
0,
0,
0,
0,
0,
0
);
},
{
name = unicodeRanges;
value = (
0,
1
);
},
{
name = blueScale;
value = 0.037;
},
{
name = glyphOrder;
value = (
.notdef,
space,
A,
Aacute,
Acircumflex,
Adieresis,
Agrave,
Aring,
Atilde,
AE,
B,
C,
Ccedilla,
D,
E,
Eacute,
Ecircumflex,
Edieresis,
Egrave,
F,
G,
H,
I,
Iacute,
Icircumflex,
Idieresis,
Igrave,
J,
K,
L,
M,
N,
Ntilde,
O,
Oacute,
Ocircumflex,
Odieresis,
Ograve,
Oslash,
Otilde,
OE,
P,
Q,
R,
S,
T,
U,
Uacute,
Ucircumflex,
Udieresis,
Ugrave,
V,
W,
Wacute,
Wcircumflex,
Wdieresis,
Wgrave,
X,
Y,
Yacute,
Ycircumflex,
Ydieresis,
Ygrave,
Z,
a,
aacute,
acircumflex,
adieresis,
agrave,
aring,
atilde,
ae,
b,
c,
ccedilla,
d,
e,
eacute,
ecircumflex,
edieresis,
egrave,
f,
g,
h,
i,
iacute,
icircumflex,
idieresis,
igrave,
j,
k,
l,
m,
n,
ntilde,
o,
oacute,
ocircumflex,
odieresis,
ograve,
oslash,
otilde,
oe,
p,
q,
r,
s,
t,
u,
uacute,
ucircumflex,
udieresis,
ugrave,
v,
w,
wacute,
wcircumflex,
wdieresis,
wgrave,
x,
y,
yacute,
ycircumflex,
ydieresis,
ygrave,
z,
zero,
one,
two,
three,
four,
five,
six,
seven,
eight,
nine,
period,
comma,
colon,
semicolon,
ellipsis,
exclam,
exclamdown,
question,
questiondown,
periodcentered,
bullet,
asterisk,
numbersign,
slash,
backslash,
hyphen,
underscore,
quotedbl,
quotesingle,
uni0308,
uni0307,
gravecomb,
acutecomb,
uni0302,
uni030A,
tildecomb,
uni0327
);
}
);
date = "2022-03-28 18:00:40 +0000";
designer = "Camille Wisniewski";

glyphs = (
{
glyphname = .notdef;
lastChange = "2022-03-11 13:29:10 +0000";
layers = (
{
layerId = "F615FF3B-AC20-4656-A54C-A768163DB377";
paths = (
{
closed = 1;
nodes = (
"58 55 LINE",
"66 58 LINE",
"66 53 LINE",
"84 58 LINE",
"84 53 LINE",
"102 58 LINE",
"102 53 LINE",
"119 58 LINE",
"119 53 LINE",
"133 57 LINE",
"129 38 LINE",
"119 35 LINE",
"119 40 LINE",
"102 35 LINE",
"102 40 LINE",
"84 35 LINE",
"84 40 LINE",
"66 35 LINE",
"66 40 LINE",
"54 37 LINE",
"58 20 LINE",
"62 21 LINE",
"58 2 LINE",
"49 0 LINE",
"49 5 LINE",
"40 2 LINE",
"45 21 LINE",
"40 20 LINE",
"45 39 LINE",
"40 38 LINE",
"45 57 LINE",
"40 55 LINE",
"45 74 LINE",
"40 73 LINE",
"45 92 LINE",
"49 93 LINE",
"49 89 LINE",
"62 92 LINE",
"58 73 LINE",
"62 74 LINE"
);
},
{
closed = 1;
nodes = (
"66 164 LINE",
"48 159 LINE",
"48 164 LINE",
"45 163 LINE",
"40 144 LINE",
"45 145 LINE",
"40 126 LINE",
"45 127 LINE",
"40 107 LINE",
"48 111 LINE",
"48 106 LINE",
"62 110 LINE",
"58 91 LINE",
"66 93 LINE",
"66 89 LINE",
"84 93 LINE",
"84 89 LINE",
"102 93 LINE",
"102 89 LINE",
"111 91 LINE",
"115 110 LINE",
"119 111 LINE",
"119 106 LINE",
"129 107 LINE",
"133 127 LINE",
"129 126 LINE",
"133 145 LINE",
"129 144 LINE",
"124 161 LINE",
"119 159 LINE",
"119 164 LINE",
"106 161 LINE",
"111 144 LINE",
"115 145 LINE",
"111 126 LINE",
"115 127 LINE",
"111 107 LINE",
"102 106 LINE",
"102 111 LINE",
"84 106 LINE",
"84 111 LINE",
"75 107 LINE",
"80 127 LINE",
"84 129 LINE",
"84 124 LINE",
"93 126 LINE",
"88 143 LINE",
"93 144 LINE",
"88 161 LINE",
"84 159 LINE",
"84 164 LINE",
"66 159 LINE"
);
},
{
closed = 1;
nodes = (
"75 126 LINE",
"66 124 LINE",
"66 129 LINE",
"58 126 LINE",
"54 143 LINE",
"66 146 LINE",
"66 142 LINE",
"80 145 LINE"
);
},
{
closed = 1;
nodes = (
"120 195 LINE",
"133 198 LINE",
"129 179 LINE",
"120 177 LINE",
"120 181 LINE",
"102 177 LINE",
"102 181 LINE",
"84 177 LINE",
"84 181 LINE",
"66 177 LINE",
"66 181 LINE",
"48 177 LINE",
"48 181 LINE",
"40 179 LINE",
"45 198 LINE",
"48 199 LINE",
"48 195 LINE",
"66 199 LINE",
"66 195 LINE",
"84 199 LINE",
"84 195 LINE",
"93 197 LINE",
"88 214 LINE",
"83 212 LINE",
"83 217 LINE",
"75 215 LINE",
"80 234 LINE",
"75 232 LINE",
"80 252 LINE",
"83 253 LINE",
"83 248 LINE",
"101 253 LINE",
"101 248 LINE",
"119 253 LINE",
"119 248 LINE",
"133 252 LINE",
"129 232 LINE",
"119 230 LINE",
"119 234 LINE",
"101 230 LINE",
"101 234 LINE",
"88 231 LINE",
"93 215 LINE",
"101 217 LINE",
"101 212 LINE",
"106 214 LINE",
"111 197 LINE",
"120 199 LINE"
);
},
{
closed = 1;
nodes = (
"72 302 LINE",
"66 301 LINE",
"66 306 LINE",
"58 303 LINE",
"54 320 LINE",
"58 321 LINE",
"62 340 LINE",
"49 336 LINE",
"49 341 LINE",
"45 340 LINE",
"40 321 LINE",
"45 322 LINE",
"40 303 LINE",
"49 306 LINE",
"49 301 LINE",
"54 302 LINE",
"58 286 LINE",
"49 283 LINE",
"49 288 LINE",
"45 287 LINE",
"40 268 LINE",
"49 271 LINE",
"49 266 LINE",
"66 271 LINE",
"66 266 LINE",
"84 271 LINE",
"84 266 LINE",
"102 271 LINE",
"102 266 LINE",
"120 271 LINE",
"120 266 LINE",
"129 268 LINE",
"134 287 LINE",
"120 283 LINE",
"120 288 LINE",
"102 283 LINE",
"102 288 LINE",
"84 283 LINE",
"84 288 LINE",
"76 286 LINE"
);
},
{
closed = 1;
nodes = (
"49 412 LINE",
"45 411 LINE",
"40 392 LINE",
"45 393 LINE",
"40 374 LINE",
"45 375 LINE",
"40 356 LINE",
"49 358 LINE",
"49 354 LINE",
"54 355 LINE",
"58 338 LINE",
"66 341 LINE",
"66 336 LINE",
"84 341 LINE",
"84 336 LINE",
"102 341 LINE",
"102 336 LINE",
"119 341 LINE",
"119 336 LINE",
"129 338 LINE",
"124 355 LINE",
"129 356 LINE",
"133 375 LINE",
"129 374 LINE",
"124 391 LINE",
"119 390 LINE",
"119 394 LINE",
"111 392 LINE",
"106 408 LINE",
"102 408 LINE",
"102 412 LINE",
"84 408 LINE",
"84 412 LINE",
"66 408 LINE",
"66 412 LINE",
"49 408 LINE"
);
},
{
closed = 1;
nodes = (
"84 390 LINE",
"102 394 LINE",
"102 390 LINE",
"106 391 LINE",
"111 374 LINE",
"115 375 LINE",
"111 356 LINE",
"102 354 LINE",
"102 358 LINE",
"84 354 LINE",
"84 358 LINE",
"66 354 LINE",
"66 358 LINE",
"58 356 LINE",
"62 375 LINE",
"58 374 LINE",
"54 391 LINE",
"66 394 LINE",
"66 390 LINE",
"84 394 LINE"
);
},
{
closed = 1;
nodes = (
"119 495 LINE",
"124 496 LINE",
"129 480 LINE",
"133 482 LINE",
"129 463 LINE",
"133 464 LINE",
"129 445 LINE",
"119 443 LINE",
"119 447 LINE",
"115 446 LINE",
"111 427 LINE",
"102 426 LINE",
"102 430 LINE",
"84 426 LINE",
"84 430 LINE",
"66 426 LINE",
"66 430 LINE",
"58 427 LINE",
"54 444 LINE",
"49 443 LINE",
"49 447 LINE",
"40 445 LINE",
"45 464 LINE",
"40 463 LINE",
"45 482 LINE",
"40 480 LINE",
"45 499 LINE",
"49 500 LINE",
"49 495 LINE",
"62 499 LINE",
"58 480 LINE",
"54 479 LINE",
"58 463 LINE",
"54 461 LINE",
"58 445 LINE",
"66 447 LINE",
"66 443 LINE",
"84 447 LINE",
"84 443 LINE",
"102 447 LINE",
"102 443 LINE",
"111 445 LINE",
"115 464 LINE",
"111 463 LINE",
"115 482 LINE",
"111 480 LINE",
"106 496 LINE",
"119 500 LINE"
);
}
);
width = 174;
}
);
note = .notdef;
},
{
glyphname = A;
layers = (
{
layerId = "F615FF3B-AC20-4656-A54C-A768163DB377";
paths = (
{
closed = 1;
nodes = (
"439 0 LINE",
"421 71 LINE",
"445 71 LINE",
"421 166 LINE",
"445 166 LINE",
"421 261 LINE",
"445 262 LINE",
"421 357 LINE",
"445 357 LINE",
"421 452 LINE",
"445 452 LINE",
"439 475 LINE",
"338 500 LINE",
"344 476 LINE",
"242 500 LINE",
"248 476 LINE",
"147 500 LINE",
"153 476 LINE",
"52 500 LINE",
"64 452 LINE",
"40 452 LINE",
"64 357 LINE",
"40 357 LINE",
"64 262 LINE",
"40 261 LINE",
"64 166 LINE",
"40 166 LINE",
"64 71 LINE",
"40 71 LINE",
"52 24 LINE",
"153 0 LINE",
"135 71 LINE",
"159 71 LINE",
"135 166 LINE",
"159 166 LINE",
"147 214 LINE",
"248 190 LINE",
"242 214 LINE",
"344 190 LINE",
"350 166 LINE",
"326 166 LINE",
"350 71 LINE",
"326 71 LINE",
"338 24 LINE"
);
},
{
closed = 1;
nodes = (
"135 357 LINE",
"159 357 LINE",
"147 405 LINE",
"236 429 LINE",
"242 405 LINE",
"332 429 LINE",
"350 357 LINE",
"326 357 LINE",
"344 286 LINE",
"242 309 LINE",
"248 286 LINE",
"147 309 LINE"
);
}
);
width = 485;
}
);
note = A;
unicode = 0041;
},
{
glyphname = Aacute;
lastChange = "2022-03-09 14:23:56 +0000";
layers = (
{
layerId = "F615FF3B-AC20-4656-A54C-A768163DB377";
paths = (
{
closed = 1;
nodes = (
"237 333 LINE",
"230 357 LINE",
"254 357 LINE",
"242 406 LINE",
"331 429 LINE",
"326 453 LINE",
"350 453 LINE",
"343 476 LINE",
"242 500 LINE",
"254 453 LINE",
"230 453 LINE",
"237 429 LINE",
"148 406 LINE",
"160 357 LINE",
"136 357 LINE",
"148 310 LINE"
);
},
{
closed = 1;
nodes = (
"350 263 LINE",
"343 286 LINE",
"242 310 LINE",
"249 286 LINE",
"148 310 LINE",
"153 286 LINE",
"52 310 LINE",
"64 263 LINE",
"40 263 LINE",
"64 167 LINE",
"40 167 LINE",
"64 71 LINE",
"40 71 LINE",
"52 24 LINE",
"153 0 LINE",
"136 71 LINE",
"160 71 LINE",
"148 120 LINE",
"237 143 LINE",
"254 71 LINE",
"230 71 LINE",
"242 24 LINE",
"343 0 LINE",
"326 71 LINE",
"350 71 LINE",
"326 167 LINE",
"350 167 LINE",
"326 263 LINE"
);
},
{
closed = 1;
nodes = (
"237 239 LINE",
"249 190 LINE",
"148 215 LINE"
);
}
);
width = 390;
}
);
note = Aacute;
unicode = 00C1;
},
{
glyphname = Acircumflex;
lastChange = "2022-03-09 14:21:51 +0000";
layers = (
{
layerId = "F615FF3B-AC20-4656-A54C-A768163DB377";
paths = (
{
closed = 1;
nodes = (
"141 332 LINE",
"136 356 LINE",
"159 357 LINE",
"147 404 LINE",
"248 381 LINE",
"253 357 LINE",
"230 356 LINE",
"241 309 LINE",
"332 332 LINE",
"325 356 LINE",
"349 357 LINE",
"332 428 LINE",
"241 404 LINE",
"230 451 LINE",
"253 451 LINE",
"248 477 LINE",
"147 500 LINE",
"159 451 LINE",
"136 451 LINE",
"141 428 LINE",
"52 404 LINE",
"63 357 LINE",
"40 356 LINE",
"52 309 LINE"
);
},
{
closed = 1;
nodes = (
"349 262 LINE",
"344 285 LINE",
"241 309 LINE",
"248 285 LINE",
"147 309 LINE",
"152 285 LINE",
"52 309 LINE",
"63 262 LINE",
"40 262 LINE",
"63 166 LINE",
"40 166 LINE",
"63 70 LINE",
"40 70 LINE",
"52 23 LINE",
"152 0 LINE",
"136 70 LINE",
"159 70 LINE",
"147 119 LINE",
"236 143 LINE",
"253 70 LINE",
"230 70 LINE",
"241 23 LINE",
"344 0 LINE",
"325 70 LINE",
"349 70 LINE",
"325 166 LINE",
"349 166 LINE",
"325 262 LINE"
);
},
{
closed = 1;
nodes = (
"236 238 LINE",
"248 190 LINE",
"147 213 LINE"
);
}
);
width = 389;
}
);
note = Acircumflex;
unicode = 00C2;
},
{
glyphname = Adieresis;
lastChange = "2022-03-09 14:19:59 +0000";
layers = (
{
layerId = "F615FF3B-AC20-4656-A54C-A768163DB377";
paths = (
{
closed = 1;
nodes = (
"345 382 LINE",
"326 453 LINE",
"351 453 LINE",
"345 476 LINE",
"244 500 LINE",
"255 453 LINE",
"232 453 LINE",
"244 406 LINE"
);
},
{
closed = 1;
nodes = (
"42 453 LINE",
"65 453 LINE",
"53 500 LINE",
"154 476 LINE",
"160 453 LINE",
"136 453 LINE",
"154 382 LINE",
"53 406 LINE"
);
},
{
closed = 1;
nodes = (
"351 263 LINE",
"345 286 LINE",
"244 310 LINE",
"249 286 LINE",
"148 310 LINE",
"154 286 LINE",
"53 310 LINE",
"65 263 LINE",
"40 263 LINE",
"65 167 LINE",
"40 167 LINE",
"65 71 LINE",
"40 71 LINE",
"53 24 LINE",
"154 0 LINE",
"136 71 LINE",
"160 71 LINE",
"148 120 LINE",
"237 143 LINE",
"255 71 LINE",
"232 71 LINE",
"244 24 LINE",
"345 0 LINE",
"326 71 LINE",
"351 71 LINE",
"326 167 LINE",
"351 167 LINE",
"326 263 LINE"
);
},
{
closed = 1;
nodes = (
"237 239 LINE",
"249 190 LINE",
"148 214 LINE"
);
}
);
width = 391;
}
);
note = Adieresis;
unicode = 00C4;
},
{
glyphname = Agrave;
lastChange = "2022-03-09 14:24:53 +0000";
layers = (
{
layerId = "F615FF3B-AC20-4656-A54C-A768163DB377";
paths = (
{
closed = 1;
nodes = (
"40 451 LINE",
"63 453 LINE",
"52 500 LINE",
"152 477 LINE",
"159 453 LINE",
"136 451 LINE",
"147 404 LINE",
"248 381 LINE",
"253 357 LINE",
"230 357 LINE",
"248 285 LINE",
"147 309 LINE",
"136 357 LINE",
"159 357 LINE",
"152 381 LINE",
"52 404 LINE"
);
},
{
closed = 1;
nodes = (
"349 262 LINE",
"344 285 LINE",
"241 309 LINE",
"248 285 LINE",
"147 309 LINE",
"152 285 LINE",
"52 309 LINE",
"63 262 LINE",
"40 262 LINE",
"63 166 LINE",
"40 166 LINE",
"63 72 LINE",
"40 72 LINE",
"52 23 LINE",
"152 0 LINE",
"136 72 LINE",
"159 72 LINE",
"147 119 LINE",
"236 143 LINE",
"253 72 LINE",
"230 72 LINE",
"241 23 LINE",
"344 0 LINE",
"325 72 LINE",
"349 72 LINE",
"325 166 LINE",
"349 166 LINE",
"325 262 LINE"
);
},
{
closed = 1;
nodes = (
"236 238 LINE",
"248 191 LINE",
"147 215 LINE"
);
}
);
width = 389;
}
);
note = Agrave;
unicode = 00C0;
},
{
glyphname = Aring;
lastChange = "2022-03-09 14:49:24 +0000";
layers = (
{
layerId = "F615FF3B-AC20-4656-A54C-A768163DB377";
paths = (
{
closed = 1;
nodes = (
"136 453 LINE",
"159 453 LINE",
"147 500 LINE",
"248 477 LINE",
"253 453 LINE",
"230 453 LINE",
"248 381 LINE",
"147 404 LINE"
);
},
{
closed = 1;
nodes = (
"349 262 LINE",
"344 285 LINE",
"241 309 LINE",
"248 285 LINE",
"147 309 LINE",
"152 285 LINE",
"52 309 LINE",
"63 262 LINE",
"40 262 LINE",
"63 168 LINE",
"40 168 LINE",
"63 72 LINE",
"40 72 LINE",
"52 23 LINE",
"152 0 LINE",
"136 72 LINE",
"159 72 LINE",
"147 119 LINE",
"236 143 LINE",
"253 72 LINE",
"230 72 LINE",
"241 23 LINE",
"344 0 LINE",
"325 72 LINE",
"349 72 LINE",
"325 168 LINE",
"349 168 LINE",
"325 262 LINE"
);
},
{
closed = 1;
nodes = (
"236 238 LINE",
"248 191 LINE",
"147 215 LINE"
);
}
);
width = 389;
}
);
unicode = 00C5;
},
{
glyphname = Atilde;
lastChange = "2022-03-09 14:22:41 +0000";
layers = (
{
layerId = "F615FF3B-AC20-4656-A54C-A768163DB377";
paths = (
{
closed = 1;
nodes = (
"152 477 LINE",
"159 451 LINE",
"136 451 LINE",
"147 404 LINE",
"236 428 LINE",
"230 451 LINE",
"253 451 LINE",
"241 500 LINE",
"344 477 LINE",
"349 451 LINE",
"325 451 LINE",
"344 381 LINE",
"241 404 LINE",
"253 357 LINE",
"230 357 LINE",
"236 334 LINE",
"147 309 LINE",
"136 357 LINE",
"159 357 LINE",
"152 381 LINE",
"52 404 LINE",
"40 451 LINE",
"63 451 LINE",
"52 500 LINE"
);
},
{
closed = 1;
nodes = (
"349 262 LINE",
"344 285 LINE",
"241 309 LINE",
"248 285 LINE",
"147 309 LINE",
"152 285 LINE",
"52 309 LINE",
"63 262 LINE",
"40 262 LINE",
"63 166 LINE",
"40 166 LINE",
"63 72 LINE",
"40 72 LINE",
"52 23 LINE",
"152 0 LINE",
"136 72 LINE",
"159 72 LINE",
"147 119 LINE",
"236 143 LINE",
"253 72 LINE",
"230 72 LINE",
"241 23 LINE",
"344 0 LINE",
"325 72 LINE",
"349 72 LINE",
"325 166 LINE",
"349 166 LINE",
"325 262 LINE"
);
},
{
closed = 1;
nodes = (
"236 238 LINE",
"248 191 LINE",
"147 215 LINE"
);
}
);
width = 389;
}
);
note = Atilde;
unicode = 00C3;
},
{
glyphname = AE;
lastChange = "2022-03-09 14:27:53 +0000";
layers = (
{
layerId = "F615FF3B-AC20-4656-A54C-A768163DB377";
paths = (
{
closed = 1;
nodes = (
"620 119 LINE",
"625 95 LINE",
"525 119 LINE",
"532 95 LINE",
"431 119 LINE",
"420 166 LINE",
"441 166 LINE",
"431 214 LINE",
"532 191 LINE",
"525 214 LINE",
"625 191 LINE",
"609 261 LINE",
"632 261 LINE",
"625 286 LINE",
"525 309 LINE",
"532 286 LINE",
"431 309 LINE",
"418 356 LINE",
"441 356 LINE",
"431 405 LINE",
"532 380 LINE",
"525 403 LINE",
"625 380 LINE",
"620 405 LINE",
"721 380 LINE",
"702 452 LINE",
"727 452 LINE",
"721 477 LINE",
"620 500 LINE",
"625 477 LINE",
"525 500 LINE",
"532 477 LINE",
"430 500 LINE",
"436 477 LINE",
"336 500 LINE",
"341 475 LINE",
"241 500 LINE",
"247 475 LINE",
"145 500 LINE",
"152 475 LINE",
"52 500 LINE",
"63 452 LINE",
"40 452 LINE",
"63 358 LINE",
"40 358 LINE",
"63 263 LINE",
"40 263 LINE",
"63 167 LINE",
"40 167 LINE",
"63 74 LINE",
"40 74 LINE",
"52 25 LINE",
"152 2 LINE",
"134 74 LINE",
"157 74 LINE",
"134 167 LINE",
"157 167 LINE",
"145 214 LINE",
"247 191 LINE",
"241 214 LINE",
"341 191 LINE",
"348 167 LINE",
"324 167 LINE",
"348 74 LINE",
"324 74 LINE",
"336 23 LINE",
"436 0 LINE",
"431 23 LINE",
"532 0 LINE",
"525 23 LINE",
"625 0 LINE",
"620 23 LINE",
"709 47 LINE",
"702 72 LINE",
"727 72 LINE",
"709 142 LINE"
);
},
{
closed = 1;
nodes = (
"134 358 LINE",
"157 358 LINE",
"145 405 LINE",
"234 428 LINE",
"241 405 LINE",
"329 428 LINE",
"348 358 LINE",
"324 358 LINE",
"341 286 LINE",
"241 309 LINE",
"247 286 LINE",
"145 309 LINE"
);
}
);
width = 767;
}
);
note = AE;
unicode = 00C6;
},
{
glyphname = B;
lastChange = "2022-03-14 21:22:15 +0000";
layers = (
{
layerId = "F615FF3B-AC20-4656-A54C-A768163DB377";
paths = (
{
closed = 1;
nodes = (
"84 452 LINE",
"60 452 LINE",
"84 357 LINE",
"60 357 LINE",
"84 262 LINE",
"60 261 LINE",
"84 166 LINE",
"60 167 LINE",
"84 72 LINE",
"60 72 LINE",
"72 24 LINE",
"161 48 LINE",
"167 24 LINE",
"268 0 LINE",
"263 24 LINE",
"364 0 LINE",
"358 24 LINE",
"459 0 LINE",
"441 72 LINE",
"465 72 LINE",
"441 167 LINE",
"465 166 LINE",
"447 238 LINE",
"358 214 LINE",
"346 261 LINE",
"370 262 LINE",
"358 309 LINE",
"459 286 LINE",
"441 357 LINE",
"465 357 LINE",
"441 452 LINE",
"465 452 LINE",
"459 476 LINE",
"358 500 LINE",
"364 476 LINE",
"263 500 LINE",
"268 476 LINE",
"167 500 LINE",
"173 476 LINE",
"72 500 LINE"
);
},
{
closed = 1;
nodes = (
"155 357 LINE",
"179 357 LINE",
"167 405 LINE",
"257 429 LINE",
"263 405 LINE",
"352 429 LINE",
"370 357 LINE",
"346 357 LINE",
"352 333 LINE",
"263 309 LINE",
"257 333 LINE",
"167 309 LINE"
);
},
{
closed = 1;
nodes = (
"257 238 LINE",
"263 214 LINE",
"364 190 LINE",
"370 166 LINE",
"346 167 LINE",
"364 95 LINE",
"263 119 LINE",
"268 95 LINE",
"167 119 LINE",
"155 167 LINE",
"179 166 LINE",
"167 214 LINE"
);
}
);
width = 505;
}
);
note = B;
unicode = 0042;
},
{
glyphname = C;
lastChange = "2022-03-14 21:22:46 +0000";
layers = (
{
layerId = "F615FF3B-AC20-4656-A54C-A768163DB377";
paths = (
{
closed = 1;
nodes = (
"432 72 LINE",
"438 48 LINE",
"348 24 LINE",
"354 0 LINE",
"253 24 LINE",
"259 0 LINE",
"158 24 LINE",
"152 48 LINE",
"62 24 LINE",
"50 72 LINE",
"74 72 LINE",
"50 167 LINE",
"74 166 LINE",
"50 261 LINE",
"74 262 LINE",
"50 357 LINE",
"74 357 LINE",
"50 452 LINE",
"74 452 LINE",
"62 500 LINE",
"164 476 LINE",
"158 500 LINE",
"259 476 LINE",
"253 500 LINE",
"354 476 LINE",
"348 500 LINE",
"450 476 LINE",
"456 452 LINE",
"432 452 LINE",
"450 381 LINE",
"348 405 LINE",
"342 429 LINE",
"253 405 LINE",
"247 429 LINE",
"158 405 LINE",
"170 357 LINE",
"146 357 LINE",
"170 262 LINE",
"146 261 LINE",
"170 166 LINE",
"146 167 LINE",
"158 119 LINE",
"259 96 LINE",
"253 119 LINE",
"354 95 LINE",
"348 119 LINE",
"438 143 LINE",
"456 72 LINE"
);
}
);
width = 496;
}
);
note = C;
unicode = 0043;
},
{
glyphname = Ccedilla;
layers = (
{
layerId = "F615FF3B-AC20-4656-A54C-A768163DB377";
paths = (
{
closed = 1;
nodes = (
"142 238 LINE",
"52 214 LINE",
"40 262 LINE",
"64 262 LINE",
"40 357 LINE",
"64 357 LINE",
"40 452 LINE",
"64 452 LINE",
"52 500 LINE",
"154 476 LINE",
"148 500 LINE",
"249 476 LINE",
"243 500 LINE",
"344 476 LINE",
"350 452 LINE",
"327 452 LINE",
"333 429 LINE",
"243 405 LINE",
"237 429 LINE",
"148 405 LINE",
"160 357 LINE",
"136 357 LINE",
"148 309 LINE",
"249 286 LINE",
"243 309 LINE",
"344 286 LINE",
"350 262 LINE",
"327 262 LINE",
"333 238 LINE",
"243 214 LINE",
"344 190 LINE",
"350 166 LINE",
"327 166 LINE",
"351 71 LINE",
"327 71 LINE",
"333 48 LINE",
"243 24 LINE",
"249 0 LINE",
"148 24 LINE",
"136 71 LINE",
"160 71 LINE",
"148 118 LINE",
"249 95 LINE",
"231 166 LINE",
"255 166 LINE",
"249 190 LINE",
"148 214 LINE"
);
}
);
width = 391;
}
);
note = Ccedilla;
unicode = 00C7;
},
{
glyphname = D;
lastChange = "2022-03-14 21:23:07 +0000";
layers = (
{
layerId = "F615FF3B-AC20-4656-A54C-A768163DB377";
paths = (
{
closed = 1;
nodes = (
"84 452 LINE",
"60 452 LINE",
"84 357 LINE",
"60 357 LINE",
"84 262 LINE",
"60 261 LINE",
"84 166 LINE",
"60 167 LINE",
"84 72 LINE",
"60 72 LINE",
"72 24 LINE",
"161 48 LINE",
"167 24 LINE",
"268 0 LINE",
"262 24 LINE",
"364 0 LINE",
"358 24 LINE",
"447 48 LINE",
"441 72 LINE",
"465 72 LINE",
"441 167 LINE",
"465 166 LINE",
"441 261 LINE",
"465 262 LINE",
"441 357 LINE",
"465 357 LINE",
"459 381 LINE",
"358 405 LINE",
"346 452 LINE",
"370 452 LINE",
"364 476 LINE",
"262 500 LINE",
"268 476 LINE",
"167 500 LINE",
"173 476 LINE",
"72 500 LINE"
);
},
{
closed = 1;
nodes = (
"268 381 LINE",
"262 405 LINE",
"364 381 LINE",
"370 357 LINE",
"346 357 LINE",
"370 262 LINE",
"346 261 LINE",
"370 166 LINE",
"346 167 LINE",
"364 96 LINE",
"262 119 LINE",
"268 95 LINE",
"167 119 LINE",
"155 167 LINE",
"179 166 LINE",
"155 261 LINE",
"179 262 LINE",
"155 357 LINE",
"179 357 LINE",
"167 405 LINE"
);
}
);
width = 515;
}
);
note = D;
unicode = 0044;
},
{
glyphname = E;
lastChange = "2022-03-14 21:23:30 +0000";
layers = (
{
layerId = "F615FF3B-AC20-4656-A54C-A768163DB377";
paths = (
{
closed = 1;
nodes = (
"84 453 LINE",
"60 452 LINE",
"84 357 LINE",
"60 357 LINE",
"84 262 LINE",
"60 261 LINE",
"84 166 LINE",
"60 166 LINE",
"84 71 LINE",
"60 71 LINE",
"72 24 LINE",
"173 0 LINE",
"167 24 LINE",
"268 0 LINE",
"262 24 LINE",
"363 0 LINE",
"357 24 LINE",
"446 47 LINE",
"440 71 LINE",
"464 71 LINE",
"446 143 LINE",
"357 119 LINE",
"363 95 LINE",
"262 119 LINE",
"268 95 LINE",
"167 119 LINE",
"155 166 LINE",
"179 166 LINE",
"167 214 LINE",
"268 190 LINE",
"262 214 LINE",
"363 190 LINE",
"345 261 LINE",
"369 262 LINE",
"363 286 LINE",
"262 309 LINE",
"268 286 LINE",
"167 309 LINE",
"155 357 LINE",
"179 357 LINE",
"167 404 LINE",
"268 381 LINE",
"262 404 LINE",
"363 381 LINE",
"357 404 LINE",
"458 381 LINE",
"440 452 LINE",
"464 453 LINE",
"458 476 LINE",
"357 500 LINE",
"363 476 LINE",
"262 500 LINE",
"268 476 LINE",
"167 500 LINE",
"173 476 LINE",
"72 500 LINE"
);
}
);
width = 504;
}
);
note = E;
unicode = 0045;
},
{
glyphname = Eacute;
layers = (
{
layerId = "F615FF3B-AC20-4656-A54C-A768163DB377";
paths = (
{
closed = 1;
nodes = (
"236 334 LINE",
"230 357 LINE",
"254 357 LINE",
"242 405 LINE",
"331 429 LINE",
"325 452 LINE",
"349 453 LINE",
"343 476 LINE",
"242 500 LINE",
"254 453 LINE",
"230 452 LINE",
"236 429 LINE",
"147 405 LINE",
"159 357 LINE",
"135 357 LINE",
"147 310 LINE"
);
},
{
closed = 1;
nodes = (
"242 119 LINE",
"248 96 LINE",
"147 119 LINE",
"236 143 LINE",
"230 167 LINE",
"254 167 LINE",
"248 191 LINE",
"147 214 LINE",
"236 238 LINE",
"242 214 LINE",
"343 191 LINE",
"325 262 LINE",
"349 262 LINE",
"343 286 LINE",
"242 309 LINE",
"248 286 LINE",
"147 309 LINE",
"153 286 LINE",
"52 309 LINE",
"64 262 LINE",
"40 262 LINE",
"64 167 LINE",
"40 167 LINE",
"64 72 LINE",
"40 72 LINE",
"52 25 LINE",
"153 0 LINE",
"147 25 LINE",
"248 1 LINE",
"242 25 LINE",
"343 0 LINE",
"325 72 LINE",
"349 72 LINE",
"343 95 LINE"
);
}
);
width = 389;
}
);
note = Eacute;
unicode = 00C9;
},
{
glyphname = Ecircumflex;
layers = (
{
layerId = "F615FF3B-AC20-4656-A54C-A768163DB377";
paths = (
{
closed = 1;
nodes = (
"141 334 LINE",
"135 357 LINE",
"159 358 LINE",
"147 405 LINE",
"248 381 LINE",
"254 358 LINE",
"230 357 LINE",
"242 310 LINE",
"331 334 LINE",
"325 357 LINE",
"349 358 LINE",
"331 429 LINE",
"242 405 LINE",
"230 453 LINE",
"254 453 LINE",
"248 476 LINE",
"147 500 LINE",
"159 453 LINE",
"135 453 LINE",
"141 429 LINE",
"52 405 LINE",
"64 358 LINE",
"40 357 LINE",
"52 310 LINE"
);
},
{
closed = 1;
nodes = (
"242 119 LINE",
"248 96 LINE",
"147 119 LINE",
"236 143 LINE",
"230 167 LINE",
"254 167 LINE",
"248 191 LINE",
"147 214 LINE",
"236 238 LINE",
"242 214 LINE",
"343 191 LINE",
"325 262 LINE",
"349 262 LINE",
"343 286 LINE",
"242 309 LINE",
"248 286 LINE",
"147 309 LINE",
"153 286 LINE",
"52 309 LINE",
"64 262 LINE",
"40 262 LINE",
"64 167 LINE",
"40 167 LINE",
"64 72 LINE",
"40 72 LINE",
"52 25 LINE",
"153 0 LINE",
"147 25 LINE",
"248 1 LINE",
"242 25 LINE",
"343 0 LINE",
"325 72 LINE",
"349 72 LINE",
"343 95 LINE"
);
}
);
width = 389;
}
);
note = Ecircumflex;
unicode = 00CA;
},
{
glyphname = Edieresis;
layers = (
{
layerId = "F615FF3B-AC20-4656-A54C-A768163DB377";
paths = (
{
closed = 1;
nodes = (
"40 453 LINE",
"64 453 LINE",
"52 500 LINE",
"153 476 LINE",
"159 453 LINE",
"135 453 LINE",
"153 381 LINE",
"52 405 LINE"
);
},
{
closed = 1;
nodes = (
"342 381 LINE",
"325 453 LINE",
"348 453 LINE",
"342 476 LINE",
"242 500 LINE",
"253 453 LINE",
"230 453 LINE",
"242 405 LINE"
);
},
{
closed = 1;
nodes = (
"242 119 LINE",
"248 96 LINE",
"147 119 LINE",
"236 143 LINE",
"230 167 LINE",
"254 167 LINE",
"248 191 LINE",
"147 214 LINE",
"236 238 LINE",
"242 214 LINE",
"343 191 LINE",
"325 262 LINE",
"349 262 LINE",
"343 286 LINE",
"242 309 LINE",
"248 286 LINE",
"147 309 LINE",
"153 286 LINE",
"52 309 LINE",
"64 262 LINE",
"40 262 LINE",
"64 167 LINE",
"40 167 LINE",
"64 72 LINE",
"40 72 LINE",
"52 25 LINE",
"153 0 LINE",
"147 25 LINE",
"248 1 LINE",
"242 25 LINE",
"343 0 LINE",
"325 72 LINE",
"349 72 LINE",
"343 95 LINE"
);
}
);
width = 389;
}
);
note = Edieresis;
unicode = 00CB;
},
{
glyphname = Egrave;
layers = (
{
layerId = "F615FF3B-AC20-4656-A54C-A768163DB377";
paths = (
{
closed = 1;
nodes = (
"242 120 LINE",
"248 96 LINE",
"147 120 LINE",
"236 143 LINE",
"230 167 LINE",
"254 167 LINE",
"248 191 LINE",
"147 215 LINE",
"236 239 LINE",
"242 215 LINE",
"343 191 LINE",
"325 262 LINE",
"349 262 LINE",
"343 286 LINE",
"242 310 LINE",
"248 286 LINE",
"230 357 LINE",
"254 357 LINE",
"248 381 LINE",
"147 405 LINE",
"135 452 LINE",
"159 453 LINE",
"153 476 LINE",
"52 500 LINE",
"64 453 LINE",
"40 452 LINE",
"52 405 LINE",
"153 381 LINE",
"159 357 LINE",
"135 357 LINE",
"147 310 LINE",
"153 286 LINE",
"52 310 LINE",
"64 262 LINE",
"40 262 LINE",
"64 167 LINE",
"40 167 LINE",
"64 72 LINE",
"40 72 LINE",
"52 25 LINE",
"153 0 LINE",
"147 25 LINE",
"248 1 LINE",
"242 25 LINE",
"343 0 LINE",
"325 72 LINE",
"349 72 LINE",
"343 95 LINE"
);
}
);
width = 389;
}
);
note = Egrave;
unicode = 00C8;
},
{
glyphname = F;
lastChange = "2022-03-14 21:23:43 +0000";
layers = (
{
layerId = "F615FF3B-AC20-4656-A54C-A768163DB377";
paths = (
{
closed = 1;
nodes = (
"155 166 LINE",
"178 166 LINE",
"166 213 LINE",
"267 190 LINE",
"261 213 LINE",
"362 190 LINE",
"344 261 LINE",
"368 262 LINE",
"362 285 LINE",
"261 309 LINE",
"267 285 LINE",
"166 309 LINE",
"155 356 LINE",
"178 357 LINE",
"166 404 LINE",
"267 380 LINE",
"261 404 LINE",
"362 380 LINE",
"356 404 LINE",
"457 380 LINE",
"439 451 LINE",
"463 452 LINE",
"457 476 LINE",
"356 500 LINE",
"362 476 LINE",
"261 500 LINE",
"267 476 LINE",
"166 500 LINE",
"172 476 LINE",
"72 500 LINE",
"83 452 LINE",
"60 451 LINE",
"83 357 LINE",
"60 356 LINE",
"83 262 LINE",
"60 261 LINE",
"83 166 LINE",
"60 166 LINE",
"83 71 LINE",
"60 71 LINE",
"72 24 LINE",
"172 0 LINE",
"155 71 LINE",
"178 71 LINE"
);
}
);
width = 498;
}
);
note = F;
unicode = 0046;
},
{
glyphname = G;
lastChange = "2022-03-14 21:24:19 +0000";
layers = (
{
layerId = "F615FF3B-AC20-4656-A54C-A768163DB377";
paths = (
{
closed = 1;
nodes = (
"253 119 LINE",
"259 96 LINE",
"158 119 LINE",
"146 167 LINE",
"170 166 LINE",
"146 261 LINE",
"170 262 LINE",
"146 357 LINE",
"170 357 LINE",
"158 405 LINE",
"247 429 LINE",
"253 405 LINE",
"342 429 LINE",
"348 405 LINE",
"450 381 LINE",
"432 452 LINE",
"456 452 LINE",
"450 476 LINE",
"348 500 LINE",
"354 476 LINE",
"253 500 LINE",
"259 476 LINE",
"158 500 LINE",
"170 452 LINE",
"146 452 LINE",
"152 429 LINE",
"62 405 LINE",
"74 357 LINE",
"50 357 LINE",
"74 262 LINE",
"50 261 LINE",
"74 166 LINE",
"50 167 LINE",
"62 119 LINE",
"164 96 LINE",
"170 72 LINE",
"146 72 LINE",
"158 24 LINE",
"259 0 LINE",
"253 24 LINE",
"354 0 LINE",
"348 24 LINE",
"438 48 LINE",
"432 72 LINE",
"456 72 LINE",
"432 166 LINE",
"456 164 LINE",
"432 261 LINE",
"456 262 LINE",
"450 286 LINE",
"348 309 LINE",
"354 286 LINE",
"253 309 LINE",
"265 262 LINE",
"241 261 LINE",
"253 213 LINE",
"354 190 LINE",
"360 166 LINE",
"337 166 LINE",
"354 95 LINE"
);
}
);
width = 511;
}
);
note = G;
unicode = 0047;
},
{
glyphname = H;
lastChange = "2022-03-14 21:19:33 +0000";
layers = (
{
layerId = "F615FF3B-AC20-4656-A54C-A768163DB377";
paths = (
{
closed = 1;
nodes = (
"358 500 LINE",
"459 476 LINE",
"465 453 LINE",
"441 453 LINE",
"465 357 LINE",
"441 357 LINE",
"465 262 LINE",
"441 262 LINE",
"465 166 LINE",
"441 167 LINE",
"465 71 LINE",
"441 71 LINE",
"459 0 LINE",
"358 24 LINE",
"346 71 LINE",
"370 71 LINE",
"346 167 LINE",
"370 166 LINE",
"364 190 LINE",
"263 214 LINE",
"268 190 LINE",
"167 214 LINE",
"179 166 LINE",
"155 167 LINE",
"179 71 LINE",
"155 71 LINE",
"173 0 LINE",
"72 24 LINE",
"60 71 LINE",
"84 71 LINE",
"60 167 LINE",
"84 166 LINE",
"60 262 LINE",
"84 262 LINE",
"60 357 LINE",
"84 357 LINE",
"60 453 LINE",
"84 453 LINE",
"72 500 LINE",
"173 476 LINE",
"179 453 LINE",
"155 453 LINE",
"179 357 LINE",
"155 357 LINE",
"167 309 LINE",
"268 286 LINE",
"262 310 LINE",
"363 286 LINE",
"346 357 LINE",
"369 357 LINE",
"346 453 LINE",
"369 453 LINE"
);
}
);
width = 525;
}
);
note = H;
unicode = 0048;
},
{
glyphname = I;
lastChange = "2022-03-14 21:24:37 +0000";
layers = (
{
layerId = "F615FF3B-AC20-4656-A54C-A768163DB377";
paths = (
{
closed = 1;
nodes = (
"273 166 LINE",
"249 261 LINE",
"273 262 LINE",
"249 357 LINE",
"273 357 LINE",
"261 404 LINE",
"362 381 LINE",
"344 452 LINE",
"368 452 LINE",
"362 476 LINE",
"261 500 LINE",
"267 476 LINE",
"166 500 LINE",
"172 476 LINE",
"71 499 LINE",
"83 452 LINE",
"60 452 LINE",
"71 404 LINE",
"160 428 LINE",
"178 357 LINE",
"154 357 LINE",
"178 262 LINE",
"154 261 LINE",
"178 166 LINE",
"154 166 LINE",
"172 96 LINE",
"71 119 LINE",
"83 72 LINE",
"60 73 LINE",
"71 25 LINE",
"172 0 LINE",
"166 24 LINE",
"267 0 LINE",
"261 25 LINE",
"362 2 LINE",
"344 73 LINE",
"368 72 LINE",
"362 96 LINE",
"261 119 LINE",
"249 166 LINE"
);
}
);
width = 428;
}
);
note = I;
unicode = 0049;
},
{
glyphname = Iacute;
layers = (
{
layerId = "F615FF3B-AC20-4656-A54C-A768163DB377";
paths = (
{
closed = 1;
nodes = (
"236 333 LINE",
"230 357 LINE",
"254 357 LINE",
"242 405 LINE",
"332 429 LINE",
"326 452 LINE",
"350 453 LINE",
"344 476 LINE",
"242 500 LINE",
"254 453 LINE",
"230 452 LINE",
"236 429 LINE",
"147 405 LINE",
"159 357 LINE",
"135 357 LINE",
"147 310 LINE"
);
},
{
closed = 1;
nodes = (
"344 190 LINE",
"326 262 LINE",
"350 262 LINE",
"344 286 LINE",
"243 309 LINE",
"249 286 LINE",
"147 310 LINE",
"153 286 LINE",
"52 310 LINE",
"64 262 LINE",
"40 262 LINE",
"52 214 LINE",
"141 238 LINE",
"159 167 LINE",
"135 167 LINE",
"153 95 LINE",
"52 119 LINE",
"64 71 LINE",
"40 71 LINE",
"52 24 LINE",
"153 0 LINE",
"147 24 LINE",
"249 0 LINE",
"243 24 LINE",
"344 0 LINE",
"326 71 LINE",
"350 71 LINE",
"344 95 LINE",
"243 119 LINE",
"231 167 LINE",
"255 167 LINE",
"243 214 LINE"
);
}
);
width = 390;
}
);
note = Iacute;
unicode = 00CD;
},
{
glyphname = Icircumflex;
layers = (
{
layerId = "F615FF3B-AC20-4656-A54C-A768163DB377";
paths = (
{
closed = 1;
nodes = (
"243 310 LINE",
"249 287 LINE",
"147 311 LINE",
"153 286 LINE",
"54 310 LINE",
"142 333 LINE",
"136 357 LINE",
"160 357 LINE",
"148 405 LINE",
"249 381 LINE",
"255 357 LINE",
"231 357 LINE",
"243 310 LINE",
"332 333 LINE",
"327 357 LINE",
"350 357 LINE",
"332 429 LINE",
"243 405 LINE",
"231 453 LINE",
"255 453 LINE",
"249 477 LINE",
"148 500 LINE",
"160 453 LINE",
"136 453 LINE",
"142 429 LINE",
"52 405 LINE",
"64 357 LINE",
"40 357 LINE",
"52 309 LINE",
"64 262 LINE",
"40 262 LINE",
"52 214 LINE",
"142 238 LINE",
"159 167 LINE",
"136 167 LINE",
"153 95 LINE",
"52 119 LINE",
"64 71 LINE",
"40 71 LINE",
"52 24 LINE",
"153 0 LINE",
"148 24 LINE",
"249 0 LINE",
"243 24 LINE",
"344 0 LINE",
"326 71 LINE",
"350 71 LINE",
"344 95 LINE",
"243 119 LINE",
"231 167 LINE",
"255 167 LINE",
"243 214 LINE",
"344 191 LINE",
"326 262 LINE",
"350 262 LINE",
"344 286 LINE"
);
}
);
width = 390;
}
);
note = Icircumflex;
unicode = 00CE;
},
{
glyphname = Idieresis;
layers = (
{
layerId = "F615FF3B-AC20-4656-A54C-A768163DB377";
paths = (
{
closed = 1;
nodes = (
"40 452 LINE",
"64 452 LINE",
"52 500 LINE",
"153 477 LINE",
"159 452 LINE",
"135 452 LINE",
"153 381 LINE",
"52 405 LINE"
);
},
{
closed = 1;
nodes = (
"344 381 LINE",
"325 452 LINE",
"350 452 LINE",
"344 477 LINE",
"242 500 LINE",
"255 452 LINE",
"230 452 LINE",
"242 405 LINE"
);
},
{
closed = 1;
nodes = (
"344 190 LINE",
"326 262 LINE",
"350 262 LINE",
"344 285 LINE",
"242 310 LINE",
"249 286 LINE",
"147 310 LINE",
"153 286 LINE",
"52 310 LINE",
"64 262 LINE",
"40 262 LINE",
"52 215 LINE",
"141 238 LINE",
"159 167 LINE",
"135 167 LINE",
"153 95 LINE",
"52 119 LINE",
"64 72 LINE",
"40 71 LINE",
"52 23 LINE",
"153 0 LINE",
"147 23 LINE",
"249 0 LINE",
"242 23 LINE",
"344 0 LINE",
"326 71 LINE",
"350 72 LINE",
"344 95 LINE",
"242 119 LINE",
"231 167 LINE",
"255 167 LINE",
"242 214 LINE"
);
}
);
width = 390;
}
);
note = Idieresis;
unicode = 00CF;
},
{
glyphname = Igrave;
layers = (
{
layerId = "F615FF3B-AC20-4656-A54C-A768163DB377";
paths = (
{
closed = 1;
nodes = (
"242 119 LINE",
"230 166 LINE",
"254 166 LINE",
"242 214 LINE",
"343 190 LINE",
"326 261 LINE",
"349 262 LINE",
"343 285 LINE",
"242 309 LINE",
"230 357 LINE",
"254 357 LINE",
"248 381 LINE",
"147 405 LINE",
"135 452 LINE",
"159 453 LINE",
"153 476 LINE",
"52 500 LINE",
"64 453 LINE",
"40 452 LINE",
"52 405 LINE",
"153 381 LINE",
"159 357 LINE",
"135 357 LINE",
"147 310 LINE",
"153 285 LINE",
"52 309 LINE",
"64 262 LINE",
"40 261 LINE",
"52 214 LINE",
"141 238 LINE",
"159 166 LINE",
"135 166 LINE",
"153 95 LINE",
"52 119 LINE",
"64 71 LINE",
"40 71 LINE",
"52 24 LINE",
"153 0 LINE",
"147 24 LINE",
"248 0 LINE",
"242 24 LINE",
"343 0 LINE",
"326 71 LINE",
"349 71 LINE",
"343 95 LINE"
);
}
);
width = 389;
}
);
note = Igrave;
unicode = 00CC;
},
{
glyphname = J;
lastChange = "2022-03-14 21:24:50 +0000";
layers = (
{
layerId = "F615FF3B-AC20-4656-A54C-A768163DB377";
paths = (
{
closed = 1;
nodes = (
"243 119 LINE",
"344 95 LINE",
"326 167 LINE",
"350 167 LINE",
"326 262 LINE",
"350 262 LINE",
"326 357 LINE",
"350 357 LINE",
"326 452 LINE",
"350 452 LINE",
"338 500 LINE",
"439 476 LINE",
"445 452 LINE",
"421 452 LINE",
"445 357 LINE",
"421 357 LINE",
"445 262 LINE",
"421 262 LINE",
"445 167 LINE",
"421 167 LINE",
"445 71 LINE",
"421 71 LINE",
"427 48 LINE",
"338 24 LINE",
"344 0 LINE",
"243 24 LINE",
"249 0 LINE",
"148 24 LINE",
"136 71 LINE",
"159 71 LINE",
"153 95 LINE",
"52 119 LINE",
"40 167 LINE",
"64 167 LINE",
"52 214 LINE",
"142 238 LINE",
"159 167 LINE",
"136 167 LINE",
"148 119 LINE",
"249 95 LINE"
);
}
);
width = 505;
}
);
note = J;
unicode = 004A;
},
{
glyphname = K;
lastChange = "2022-03-14 21:25:10 +0000";
layers = (
{
layerId = "F615FF3B-AC20-4656-A54C-A768163DB377";
paths = (
{
closed = 1;
nodes = (
"442 357 LINE",
"447 333 LINE",
"358 309 LINE",
"370 261 LINE",
"346 261 LINE",
"358 214 LINE",
"447 238 LINE",
"465 166 LINE",
"442 167 LINE",
"465 71 LINE",
"442 71 LINE",
"459 0 LINE",
"358 24 LINE",
"346 71 LINE",
"370 71 LINE",
"346 167 LINE",
"370 166 LINE",
"364 190 LINE",
"263 214 LINE",
"257 238 LINE",
"167 214 LINE",
"179 166 LINE",
"155 167 LINE",
"179 71 LINE",
"155 71 LINE",
"173 0 LINE",
"72 24 LINE",
"60 71 LINE",
"84 71 LINE",
"60 167 LINE",
"84 166 LINE",
"60 261 LINE",
"84 261 LINE",
"60 357 LINE",
"84 357 LINE",
"60 452 LINE",
"84 452 LINE",
"72 500 LINE",
"173 476 LINE",
"179 452 LINE",
"155 452 LINE",
"179 357 LINE",
"155 357 LINE",
"167 309 LINE",
"269 285 LINE",
"263 309 LINE",
"352 333 LINE",
"346 357 LINE",
"370 357 LINE",
"346 452 LINE",
"370 452 LINE",
"358 500 LINE",
"459 476 LINE",
"465 452 LINE",
"441 452 LINE",
"465 357 LINE"
);
}
);
width = 505;
}
);
note = K;
unicode = 004B;
},
{
glyphname = L;
lastChange = "2022-03-14 21:25:19 +0000";
layers = (
{
layerId = "F615FF3B-AC20-4656-A54C-A768163DB377";
paths = (
{
closed = 1;
nodes = (
"84 452 LINE",
"60 452 LINE",
"84 357 LINE",
"60 357 LINE",
"84 262 LINE",
"60 262 LINE",
"84 167 LINE",
"60 167 LINE",
"84 71 LINE",
"60 71 LINE",
"72 24 LINE",
"173 0 LINE",
"167 24 LINE",
"269 0 LINE",
"263 24 LINE",
"364 0 LINE",
"358 24 LINE",
"459 0 LINE",
"441 71 LINE",
"465 71 LINE",
"447 143 LINE",
"358 119 LINE",
"364 95 LINE",
"263 119 LINE",
"269 95 LINE",
"167 119 LINE",
"156 167 LINE",
"179 167 LINE",
"156 262 LINE",
"179 262 LINE",
"156 357 LINE",
"179 357 LINE",
"156 452 LINE",
"179 452 LINE",
"173 476 LINE",
"72 500 LINE"
);
}
);
width = 505;
}
);
note = L;
unicode = 004C;
},
{
glyphname = M;
lastChange = "2022-03-14 21:25:35 +0000";
layers = (
{
layerId = "F615FF3B-AC20-4656-A54C-A768163DB377";
paths = (
{
closed = 1;
nodes = (
"531 452 LINE",
"555 452 LINE",
"543 500 LINE",
"644 476 LINE",
"639 500 LINE",
"740 476 LINE",
"746 452 LINE",
"722 452 LINE",
"746 357 LINE",
"722 357 LINE",
"746 262 LINE",
"722 262 LINE",
"746 167 LINE",
"722 167 LINE",
"746 72 LINE",
"722 71 LINE",
"740 0 LINE",
"639 24 LINE",
"627 71 LINE",
"650 72 LINE",
"627 167 LINE",
"650 167 LINE",
"627 262 LINE",
"650 262 LINE",
"627 357 LINE",
"650 357 LINE",
"632 429 LINE",
"543 405 LINE",
"555 357 LINE",
"531 357 LINE",
"537 333 LINE",
"448 309 LINE",
"460 262 LINE",
"436 262 LINE",
"460 167 LINE",
"436 167 LINE",
"460 72 LINE",
"436 71 LINE",
"454 0 LINE",
"353 24 LINE",
"341 71 LINE",
"365 72 LINE",
"341 167 LINE",
"365 167 LINE",
"341 262 LINE",
"365 262 LINE",
"359 286 LINE",
"258 309 LINE",
"246 357 LINE",
"270 357 LINE",
"264 381 LINE",
"162 405 LINE",
"174 357 LINE",
"150 357 LINE",
"174 262 LINE",
"150 262 LINE",
"174 167 LINE",
"150 167 LINE",
"174 72 LINE",
"150 71 LINE",
"168 0 LINE",
"67 24 LINE",
"55 71 LINE",
"79 72 LINE",
"55 167 LINE",
"79 167 LINE",
"55 262 LINE",
"79 262 LINE",
"55 357 LINE",
"79 357 LINE",
"55 452 LINE",
"79 452 LINE",
"67 500 LINE",
"168 476 LINE",
"162 500 LINE",
"264 476 LINE",
"270 452 LINE",
"246 452 LINE",
"258 405 LINE",
"359 381 LINE",
"365 357 LINE",
"341 357 LINE",
"353 309 LINE",
"442 333 LINE",
"436 357 LINE",
"460 357 LINE",
"448 405 LINE",
"537 429 LINE"
);
}
);
width = 806;
}
);
note = M;
unicode = 004D;
},
{
glyphname = N;
lastChange = "2022-03-14 21:25:58 +0000";
layers = (
{
layerId = "F615FF3B-AC20-4656-A54C-A768163DB377";
paths = (
{
closed = 1;
nodes = (
"162 500 LINE",
"168 476 LINE",
"67 500 LINE",
"79 453 LINE",
"55 453 LINE",
"79 357 LINE",
"55 357 LINE",
"79 262 LINE",
"55 262 LINE",
"79 167 LINE",
"55 167 LINE",
"79 71 LINE",
"55 71 LINE",
"67 24 LINE",
"168 0 LINE",
"150 71 LINE",
"174 71 LINE",
"150 167 LINE",
"174 167 LINE",
"150 262 LINE",
"174 262 LINE",
"150 357 LINE",
"174 357 LINE",
"162 405 LINE",
"263 381 LINE",
"269 357 LINE",
"245 357 LINE",
"269 262 LINE",
"245 262 LINE",
"269 167 LINE",
"245 167 LINE",
"257 119 LINE",
"358 95 LINE",
"364 71 LINE",
"341 71 LINE",
"352 24 LINE",
"454 0 LINE",
"448 24 LINE",
"549 0 LINE",
"531 71 LINE",
"555 71 LINE",
"531 167 LINE",
"555 167 LINE",
"531 262 LINE",
"555 262 LINE",
"531 357 LINE",
"555 357 LINE",
"531 452 LINE",
"555 452 LINE",
"549 476 LINE",
"448 500 LINE",
"460 452 LINE",
"436 452 LINE",
"460 357 LINE",
"436 357 LINE",
"460 262 LINE",
"436 262 LINE",
"460 167 LINE",
"436 167 LINE",
"454 95 LINE",
"352 119 LINE",
"341 167 LINE",
"364 167 LINE",
"341 262 LINE",
"364 262 LINE",
"341 357 LINE",
"364 357 LINE",
"358 381 LINE",
"257 405 LINE",
"245 453 LINE",
"269 453 LINE",
"263 476 LINE"
);
}
);
width = 610;
}
);
note = N;
unicode = 004E;
},
{
glyphname = Ntilde;
layers = (
{
layerId = "F615FF3B-AC20-4656-A54C-A768163DB377";
paths = (
{
closed = 1;
nodes = (
"153 477 LINE",
"159 453 LINE",
"135 453 LINE",
"147 405 LINE",
"237 429 LINE",
"231 453 LINE",
"255 453 LINE",
"243 500 LINE",
"344 477 LINE",
"350 453 LINE",
"326 453 LINE",
"344 381 LINE",
"243 405 LINE",
"255 357 LINE",
"231 357 LINE",
"237 334 LINE",
"147 310 LINE",
"135 357 LINE",
"159 357 LINE",
"153 381 LINE",
"52 405 LINE",
"40 453 LINE",
"64 453 LINE",
"52 500 LINE"
);
},
{
closed = 1;
nodes = (
"153 0 LINE",
"135 71 LINE",
"159 71 LINE",
"135 167 LINE",
"159 167 LINE",
"147 214 LINE",
"237 238 LINE",
"255 167 LINE",
"231 167 LINE",
"255 71 LINE",
"231 71 LINE",
"243 24 LINE",
"344 0 LINE",
"326 71 LINE",
"350 71 LINE",
"326 167 LINE",
"350 167 LINE",
"326 262 LINE",
"350 262 LINE",
"344 286 LINE",
"243 310 LINE",
"249 286 LINE",
"147 310 LINE",
"153 286 LINE",
"52 309 LINE",
"64 262 LINE",
"40 262 LINE",
"64 167 LINE",
"40 167 LINE",
"64 71 LINE",
"40 71 LINE",
"52 24 LINE"
);
}
);
width = 390;
}
);
note = Ntilde;
unicode = 00D1;
},
{
glyphname = O;
lastChange = "2022-03-14 21:20:15 +0000";
layers = (
{
layerId = "F615FF3B-AC20-4656-A54C-A768163DB377";
paths = (
{
closed = 1;
nodes = (
"169 452 LINE",
"157 500 LINE",
"259 476 LINE",
"253 500 LINE",
"354 476 LINE",
"348 500 LINE",
"449 476 LINE",
"455 452 LINE",
"432 452 LINE",
"455 357 LINE",
"432 357 LINE",
"455 262 LINE",
"432 261 LINE",
"455 166 LINE",
"432 167 LINE",
"438 143 LINE",
"348 119 LINE",
"360 71 LINE",
"336 71 LINE",
"342 48 LINE",
"253 24 LINE",
"259 0 LINE",
"157 24 LINE",
"151 48 LINE",
"62 24 LINE",
"50 71 LINE",
"74 71 LINE",
"50 167 LINE",
"74 166 LINE",
"50 261 LINE",
"74 262 LINE",
"50 357 LINE",
"74 357 LINE",
"62 405 LINE",
"151 429 LINE",
"145 452 LINE"
);
},
{
closed = 1;
nodes = (
"169 262 LINE",
"145 261 LINE",
"169 166 LINE",
"145 167 LINE",
"157 119 LINE",
"259 95 LINE",
"253 119 LINE",
"342 143 LINE",
"336 167 LINE",
"360 166 LINE",
"336 261 LINE",
"360 262 LINE",
"336 357 LINE",
"360 357 LINE",
"342 429 LINE",
"253 405 LINE",
"259 381 LINE",
"157 405 LINE",
"169 357 LINE",
"145 357 LINE"
);
}
);
width = 505;
}
);
note = O;
unicode = 004F;
},
{
glyphname = Oacute;
layers = (
{
layerId = "F615FF3B-AC20-4656-A54C-A768163DB377";
paths = (
{
closed = 1;
nodes = (
"237 334 LINE",
"231 358 LINE",
"255 358 LINE",
"243 405 LINE",
"332 429 LINE",
"326 453 LINE",
"350 453 LINE",
"344 477 LINE",
"243 500 LINE",
"255 453 LINE",
"231 453 LINE",
"237 429 LINE",
"148 405 LINE",
"159 358 LINE",
"136 358 LINE",
"148 310 LINE"
);
},
{
closed = 1;
nodes = (
"350 71 LINE",
"326 167 LINE",
"350 167 LINE",
"326 262 LINE",
"350 262 LINE",
"344 286 LINE",
"243 310 LINE",
"248 286 LINE",
"147 310 LINE",
"153 286 LINE",
"52 310 LINE",
"64 262 LINE",
"40 262 LINE",
"64 167 LINE",
"40 167 LINE",
"64 71 LINE",
"40 71 LINE",
"52 24 LINE",
"141 48 LINE",
"148 24 LINE",
"249 0 LINE",
"243 24 LINE",
"332 48 LINE",
"326 71 LINE"
);
},
{
closed = 1;
nodes = (
"136 167 LINE",
"159 167 LINE",
"148 215 LINE",
"237 239 LINE",
"254 167 LINE",
"231 167 LINE",
"249 95 LINE",
"148 119 LINE"
);
}
);
width = 390;
}
);
note = Oacute;
unicode = 00D3;
},
{
glyphname = Ocircumflex;
lastChange = "2022-04-19 20:50:03 +0000";
layers = (
{
layerId = "F615FF3B-AC20-4656-A54C-A768163DB377";
paths = (
{
closed = 1;
nodes = (
"141 334 LINE",
"135 357 LINE",
"159 357 LINE",
"147 405 LINE",
"248 381 LINE",
"254 357 LINE",
"230 357 LINE",
"242 310 LINE",
"331 334 LINE",
"325 357 LINE",
"349 357 LINE",
"331 429 LINE",
"242 405 LINE",
"230 452 LINE",
"254 452 LINE",
"248 476 LINE",
"147 500 LINE",
"159 452 LINE",
"135 452 LINE",
"141 429 LINE",
"52 405 LINE",
"64 357 LINE",
"40 357 LINE",
"52 310 LINE"
);
},
{
closed = 1;
nodes = (
"350 71 LINE",
"326 167 LINE",
"350 167 LINE",
"326 262 LINE",
"350 262 LINE",
"344 286 LINE",
"243 310 LINE",
"248 286 LINE",
"147 310 LINE",
"153 286 LINE",
"52 310 LINE",
"64 262 LINE",
"40 262 LINE",
"64 167 LINE",
"40 167 LINE",
"64 71 LINE",
"40 71 LINE",
"52 24 LINE",
"141 48 LINE",
"148 24 LINE",
"249 0 LINE",
"243 24 LINE",
"332 48 LINE",
"326 71 LINE"
);
},
{
closed = 1;
nodes = (
"136 167 LINE",
"159 167 LINE",
"148 215 LINE",
"237 239 LINE",
"254 167 LINE",
"231 167 LINE",
"249 95 LINE",
"148 119 LINE"
);
}
);
width = 390;
}
);
note = Ocircumflex;
unicode = 00D4;
},
{
glyphname = Odieresis;
layers = (
{
layerId = "F615FF3B-AC20-4656-A54C-A768163DB377";
paths = (
{
closed = 1;
nodes = (
"40 453 LINE",
"64 453 LINE",
"52 500 LINE",
"153 476 LINE",
"159 453 LINE",
"135 453 LINE",
"153 381 LINE",
"52 405 LINE"
);
},
{
closed = 1;
nodes = (
"343 381 LINE",
"325 453 LINE",
"349 453 LINE",
"343 476 LINE",
"242 500 LINE",
"254 453 LINE",
"230 453 LINE",
"242 405 LINE"
);
},
{
closed = 1;
nodes = (
"349 71 LINE",
"325 167 LINE",
"349 167 LINE",
"325 262 LINE",
"349 262 LINE",
"343 286 LINE",
"242 309 LINE",
"248 286 LINE",
"147 309 LINE",
"153 286 LINE",
"52 309 LINE",
"64 262 LINE",
"40 262 LINE",
"64 167 LINE",
"40 167 LINE",
"64 71 LINE",
"40 71 LINE",
"52 24 LINE",
"141 47 LINE",
"147 24 LINE",
"248 0 LINE",
"242 24 LINE",
"331 48 LINE",
"325 71 LINE"
);
},
{
closed = 1;
nodes = (
"135 166 LINE",
"159 167 LINE",
"147 214 LINE",
"236 238 LINE",
"254 167 LINE",
"230 166 LINE",
"248 95 LINE",
"147 119 LINE"
);
}
);
width = 389;
}
);
note = Odieresis;
unicode = 00D6;
},
{
glyphname = Ograve;
lastChange = "2022-04-19 20:52:05 +0000";
layers = (
{
layerId = "F615FF3B-AC20-4656-A54C-A768163DB377";
paths = (
{
closed = 1;
nodes = (
"349 262 LINE",
"343 286 LINE",
"242 310 LINE",
"248 286 LINE",
"230 357 LINE",
"254 357 LINE",
"248 381 LINE",
"147 405 LINE",
"135 452 LINE",
"159 453 LINE",
"153 476 LINE",
"52 500 LINE",
"64 453 LINE",
"40 452 LINE",
"52 405 LINE",
"153 381 LINE",
"159 357 LINE",
"135 357 LINE",
"147 310 LINE",
"153 286 LINE",
"52 310 LINE",
"64 262 LINE",
"40 262 LINE",
"64 167 LINE",
"40 167 LINE",
"64 71 LINE",
"40 71 LINE",
"52 24 LINE",
"141 48 LINE",
"147 24 LINE",
"248 0 LINE",
"242 24 LINE",
"332 48 LINE",
"325 71 LINE",
"349 71 LINE",
"325 167 LINE",
"349 167 LINE",
"325 262 LINE"
);
},
{
closed = 1;
nodes = (
"147 119 LINE",
"135 166 LINE",
"159 167 LINE",
"147 214 LINE",
"237 239 LINE",
"254 167 LINE",
"230 166 LINE",
"248 95 LINE"
);
}
);
width = 389;
}
);
note = Ograve;
unicode = 00D2;
},
{
glyphname = Otilde;
layers = (
{
layerId = "F615FF3B-AC20-4656-A54C-A768163DB377";
paths = (
{
closed = 1;
nodes = (
"153 476 LINE",
"159 452 LINE",
"135 452 LINE",
"147 405 LINE",
"236 429 LINE",
"230 452 LINE",
"254 452 LINE",
"242 500 LINE",
"344 476 LINE",
"350 452 LINE",
"326 452 LINE",
"344 381 LINE",
"242 405 LINE",
"254 357 LINE",
"230 357 LINE",
"236 333 LINE",
"147 310 LINE",
"135 357 LINE",
"159 357 LINE",
"153 381 LINE",
"52 405 LINE",
"40 452 LINE",
"64 452 LINE",
"52 500 LINE"
);
},
{
closed = 1;
nodes = (
"350 71 LINE",
"326 167 LINE",
"350 167 LINE",
"326 262 LINE",
"350 262 LINE",
"344 286 LINE",
"242 310 LINE",
"248 286 LINE",
"147 310 LINE",
"153 286 LINE",
"52 310 LINE",
"64 262 LINE",
"40 262 LINE",
"64 167 LINE",
"40 167 LINE",
"64 71 LINE",
"40 71 LINE",
"52 24 LINE",
"141 48 LINE",
"147 24 LINE",
"248 0 LINE",
"242 24 LINE",
"332 48 LINE",
"326 71 LINE"
);
},
{
closed = 1;
nodes = (
"135 167 LINE",
"159 167 LINE",
"147 214 LINE",
"236 238 LINE",
"254 167 LINE",
"230 167 LINE",
"248 95 LINE",
"147 119 LINE"
);
}
);
width = 390;
}
);
note = Otilde;
unicode = 00D5;
},
{
glyphname = OE;
lastChange = "2022-03-09 15:17:22 +0000";
layers = (
{
layerId = "F615FF3B-AC20-4656-A54C-A768163DB377";
paths = (
{
closed = 1;
nodes = (
"624 118 LINE",
"631 94 LINE",
"529 118 LINE",
"535 94 LINE",
"434 118 LINE",
"423 166 LINE",
"446 166 LINE",
"434 214 LINE",
"535 190 LINE",
"529 214 LINE",
"631 190 LINE",
"613 261 LINE",
"636 261 LINE",
"631 286 LINE",
"529 310 LINE",
"535 286 LINE",
"434 310 LINE",
"423 358 LINE",
"446 358 LINE",
"434 404 LINE",
"535 380 LINE",
"529 404 LINE",
"631 380 LINE",
"624 404 LINE",
"725 380 LINE",
"709 453 LINE",
"733 453 LINE",
"725 476 LINE",
"624 500 LINE",
"631 476 LINE",
"529 500 LINE",
"535 476 LINE",
"434 500 LINE",
"439 476 LINE",
"338 500 LINE",
"345 476 LINE",
"243 500 LINE",
"249 476 LINE",
"148 500 LINE",
"160 453 LINE",
"136 453 LINE",
"141 429 LINE",
"51 404 LINE",
"64 358 LINE",
"40 358 LINE",
"64 261 LINE",
"40 261 LINE",
"64 166 LINE",
"40 166 LINE",
"64 71 LINE",
"40 71 LINE",
"51 24 LINE",
"141 48 LINE",
"148 24 LINE",
"249 0 LINE",
"243 24 LINE",
"331 48 LINE",
"338 24 LINE",
"439 0 LINE",
"434 24 LINE",
"535 0 LINE",
"529 24 LINE",
"631 0 LINE",
"624 24 LINE",
"714 48 LINE",
"709 71 LINE",
"733 71 LINE",
"714 143 LINE"
);
},
{
closed = 1;
nodes = (
"136 166 LINE",
"160 166 LINE",
"136 261 LINE",
"160 261 LINE",
"136 358 LINE",
"160 358 LINE",
"148 404 LINE",
"249 380 LINE",
"243 404 LINE",
"331 429 LINE",
"350 358 LINE",
"326 358 LINE",
"350 261 LINE",
"326 261 LINE",
"350 166 LINE",
"326 166 LINE",
"331 143 LINE",
"243 118 LINE",
"249 94 LINE",
"148 118 LINE"
);
}
);
width = 773;
}
);
note = OE;
unicode = 0152;
},
{
glyphname = P;
lastChange = "2022-03-14 21:26:28 +0000";
layers = (
{
layerId = "F615FF3B-AC20-4656-A54C-A768163DB377";
paths = (
{
closed = 1;
nodes = (
"84 452 LINE",
"60 452 LINE",
"84 357 LINE",
"60 357 LINE",
"84 262 LINE",
"60 262 LINE",
"84 166 LINE",
"60 167 LINE",
"84 71 LINE",
"60 71 LINE",
"72 24 LINE",
"173 0 LINE",
"156 71 LINE",
"179 71 LINE",
"156 167 LINE",
"179 166 LINE",
"168 214 LINE",
"269 190 LINE",
"263 214 LINE",
"364 190 LINE",
"358 214 LINE",
"447 238 LINE",
"442 262 LINE",
"465 262 LINE",
"442 357 LINE",
"465 357 LINE",
"442 452 LINE",
"465 452 LINE",
"459 476 LINE",
"358 500 LINE",
"364 476 LINE",
"263 500 LINE",
"269 476 LINE",
"168 500 LINE",
"173 476 LINE",
"72 500 LINE"
);
},
{
closed = 1;
nodes = (
"257 429 LINE",
"263 405 LINE",
"352 429 LINE",
"370 357 LINE",
"346 357 LINE",
"364 286 LINE",
"263 309 LINE",
"269 286 LINE",
"168 309 LINE",
"156 357 LINE",
"179 357 LINE",
"168 405 LINE"
);
}
);
width = 515;
}
);
note = P;
unicode = 0050;
},
{
glyphname = Q;
lastChange = "2022-03-14 21:26:41 +0000";
layers = (
{
layerId = "F615FF3B-AC20-4656-A54C-A768163DB377";
paths = (
{
closed = 1;
nodes = (
"455 166 LINE",
"432 261 LINE",
"455 262 LINE",
"432 357 LINE",
"455 357 LINE",
"432 452 LINE",
"455 452 LINE",
"449 476 LINE",
"348 500 LINE",
"354 476 LINE",
"253 500 LINE",
"259 476 LINE",
"157 500 LINE",
"169 452 LINE",
"145 452 LINE",
"151 429 LINE",
"62 405 LINE",
"74 357 LINE",
"50 357 LINE",
"74 262 LINE",
"50 261 LINE",
"74 166 LINE",
"50 167 LINE",
"74 71 LINE",
"50 71 LINE",
"62 24 LINE",
"151 48 LINE",
"157 24 LINE",
"259 0 LINE",
"253 24 LINE",
"342 48 LINE",
"348 23 LINE",
"438 47 LINE",
"444 23 LINE",
"533 47 LINE",
"527 71 LINE",
"551 71 LINE",
"533 142 LINE",
"444 118 LINE",
"432 167 LINE"
);
},
{
closed = 1;
nodes = (
"360 166 LINE",
"336 166 LINE",
"354 95 LINE",
"253 119 LINE",
"259 95 LINE",
"157 119 LINE",
"145 167 LINE",
"169 166 LINE",
"145 261 LINE",
"169 262 LINE",
"145 357 LINE",
"169 357 LINE",
"157 405 LINE",
"259 381 LINE",
"253 405 LINE",
"342 429 LINE",
"360 357 LINE",
"336 357 LINE",
"360 262 LINE",
"336 261 LINE"
);
}
);
width = 571;
}
);
note = Q;
unicode = 0051;
},
{
glyphname = R;
lastChange = "2022-03-14 21:27:19 +0000";
layers = (
{
layerId = "F615FF3B-AC20-4656-A54C-A768163DB377";
paths = (
{
closed = 1;
nodes = (
"441 357 LINE",
"465 262 LINE",
"441 262 LINE",
"447 238 LINE",
"358 214 LINE",
"459 190 LINE",
"465 167 LINE",
"441 167 LINE",
"465 71 LINE",
"441 71 LINE",
"459 0 LINE",
"358 24 LINE",
"346 71 LINE",
"369 71 LINE",
"346 167 LINE",
"369 167 LINE",
"363 191 LINE",
"262 214 LINE",
"256 238 LINE",
"167 214 LINE",
"179 167 LINE",
"155 167 LINE",
"179 71 LINE",
"155 71 LINE",
"173 0 LINE",
"72 24 LINE",
"60 71 LINE",
"84 71 LINE",
"60 167 LINE",
"84 167 LINE",
"60 262 LINE",
"84 262 LINE",
"60 357 LINE",
"84 357 LINE",
"60 452 LINE",
"84 452 LINE",
"72 500 LINE",
"173 476 LINE",
"167 500 LINE",
"268 476 LINE",
"262 500 LINE",
"363 476 LINE",
"369 452 LINE",
"346 452 LINE",
"358 405 LINE",
"459 381 LINE",
"465 357 LINE"
);
},
{
closed = 1;
nodes = (
"180 357 LINE",
"156 358 LINE",
"168 310 LINE",
"269 286 LINE",
"263 310 LINE",
"364 286 LINE",
"346 358 LINE",
"370 357 LINE",
"364 381 LINE",
"263 404 LINE",
"257 428 LINE",
"168 404 LINE"
);
}
);
width = 505;
}
);
note = R;
unicode = 0052;
},
{
glyphname = S;
lastChange = "2022-03-14 21:29:20 +0000";
layers = (
{
layerId = "F615FF3B-AC20-4656-A54C-A768163DB377";
paths = (
{
closed = 1;
nodes = (
"74 451 LINE",
"62 498 LINE",
"163 475 LINE",
"157 500 LINE",
"258 476 LINE",
"252 500 LINE",
"353 476 LINE",
"347 500 LINE",
"448 476 LINE",
"454 453 LINE",
"430 451 LINE",
"448 381 LINE",
"347 404 LINE",
"341 428 LINE",
"252 404 LINE",
"246 428 LINE",
"157 404 LINE",
"169 357 LINE",
"145 357 LINE",
"157 309 LINE",
"258 286 LINE",
"252 309 LINE",
"353 286 LINE",
"347 309 LINE",
"448 286 LINE",
"454 262 LINE",
"430 261 LINE",
"454 166 LINE",
"430 166 LINE",
"454 71 LINE",
"430 71 LINE",
"448 0 LINE",
"347 24 LINE",
"353 0 LINE",
"252 24 LINE",
"258 0 LINE",
"157 24 LINE",
"151 48 LINE",
"62 24 LINE",
"50 71 LINE",
"74 71 LINE",
"62 119 LINE",
"151 143 LINE",
"157 119 LINE",
"258 95 LINE",
"252 119 LINE",
"353 95 LINE",
"335 166 LINE",
"359 166 LINE",
"341 238 LINE",
"252 214 LINE",
"246 238 LINE",
"157 214 LINE",
"151 238 LINE",
"62 214 LINE",
"50 261 LINE",
"74 262 LINE",
"50 357 LINE",
"74 357 LINE",
"50 452 LINE"
);
}
);
width = 499;
}
);
note = S;
unicode = 0053;
},
{
glyphname = T;
layers = (
{
layerId = "F615FF3B-AC20-4656-A54C-A768163DB377";
paths = (
{
closed = 1;
nodes = (
"337 405 LINE",
"349 357 LINE",
"325 357 LINE",
"349 262 LINE",
"325 262 LINE",
"349 167 LINE",
"325 167 LINE",
"349 72 LINE",
"325 71 LINE",
"343 0 LINE",
"242 24 LINE",
"230 71 LINE",
"254 72 LINE",
"230 167 LINE",
"254 167 LINE",
"230 262 LINE",
"254 262 LINE",
"230 357 LINE",
"254 357 LINE",
"236 429 LINE",
"147 405 LINE",
"153 381 LINE",
"52 405 LINE",
"40 452 LINE",
"63 452 LINE",
"52 500 LINE",
"153 476 LINE",
"147 500 LINE",
"248 476 LINE",
"242 500 LINE",
"343 476 LINE",
"337 500 LINE",
"438 476 LINE",
"432 500 LINE",
"534 476 LINE",
"540 452 LINE",
"516 452 LINE",
"534 381 LINE",
"432 405 LINE",
"438 381 LINE"
);
}
);
width = 580;
}
);
note = T;
unicode = 0054;
},
{
glyphname = U;
lastChange = "2022-03-14 21:27:55 +0000";
layers = (
{
layerId = "F615FF3B-AC20-4656-A54C-A768163DB377";
paths = (
{
closed = 1;
nodes = (
"173 476 LINE",
"179 452 LINE",
"155 452 LINE",
"179 357 LINE",
"155 358 LINE",
"179 263 LINE",
"155 263 LINE",
"179 168 LINE",
"155 167 LINE",
"167 120 LINE",
"268 96 LINE",
"262 120 LINE",
"363 96 LINE",
"345 167 LINE",
"369 168 LINE",
"345 263 LINE",
"369 263 LINE",
"345 358 LINE",
"369 357 LINE",
"345 452 LINE",
"369 452 LINE",
"357 500 LINE",
"458 476 LINE",
"464 452 LINE",
"441 452 LINE",
"464 357 LINE",
"441 358 LINE",
"464 263 LINE",
"441 263 LINE",
"464 168 LINE",
"441 167 LINE",
"464 72 LINE",
"441 72 LINE",
"458 0 LINE",
"357 24 LINE",
"363 0 LINE",
"262 24 LINE",
"268 0 LINE",
"167 24 LINE",
"173 0 LINE",
"72 24 LINE",
"60 72 LINE",
"84 72 LINE",
"60 167 LINE",
"84 168 LINE",
"60 263 LINE",
"84 263 LINE",
"60 358 LINE",
"84 357 LINE",
"60 452 LINE",
"84 452 LINE",
"72 500 LINE"
);
}
);
width = 519;
}
);
note = U;
unicode = 0055;
},
{
glyphname = Uacute;
lastChange = "2022-03-09 13:35:35 +0000";
layers = (
{
layerId = "F615FF3B-AC20-4656-A54C-A768163DB377";
paths = (
{
closed = 1;
nodes = (
"236 333 LINE",
"230 357 LINE",
"254 357 LINE",
"242 405 LINE",
"332 429 LINE",
"326 452 LINE",
"349 452 LINE",
"343 476 LINE",
"242 500 LINE",
"254 452 LINE",
"230 452 LINE",
"236 429 LINE",
"147 405 LINE",
"159 357 LINE",
"135 357 LINE",
"147 309 LINE"
);
},
{
closed = 1;
nodes = (
"230 262 LINE",
"254 167 LINE",
"230 167 LINE",
"248 95 LINE",
"147 119 LINE",
"135 167 LINE",
"159 167 LINE",
"135 262 LINE",
"159 262 LINE",
"153 286 LINE",
"52 310 LINE",
"64 262 LINE",
"40 262 LINE",
"64 167 LINE",
"40 167 LINE",
"64 71 LINE",
"40 71 LINE",
"52 24 LINE",
"153 0 LINE",
"147 24 LINE",
"248 0 LINE",
"242 24 LINE",
"343 0 LINE",
"326 71 LINE",
"349 71 LINE",
"325 167 LINE",
"349 167 LINE",
"326 262 LINE",
"349 262 LINE",
"344 286 LINE",
"242 309 LINE",
"254 262 LINE"
);
}
);
width = 389;
}
);
note = Uacute;
unicode = 00DA;
},
{
glyphname = Ucircumflex;
lastChange = "2022-03-09 13:35:58 +0000";
layers = (
{
layerId = "F615FF3B-AC20-4656-A54C-A768163DB377";
paths = (
{
closed = 1;
nodes = (
"141 333 LINE",
"135 357 LINE",
"159 357 LINE",
"147 405 LINE",
"248 381 LINE",
"254 357 LINE",
"230 357 LINE",
"242 309 LINE",
"331 333 LINE",
"325 357 LINE",
"349 357 LINE",
"331 429 LINE",
"242 405 LINE",
"230 452 LINE",
"254 452 LINE",
"248 476 LINE",
"147 500 LINE",
"159 452 LINE",
"135 452 LINE",
"141 428 LINE",
"52 404 LINE",
"64 357 LINE",
"40 357 LINE",
"52 309 LINE"
);
},
{
closed = 1;
nodes = (
"230 262 LINE",
"254 167 LINE",
"230 166 LINE",
"248 95 LINE",
"147 119 LINE",
"135 166 LINE",
"159 167 LINE",
"135 262 LINE",
"159 262 LINE",
"153 286 LINE",
"52 309 LINE",
"64 262 LINE",
"40 262 LINE",
"64 167 LINE",
"40 167 LINE",
"64 71 LINE",
"40 71 LINE",
"52 24 LINE",
"153 0 LINE",
"147 24 LINE",
"248 0 LINE",
"242 24 LINE",
"343 0 LINE",
"325 71 LINE",
"349 71 LINE",
"325 167 LINE",
"349 167 LINE",
"325 262 LINE",
"349 262 LINE",
"343 286 LINE",
"242 309 LINE",
"254 262 LINE"
);
}
);
width = 389;
}
);
note = Ucircumflex;
unicode = 00DB;
},
{
glyphname = Udieresis;
lastChange = "2022-04-19 20:56:55 +0000";
layers = (
{
layerId = "F615FF3B-AC20-4656-A54C-A768163DB377";
paths = (
{
closed = 1;
nodes = (
"40 453 LINE",
"64 453 LINE",
"52 500 LINE",
"153 476 LINE",
"159 453 LINE",
"135 453 LINE",
"153 381 LINE",
"52 405 LINE"
);
},
{
closed = 1;
nodes = (
"343 381 LINE",
"325 453 LINE",
"349 453 LINE",
"343 476 LINE",
"242 500 LINE",
"254 453 LINE",
"230 453 LINE",
"242 405 LINE"
);
},
{
closed = 1;
nodes = (
"230 262 LINE",
"254 167 LINE",
"230 166 LINE",
"248 95 LINE",
"147 119 LINE",
"135 166 LINE",
"159 167 LINE",
"135 262 LINE",
"159 262 LINE",
"153 286 LINE",
"52 309 LINE",
"64 262 LINE",
"40 262 LINE",
"64 167 LINE",
"40 167 LINE",
"64 71 LINE",
"40 71 LINE",
"52 24 LINE",
"153 0 LINE",
"147 24 LINE",
"248 0 LINE",
"242 24 LINE",
"343 0 LINE",
"325 71 LINE",
"349 71 LINE",
"325 167 LINE",
"349 167 LINE",
"325 262 LINE",
"349 262 LINE",
"343 286 LINE",
"242 309 LINE",
"254 262 LINE"
);
}
);
width = 389;
}
);
note = Udieresis;
unicode = 00DC;
},
{
glyphname = Ugrave;
lastChange = "2022-03-09 13:35:22 +0000";
layers = (
{
layerId = "F615FF3B-AC20-4656-A54C-A768163DB377";
paths = (
{
closed = 1;
nodes = (
"40 452 LINE",
"64 453 LINE",
"52 500 LINE",
"153 476 LINE",
"159 453 LINE",
"135 452 LINE",
"147 405 LINE",
"248 381 LINE",
"254 357 LINE",
"231 357 LINE",
"248 286 LINE",
"147 309 LINE",
"135 357 LINE",
"159 357 LINE",
"153 381 LINE",
"52 405 LINE"
);
},
{
closed = 1;
nodes = (
"230 262 LINE",
"254 167 LINE",
"230 167 LINE",
"248 95 LINE",
"147 119 LINE",
"135 167 LINE",
"159 167 LINE",
"135 262 LINE",
"159 262 LINE",
"153 286 LINE",
"52 309 LINE",
"64 262 LINE",
"40 262 LINE",
"64 167 LINE",
"40 167 LINE",
"64 71 LINE",
"40 71 LINE",
"52 24 LINE",
"153 0 LINE",
"147 24 LINE",
"248 0 LINE",
"242 24 LINE",
"343 0 LINE",
"325 71 LINE",
"349 71 LINE",
"325 167 LINE",
"349 167 LINE",
"326 262 LINE",
"349 262 LINE",
"343 286 LINE",
"242 309 LINE",
"254 262 LINE"
);
}
);
width = 389;
}
);
note = Ugrave;
unicode = 00D9;
},
{
glyphname = V;
layers = (
{
layerId = "F615FF3B-AC20-4656-A54C-A768163DB377";
paths = (
{
closed = 1;
nodes = (
"248 0 LINE",
"242 24 LINE",
"331 48 LINE",
"325 71 LINE",
"349 71 LINE",
"337 119 LINE",
"427 143 LINE",
"421 167 LINE",
"444 166 LINE",
"421 262 LINE",
"444 262 LINE",
"421 357 LINE",
"444 357 LINE",
"421 452 LINE",
"444 452 LINE",
"439 475 LINE",
"337 500 LINE",
"349 452 LINE",
"325 452 LINE",
"349 357 LINE",
"325 357 LINE",
"349 262 LINE",
"325 262 LINE",
"349 166 LINE",
"325 167 LINE",
"331 143 LINE",
"242 119 LINE",
"248 95 LINE",
"147 119 LINE",
"135 167 LINE",
"159 166 LINE",
"135 262 LINE",
"159 262 LINE",
"135 357 LINE",
"159 357 LINE",
"135 452 LINE",
"159 452 LINE",
"153 476 LINE",
"51 500 LINE",
"63 452 LINE",
"40 452 LINE",
"63 357 LINE",
"40 357 LINE",
"63 262 LINE",
"40 262 LINE",
"63 166 LINE",
"40 167 LINE",
"51 119 LINE",
"153 95 LINE",
"159 71 LINE",
"135 71 LINE",
"147 24 LINE"
);
}
);
width = 484;
}
);
note = V;
unicode = 0056;
},
{
glyphname = W;
layers = (
{
layerId = "F615FF3B-AC20-4656-A54C-A768163DB377";
paths = (
{
closed = 1;
nodes = (
"152 476 LINE",
"158 453 LINE",
"135 452 LINE",
"158 357 LINE",
"135 357 LINE",
"158 262 LINE",
"135 261 LINE",
"158 166 LINE",
"135 166 LINE",
"147 119 LINE",
"247 95 LINE",
"242 119 LINE",
"330 143 LINE",
"325 166 LINE",
"348 166 LINE",
"325 261 LINE",
"348 262 LINE",
"325 357 LINE",
"348 357 LINE",
"325 452 LINE",
"348 453 LINE",
"336 500 LINE",
"437 476 LINE",
"443 453 LINE",
"420 452 LINE",
"443 357 LINE",
"420 357 LINE",
"443 262 LINE",
"420 261 LINE",
"443 166 LINE",
"420 166 LINE",
"431 119 LINE",
"532 95 LINE",
"526 119 LINE",
"615 143 LINE",
"609 166 LINE",
"633 166 LINE",
"609 261 LINE",
"633 262 LINE",
"609 357 LINE",
"633 357 LINE",
"609 452 LINE",
"633 453 LINE",
"621 500 LINE",
"722 476 LINE",
"728 453 LINE",
"704 452 LINE",
"728 357 LINE",
"704 357 LINE",
"728 262 LINE",
"704 261 LINE",
"728 166 LINE",
"704 166 LINE",
"722 95 LINE",
"621 119 LINE",
"633 71 LINE",
"609 71 LINE",
"615 47 LINE",
"526 24 LINE",
"532 0 LINE",
"431 24 LINE",
"425 48 LINE",
"336 24 LINE",
"330 48 LINE",
"242 24 LINE",
"247 0 LINE",
"147 24 LINE",
"141 47 LINE",
"52 24 LINE",
"40 71 LINE",
"63 71 LINE",
"40 166 LINE",
"63 166 LINE",
"40 261 LINE",
"63 262 LINE",
"40 357 LINE",
"63 357 LINE",
"40 452 LINE",
"63 453 LINE",
"52 500 LINE"
);
}
);
width = 768;
}
);
note = W;
unicode = 0057;
},
{
glyphname = Wacute;
lastChange = "2022-03-09 13:37:32 +0000";
layers = (
{
layerId = "F615FF3B-AC20-4656-A54C-A768163DB377";
paths = (
{
closed = 1;
nodes = (
"332 333 LINE",
"326 357 LINE",
"350 357 LINE",
"338 405 LINE",
"427 429 LINE",
"421 452 LINE",
"445 452 LINE",
"439 476 LINE",
"338 500 LINE",
"350 452 LINE",
"326 452 LINE",
"332 429 LINE",
"242 405 LINE",
"254 357 LINE",
"231 357 LINE",
"242 309 LINE"
);
},
{
closed = 1;
nodes = (
"439 0 LINE",
"433 24 LINE",
"522 48 LINE",
"516 72 LINE",
"540 71 LINE",
"516 167 LINE",
"540 167 LINE",
"516 262 LINE",
"540 262 LINE",
"534 286 LINE",
"433 310 LINE",
"445 262 LINE",
"421 262 LINE",
"445 167 LINE",
"421 167 LINE",
"439 95 LINE",
"338 119 LINE",
"326 167 LINE",
"349 167 LINE",
"326 262 LINE",
"350 262 LINE",
"344 286 LINE",
"242 309 LINE",
"254 262 LINE",
"230 262 LINE",
"254 167 LINE",
"230 167 LINE",
"248 95 LINE",
"147 119 LINE",
"135 167 LINE",
"159 167 LINE",
"135 262 LINE",
"159 262 LINE",
"153 286 LINE",
"52 310 LINE",
"64 263 LINE",
"40 263 LINE",
"64 167 LINE",
"40 167 LINE",
"64 71 LINE",
"40 71 LINE",
"52 24 LINE",
"141 48 LINE",
"147 24 LINE",
"248 0 LINE",
"242 24 LINE",
"332 48 LINE",
"338 24 LINE"
);
}
);
width = 580;
}
);
note = Wacute;
unicode = 1E82;
},
{
glyphname = Wcircumflex;
lastChange = "2022-03-09 13:37:49 +0000";
layers = (
{
layerId = "F615FF3B-AC20-4656-A54C-A768163DB377";
paths = (
{
closed = 1;
nodes = (
"237 333 LINE",
"231 357 LINE",
"254 357 LINE",
"243 405 LINE",
"344 381 LINE",
"350 357 LINE",
"326 357 LINE",
"338 309 LINE",
"427 333 LINE",
"421 357 LINE",
"445 357 LINE",
"427 429 LINE",
"338 405 LINE",
"326 452 LINE",
"350 452 LINE",
"344 476 LINE",
"243 500 LINE",
"254 452 LINE",
"231 452 LINE",
"237 429 LINE",
"147 405 LINE",
"159 357 LINE",
"135 357 LINE",
"147 309 LINE"
);
},
{
closed = 1;
nodes = (
"439 0 LINE",
"433 24 LINE",
"522 48 LINE",
"516 72 LINE",
"540 71 LINE",
"516 167 LINE",
"540 167 LINE",
"516 262 LINE",
"540 262 LINE",
"534 286 LINE",
"433 309 LINE",
"445 262 LINE",
"421 262 LINE",
"445 167 LINE",
"421 167 LINE",
"439 95 LINE",
"338 119 LINE",
"325 167 LINE",
"349 167 LINE",
"326 262 LINE",
"349 262 LINE",
"343 286 LINE",
"242 309 LINE",
"254 262 LINE",
"230 262 LINE",
"254 167 LINE",
"230 167 LINE",
"248 95 LINE",
"147 119 LINE",
"135 167 LINE",
"159 167 LINE",
"135 262 LINE",
"159 262 LINE",
"153 286 LINE",
"52 309 LINE",
"64 262 LINE",
"40 262 LINE",
"64 167 LINE",
"40 167 LINE",
"64 71 LINE",
"40 71 LINE",
"52 24 LINE",
"141 48 LINE",
"147 24 LINE",
"248 0 LINE",
"242 24 LINE",
"332 48 LINE",
"338 24 LINE"
);
}
);
width = 580;
}
);
note = Wcircumflex;
unicode = 0174;
},
{
glyphname = Wdieresis;
lastChange = "2022-03-09 13:38:02 +0000";
layers = (
{
layerId = "F615FF3B-AC20-4656-A54C-A768163DB377";
paths = (
{
closed = 1;
nodes = (
"136 453 LINE",
"159 453 LINE",
"147 500 LINE",
"249 476 LINE",
"255 453 LINE",
"231 453 LINE",
"249 381 LINE",
"147 405 LINE"
);
},
{
closed = 1;
nodes = (
"439 381 LINE",
"421 452 LINE",
"445 452 LINE",
"439 476 LINE",
"337 500 LINE",
"349 452 LINE",
"326 452 LINE",
"337 405 LINE"
);
},
{
closed = 1;
nodes = (
"439 0 LINE",
"433 24 LINE",
"522 48 LINE",
"516 72 LINE",
"540 71 LINE",
"516 167 LINE",
"540 167 LINE",
"516 262 LINE",
"540 262 LINE",
"534 286 LINE",
"433 309 LINE",
"445 262 LINE",
"421 262 LINE",
"445 167 LINE",
"421 167 LINE",
"439 95 LINE",
"338 119 LINE",
"325 167 LINE",
"349 167 LINE",
"326 262 LINE",
"349 262 LINE",
"343 286 LINE",
"242 309 LINE",
"254 262 LINE",
"230 262 LINE",
"254 167 LINE",
"230 167 LINE",
"248 95 LINE",
"147 119 LINE",
"135 167 LINE",
"159 167 LINE",
"135 262 LINE",
"159 262 LINE",
"153 286 LINE",
"52 309 LINE",
"64 262 LINE",
"40 262 LINE",
"64 167 LINE",
"40 167 LINE",
"64 71 LINE",
"40 71 LINE",
"52 24 LINE",
"141 48 LINE",
"147 24 LINE",
"248 0 LINE",
"242 24 LINE",
"332 48 LINE",
"338 24 LINE"
);
}
);
width = 580;
}
);
note = Wdieresis;
unicode = 1E84;
},
{
glyphname = Wgrave;
lastChange = "2022-03-09 13:38:17 +0000";
layers = (
{
layerId = "F615FF3B-AC20-4656-A54C-A768163DB377";
paths = (
{
closed = 1;
nodes = (
"231 452 LINE",
"254 453 LINE",
"242 500 LINE",
"344 476 LINE",
"350 453 LINE",
"326 452 LINE",
"338 405 LINE",
"439 381 LINE",
"445 357 LINE",
"421 357 LINE",
"439 286 LINE",
"338 309 LINE",
"326 357 LINE",
"350 357 LINE",
"344 381 LINE",
"242 405 LINE"
);
},
{
closed = 1;
nodes = (
"439 0 LINE",
"433 24 LINE",
"522 48 LINE",
"516 72 LINE",
"540 71 LINE",
"516 167 LINE",
"540 167 LINE",
"516 262 LINE",
"540 262 LINE",
"534 286 LINE",
"433 310 LINE",
"445 262 LINE",
"421 262 LINE",
"445 167 LINE",
"421 167 LINE",
"439 95 LINE",
"338 119 LINE",
"326 167 LINE",
"349 167 LINE",
"326 262 LINE",
"350 262 LINE",
"344 286 LINE",
"242 309 LINE",
"254 262 LINE",
"231 262 LINE",
"254 167 LINE",
"231 167 LINE",
"248 95 LINE",
"147 119 LINE",
"135 167 LINE",
"159 167 LINE",
"135 262 LINE",
"159 262 LINE",
"153 286 LINE",
"52 310 LINE",
"64 263 LINE",
"40 263 LINE",
"64 167 LINE",
"40 167 LINE",
"64 71 LINE",
"40 71 LINE",
"52 24 LINE",
"141 48 LINE",
"147 24 LINE",
"248 0 LINE",
"242 24 LINE",
"332 48 LINE",
"338 24 LINE"
);
}
);
width = 580;
}
);
note = Wgrave;
unicode = 1E80;
},
{
glyphname = X;
layers = (
{
layerId = "F615FF3B-AC20-4656-A54C-A768163DB377";
paths = (
{
closed = 1;
nodes = (
"159 262 LINE",
"153 286 LINE",
"52 309 LINE",
"40 357 LINE",
"64 357 LINE",
"40 452 LINE",
"64 452 LINE",
"52 500 LINE",
"153 476 LINE",
"159 452 LINE",
"136 452 LINE",
"159 357 LINE",
"136 357 LINE",
"148 309 LINE",
"249 286 LINE",
"243 309 LINE",
"332 333 LINE",
"327 357 LINE",
"351 357 LINE",
"327 452 LINE",
"351 452 LINE",
"339 500 LINE",
"440 476 LINE",
"446 452 LINE",
"423 452 LINE",
"446 357 LINE",
"423 357 LINE",
"439 286 LINE",
"338 309 LINE",
"350 262 LINE",
"326 262 LINE",
"338 214 LINE",
"439 190 LINE",
"445 167 LINE",
"421 167 LINE",
"445 71 LINE",
"421 71 LINE",
"439 0 LINE",
"338 24 LINE",
"326 71 LINE",
"350 71 LINE",
"326 167 LINE",
"350 167 LINE",
"344 190 LINE",
"243 214 LINE",
"255 167 LINE",
"231 167 LINE",
"237 143 LINE",
"148 119 LINE",
"159 71 LINE",
"136 71 LINE",
"153 0 LINE",
"52 24 LINE",
"40 71 LINE",
"64 71 LINE",
"40 167 LINE",
"64 167 LINE",
"52 214 LINE",
"153 191 LINE",
"136 262 LINE"
);
}
);
width = 486;
}
);
note = X;
unicode = 0058;
},
{
glyphname = Y;
layers = (
{
layerId = "F615FF3B-AC20-4656-A54C-A768163DB377";
paths = (
{
closed = 1;
nodes = (
"250 0 LINE",
"232 71 LINE",
"256 71 LINE",
"244 119 LINE",
"333 143 LINE",
"327 167 LINE",
"351 167 LINE",
"339 214 LINE",
"428 238 LINE",
"422 262 LINE",
"446 262 LINE",
"422 357 LINE",
"446 357 LINE",
"422 453 LINE",
"446 453 LINE",
"440 476 LINE",
"339 500 LINE",
"351 453 LINE",
"327 453 LINE",
"351 357 LINE",
"327 357 LINE",
"351 262 LINE",
"327 262 LINE",
"333 238 LINE",
"244 214 LINE",
"231 262 LINE",
"254 262 LINE",
"248 286 LINE",
"147 309 LINE",
"135 357 LINE",
"159 357 LINE",
"135 452 LINE",
"159 452 LINE",
"153 476 LINE",
"51 500 LINE",
"63 452 LINE",
"40 452 LINE",
"63 357 LINE",
"40 357 LINE",
"63 262 LINE",
"40 262 LINE",
"52 214 LINE",
"141 238 LINE",
"148 214 LINE",
"250 191 LINE",
"256 167 LINE",
"232 167 LINE",
"238 143 LINE",
"148 119 LINE",
"160 71 LINE",
"136 71 LINE",
"148 24 LINE"
);
}
);
width = 486;
}
);
note = Y;
unicode = 0059;
},
{
glyphname = Yacute;
lastChange = "2022-03-09 15:10:44 +0000";
layers = (
{
layerId = "F615FF3B-AC20-4656-A54C-A768163DB377";
paths = (
{
closed = 1;
nodes = (
"237 333 LINE",
"231 357 LINE",
"256 357 LINE",
"244 405 LINE",
"333 428 LINE",
"326 452 LINE",
"350 453 LINE",
"345 477 LINE",
"244 500 LINE",
"256 453 LINE",
"231 452 LINE",
"237 428 LINE",
"147 405 LINE",
"159 357 LINE",
"136 357 LINE",
"147 308 LINE"
);
},
{
closed = 1;
nodes = (
"249 0 LINE",
"231 70 LINE",
"256 70 LINE",
"244 119 LINE",
"333 144 LINE",
"326 167 LINE",
"350 167 LINE",
"326 263 LINE",
"350 261 LINE",
"345 284 LINE",
"244 308 LINE",
"256 261 LINE",
"231 263 LINE",
"249 191 LINE",
"147 214 LINE",
"136 263 LINE",
"159 261 LINE",
"152 284 LINE",
"52 310 LINE",
"63 261 LINE",
"40 263 LINE",
"63 167 LINE",
"40 167 LINE",
"52 119 LINE",
"141 144 LINE",
"159 70 LINE",
"136 70 LINE",
"147 23 LINE"
);
}
);
width = 390;
}
);
note = Yacute;
unicode = 00DD;
},
{
glyphname = Ycircumflex;
lastChange = "2022-03-09 15:09:17 +0000";
layers = (
{
layerId = "F615FF3B-AC20-4656-A54C-A768163DB377";
paths = (
{
closed = 1;
nodes = (
"141 333 LINE",
"136 357 LINE",
"160 357 LINE",
"148 404 LINE",
"249 380 LINE",
"255 357 LINE",
"232 357 LINE",
"244 308 LINE",
"333 333 LINE",
"326 357 LINE",
"350 357 LINE",
"333 429 LINE",
"244 404 LINE",
"232 453 LINE",
"255 453 LINE",
"249 476 LINE",
"148 500 LINE",
"160 453 LINE",
"136 453 LINE",
"141 428 LINE",
"52 404 LINE",
"64 357 LINE",
"40 357 LINE",
"52 308 LINE"
);
},
{
closed = 1;
nodes = (
"249 0 LINE",
"232 71 LINE",
"255 71 LINE",
"244 120 LINE",
"333 143 LINE",
"326 167 LINE",
"350 167 LINE",
"326 263 LINE",
"350 261 LINE",
"345 285 LINE",
"244 308 LINE",
"255 261 LINE",
"232 263 LINE",
"249 190 LINE",
"148 214 LINE",
"136 263 LINE",
"160 261 LINE",
"154 285 LINE",
"52 308 LINE",
"64 261 LINE",
"40 263 LINE",
"64 167 LINE",
"40 167 LINE",
"52 120 LINE",
"141 143 LINE",
"160 71 LINE",
"136 71 LINE",
"148 24 LINE"
);
}
);
width = 390;
}
);
note = Ycircumflex;
unicode = 0176;
},
{
glyphname = Ydieresis;
lastChange = "2022-04-19 20:47:29 +0000";
layers = (
{
layerId = "F615FF3B-AC20-4656-A54C-A768163DB377";
paths = (
{
closed = 1;
nodes = (
"345 380 LINE",
"326 451 LINE",
"350 451 LINE",
"345 476 LINE",
"244 500 LINE",
"255 451 LINE",
"232 451 LINE",
"244 404 LINE"
);
},
{
closed = 1;
nodes = (
"40 453 LINE",
"64 453 LINE",
"52 500 LINE",
"154 476 LINE",
"160 453 LINE",
"136 453 LINE",
"154 380 LINE",
"52 404 LINE"
);
},
{
closed = 1;
nodes = (
"249 0 LINE",
"232 71 LINE",
"255 71 LINE",
"244 118 LINE",
"333 143 LINE",
"326 167 LINE",
"350 167 LINE",
"326 263 LINE",
"350 261 LINE",
"345 285 LINE",
"244 308 LINE",
"255 261 LINE",
"232 263 LINE",
"249 190 LINE",
"148 214 LINE",
"136 263 LINE",
"160 261 LINE",
"153 285 LINE",
"52 308 LINE",
"64 261 LINE",
"40 263 LINE",
"64 167 LINE",
"40 167 LINE",
"52 118 LINE",
"141 143 LINE",
"160 71 LINE",
"136 71 LINE",
"148 24 LINE"
);
}
);
width = 390;
}
);
note = Ydieresis;
unicode = 0178;
},
{
glyphname = Ygrave;
lastChange = "2022-03-09 15:11:39 +0000";
layers = (
{
layerId = "F615FF3B-AC20-4656-A54C-A768163DB377";
paths = (
{
closed = 1;
nodes = (
"40 451 LINE",
"64 453 LINE",
"52 500 LINE",
"153 476 LINE",
"158 453 LINE",
"134 451 LINE",
"146 404 LINE",
"249 380 LINE",
"254 357 LINE",
"230 357 LINE",
"249 285 LINE",
"146 308 LINE",
"134 357 LINE",
"158 357 LINE",
"153 380 LINE",
"52 404 LINE"
);
},
{
closed = 1;
nodes = (
"249 0 LINE",
"230 71 LINE",
"254 71 LINE",
"242 118 LINE",
"331 143 LINE",
"326 167 LINE",
"350 167 LINE",
"326 261 LINE",
"350 261 LINE",
"343 285 LINE",
"242 308 LINE",
"254 261 LINE",
"230 261 LINE",
"249 190 LINE",
"146 214 LINE",
"134 261 LINE",
"158 261 LINE",
"153 285 LINE",
"52 308 LINE",
"64 261 LINE",
"40 261 LINE",
"64 167 LINE",
"40 167 LINE",
"52 118 LINE",
"141 143 LINE",
"158 71 LINE",
"134 71 LINE",
"146 24 LINE"
);
}
);
width = 390;
}
);
note = Ygrave;
unicode = 1EF2;
},
{
glyphname = Z;
lastChange = "2022-03-14 21:29:29 +0000";
layers = (
{
layerId = "F615FF3B-AC20-4656-A54C-A768163DB377";
paths = (
{
closed = 1;
nodes = (
"148 476 LINE",
"142 500 LINE",
"243 476 LINE",
"237 500 LINE",
"338 476 LINE",
"332 500 LINE",
"433 476 LINE",
"439 453 LINE",
"415 452 LINE",
"439 357 LINE",
"415 357 LINE",
"433 286 LINE",
"332 309 LINE",
"344 262 LINE",
"320 261 LINE",
"326 238 LINE",
"237 214 LINE",
"231 238 LINE",
"142 214 LINE",
"154 166 LINE",
"130 166 LINE",
"142 119 LINE",
"243 95 LINE",
"237 119 LINE",
"338 95 LINE",
"332 119 LINE",
"421 143 LINE",
"439 71 LINE",
"415 71 LINE",
"433 0 LINE",
"332 24 LINE",
"338 0 LINE",
"237 24 LINE",
"243 0 LINE",
"142 24 LINE",
"136 47 LINE",
"47 24 LINE",
"35 71 LINE",
"59 71 LINE",
"35 166 LINE",
"59 166 LINE",
"47 214 LINE",
"136 238 LINE",
"130 261 LINE",
"154 262 LINE",
"142 309 LINE",
"243 286 LINE",
"237 309 LINE",
"326 333 LINE",
"320 357 LINE",
"344 357 LINE",
"326 428 LINE",
"237 404 LINE",
"243 381 LINE",
"142 404 LINE",
"147 381 LINE",
"47 404 LINE",
"35 452 LINE",
"59 453 LINE",
"47 500 LINE"
);
}
);
width = 469;
}
);
note = Z;
unicode = 005A;
},
{
glyphname = a;
lastChange = "2022-03-14 21:15:13 +0000";
layers = (
{
layerId = "F615FF3B-AC20-4656-A54C-A768163DB377";
paths = (
{
closed = 1;
nodes = (
"456 357 LINE",
"437 429 LINE",
"348 406 LINE",
"336 453 LINE",
"360 453 LINE",
"353 476 LINE",
"252 500 LINE",
"259 476 LINE",
"156 500 LINE",
"163 476 LINE",
"62 500 LINE",
"74 453 LINE",
"50 453 LINE",
"62 406 LINE",
"163 382 LINE",
"156 406 LINE",
"259 382 LINE",
"252 406 LINE",
"353 382 LINE",
"360 357 LINE",
"336 357 LINE",
"353 286 LINE",
"252 310 LINE",
"247 333 LINE",
"156 310 LINE",
"163 286 LINE",
"62 310 LINE",
"74 263 LINE",
"50 263 LINE",
"74 167 LINE",
"50 167 LINE",
"74 72 LINE",
"50 72 LINE",
"62 24 LINE",
"163 0 LINE",
"156 24 LINE",
"259 0 LINE",
"240 72 LINE",
"264 72 LINE",
"252 120 LINE",
"353 96 LINE",
"360 72 LINE",
"336 72 LINE",
"348 24 LINE",
"449 0 LINE",
"430 72 LINE",
"456 72 LINE",
"437 145 LINE",
"348 118 LINE",
"336 167 LINE",
"360 167 LINE",
"348 214 LINE",
"449 190 LINE",
"430 263 LINE",
"456 263 LINE",
"430 357 LINE"
);
},
{
closed = 1;
nodes = (
"247 143 LINE",
"156 120 LINE",
"144 168 LINE",
"170 167 LINE",
"156 215 LINE",
"247 239 LINE",
"264 167 LINE",
"240 168 LINE"
);
}
);
width = 516;
}
);
note = a;
unicode = 0061;
},
{
glyphname = aacute;
lastChange = "2022-03-09 14:44:56 +0000";
layers = (
{
layerId = "F615FF3B-AC20-4656-A54C-A768163DB377";
paths = (
{
closed = 1;
nodes = (
"237 333 LINE",
"230 357 LINE",
"254 357 LINE",
"242 406 LINE",
"331 429 LINE",
"326 453 LINE",
"350 453 LINE",
"343 476 LINE",
"242 500 LINE",
"254 453 LINE",
"230 453 LINE",
"237 429 LINE",
"148 406 LINE",
"160 357 LINE",
"136 357 LINE",
"148 310 LINE"
);
},
{
closed = 1;
nodes = (
"350 263 LINE",
"343 286 LINE",
"242 310 LINE",
"249 286 LINE",
"148 310 LINE",
"153 286 LINE",
"52 310 LINE",
"64 263 LINE",
"40 263 LINE",
"64 167 LINE",
"40 167 LINE",
"64 71 LINE",
"40 71 LINE",
"52 24 LINE",
"153 0 LINE",
"136 71 LINE",
"160 71 LINE",
"148 120 LINE",
"237 143 LINE",
"254 71 LINE",
"230 71 LINE",
"242 24 LINE",
"343 0 LINE",
"326 71 LINE",
"350 71 LINE",
"326 167 LINE",
"350 167 LINE",
"326 263 LINE"
);
},
{
closed = 1;
nodes = (
"237 239 LINE",
"249 190 LINE",
"148 215 LINE"
);
}
);
width = 390;
}
);
note = aacute;
unicode = 00E1;
},
{
glyphname = acircumflex;
lastChange = "2022-03-09 14:45:09 +0000";
layers = (
{
layerId = "F615FF3B-AC20-4656-A54C-A768163DB377";
paths = (
{
closed = 1;
nodes = (
"141 332 LINE",
"136 356 LINE",
"159 357 LINE",
"147 404 LINE",
"248 381 LINE",
"253 357 LINE",
"230 356 LINE",
"241 309 LINE",
"332 332 LINE",
"325 356 LINE",
"349 357 LINE",
"332 428 LINE",
"241 404 LINE",
"230 451 LINE",
"253 451 LINE",
"248 477 LINE",
"147 500 LINE",
"159 451 LINE",
"136 451 LINE",
"141 428 LINE",
"52 404 LINE",
"63 357 LINE",
"40 356 LINE",
"52 309 LINE"
);
},
{
closed = 1;
nodes = (
"349 262 LINE",
"344 285 LINE",
"241 309 LINE",
"248 285 LINE",
"147 309 LINE",
"152 285 LINE",
"52 309 LINE",
"63 262 LINE",
"40 262 LINE",
"63 166 LINE",
"40 166 LINE",
"63 70 LINE",
"40 70 LINE",
"52 23 LINE",
"152 0 LINE",
"136 70 LINE",
"159 70 LINE",
"147 119 LINE",
"236 143 LINE",
"253 70 LINE",
"230 70 LINE",
"241 23 LINE",
"344 0 LINE",
"325 70 LINE",
"349 70 LINE",
"325 166 LINE",
"349 166 LINE",
"325 262 LINE"
);
},
{
closed = 1;
nodes = (
"236 238 LINE",
"248 190 LINE",
"147 213 LINE"
);
}
);
width = 389;
}
);
note = acircumflex;
unicode = 00E2;
},
{
glyphname = adieresis;
lastChange = "2022-03-09 14:45:25 +0000";
layers = (
{
layerId = "F615FF3B-AC20-4656-A54C-A768163DB377";
paths = (
{
closed = 1;
nodes = (
"345 382 LINE",
"326 453 LINE",
"351 453 LINE",
"345 476 LINE",
"244 500 LINE",
"255 453 LINE",
"232 453 LINE",
"244 406 LINE"
);
},
{
closed = 1;
nodes = (
"42 453 LINE",
"65 453 LINE",
"53 500 LINE",
"154 476 LINE",
"160 453 LINE",
"136 453 LINE",
"154 382 LINE",
"53 406 LINE"
);
},
{
closed = 1;
nodes = (
"351 263 LINE",
"345 286 LINE",
"244 310 LINE",
"249 286 LINE",
"148 310 LINE",
"154 286 LINE",
"53 310 LINE",
"65 263 LINE",
"40 263 LINE",
"65 167 LINE",
"40 167 LINE",
"65 71 LINE",
"40 71 LINE",
"53 24 LINE",
"154 0 LINE",
"136 71 LINE",
"160 71 LINE",
"148 120 LINE",
"237 143 LINE",
"255 71 LINE",
"232 71 LINE",
"244 24 LINE",
"345 0 LINE",
"326 71 LINE",
"351 71 LINE",
"326 167 LINE",
"351 167 LINE",
"326 263 LINE"
);
},
{
closed = 1;
nodes = (
"237 239 LINE",
"249 190 LINE",
"148 214 LINE"
);
}
);
width = 391;
}
);
note = adieresis;
unicode = 00E4;
},
{
glyphname = agrave;
lastChange = "2022-03-09 14:45:39 +0000";
layers = (
{
layerId = "F615FF3B-AC20-4656-A54C-A768163DB377";
paths = (
{
closed = 1;
nodes = (
"40 451 LINE",
"63 453 LINE",
"52 500 LINE",
"152 477 LINE",
"159 453 LINE",
"136 451 LINE",
"147 404 LINE",
"248 381 LINE",
"253 357 LINE",
"230 357 LINE",
"248 285 LINE",
"147 309 LINE",
"136 357 LINE",
"159 357 LINE",
"152 381 LINE",
"52 404 LINE"
);
},
{
closed = 1;
nodes = (
"349 262 LINE",
"344 285 LINE",
"241 309 LINE",
"248 285 LINE",
"147 309 LINE",
"152 285 LINE",
"52 309 LINE",
"63 262 LINE",
"40 262 LINE",
"63 166 LINE",
"40 166 LINE",
"63 72 LINE",
"40 72 LINE",
"52 23 LINE",
"152 0 LINE",
"136 72 LINE",
"159 72 LINE",
"147 119 LINE",
"236 143 LINE",
"253 72 LINE",
"230 72 LINE",
"241 23 LINE",
"344 0 LINE",
"325 72 LINE",
"349 72 LINE",
"325 166 LINE",
"349 166 LINE",
"325 262 LINE"
);
},
{
closed = 1;
nodes = (
"236 238 LINE",
"248 191 LINE",
"147 215 LINE"
);
}
);
width = 389;
}
);
note = agrave;
unicode = 00E0;
},
{
glyphname = aring;
lastChange = "2022-03-09 14:50:15 +0000";
layers = (
{
layerId = "F615FF3B-AC20-4656-A54C-A768163DB377";
paths = (
{
closed = 1;
nodes = (
"136 453 LINE",
"159 453 LINE",
"147 500 LINE",
"248 477 LINE",
"253 453 LINE",
"230 453 LINE",
"248 381 LINE",
"147 404 LINE"
);
},
{
closed = 1;
nodes = (
"349 262 LINE",
"344 285 LINE",
"241 309 LINE",
"248 285 LINE",
"147 309 LINE",
"152 285 LINE",
"52 309 LINE",
"63 262 LINE",
"40 262 LINE",
"63 168 LINE",
"40 168 LINE",
"63 72 LINE",
"40 72 LINE",
"52 23 LINE",
"152 0 LINE",
"136 72 LINE",
"159 72 LINE",
"147 119 LINE",
"236 143 LINE",
"253 72 LINE",
"230 72 LINE",
"241 23 LINE",
"344 0 LINE",
"325 72 LINE",
"349 72 LINE",
"325 168 LINE",
"349 168 LINE",
"325 262 LINE"
);
},
{
closed = 1;
nodes = (
"236 238 LINE",
"248 191 LINE",
"147 215 LINE"
);
}
);
width = 389;
}
);
note = aring;
unicode = 00E5;
},
{
glyphname = atilde;
lastChange = "2022-03-09 14:45:57 +0000";
layers = (
{
layerId = "F615FF3B-AC20-4656-A54C-A768163DB377";
paths = (
{
closed = 1;
nodes = (
"152 477 LINE",
"159 451 LINE",
"136 451 LINE",
"147 404 LINE",
"236 428 LINE",
"230 451 LINE",
"253 451 LINE",
"241 500 LINE",
"344 477 LINE",
"349 451 LINE",
"325 451 LINE",
"344 381 LINE",
"241 404 LINE",
"253 357 LINE",
"230 357 LINE",
"236 334 LINE",
"147 309 LINE",
"136 357 LINE",
"159 357 LINE",
"152 381 LINE",
"52 404 LINE",
"40 451 LINE",
"63 451 LINE",
"52 500 LINE"
);
},
{
closed = 1;
nodes = (
"349 262 LINE",
"344 285 LINE",
"241 309 LINE",
"248 285 LINE",
"147 309 LINE",
"152 285 LINE",
"52 309 LINE",
"63 262 LINE",
"40 262 LINE",
"63 166 LINE",
"40 166 LINE",
"63 72 LINE",
"40 72 LINE",
"52 23 LINE",
"152 0 LINE",
"136 72 LINE",
"159 72 LINE",
"147 119 LINE",
"236 143 LINE",
"253 72 LINE",
"230 72 LINE",
"241 23 LINE",
"344 0 LINE",
"325 72 LINE",
"349 72 LINE",
"325 166 LINE",
"349 166 LINE",
"325 262 LINE"
);
},
{
closed = 1;
nodes = (
"236 238 LINE",
"248 191 LINE",
"147 215 LINE"
);
}
);
width = 389;
}
);
note = atilde;
unicode = 00E3;
},
{
glyphname = ae;
layers = (
{
layerId = "F615FF3B-AC20-4656-A54C-A768163DB377";
paths = (
{
closed = 1;
nodes = (
"732 359 LINE",
"708 453 LINE",
"732 453 LINE",
"725 476 LINE",
"624 500 LINE",
"629 476 LINE",
"528 500 LINE",
"535 476 LINE",
"432 500 LINE",
"446 453 LINE",
"420 453 LINE",
"427 429 LINE",
"338 406 LINE",
"326 453 LINE",
"350 453 LINE",
"343 476 LINE",
"242 500 LINE",
"249 476 LINE",
"146 500 LINE",
"153 476 LINE",
"52 500 LINE",
"64 453 LINE",
"40 453 LINE",
"52 406 LINE",
"153 382 LINE",
"146 406 LINE",
"249 382 LINE",
"242 406 LINE",
"343 382 LINE",
"350 359 LINE",
"326 359 LINE",
"343 286 LINE",
"242 310 LINE",
"237 333 LINE",
"146 310 LINE",
"153 286 LINE",
"52 310 LINE",
"64 263 LINE",
"40 263 LINE",
"64 167 LINE",
"40 168 LINE",
"64 72 LINE",
"40 72 LINE",
"52 25 LINE",
"153 0 LINE",
"146 25 LINE",
"249 0 LINE",
"242 24 LINE",
"331 49 LINE",
"326 72 LINE",
"350 72 LINE",
"338 120 LINE",
"439 96 LINE",
"446 72 LINE",
"420 72 LINE",
"434 24 LINE",
"535 0 LINE",
"528 24 LINE",
"629 0 LINE",
"624 24 LINE",
"713 49 LINE",
"707 72 LINE",
"732 72 LINE",
"713 143 LINE",
"624 120 LINE",
"629 96 LINE",
"528 120 LINE",
"535 96 LINE",
"434 120 LINE",
"420 168 LINE",
"446 168 LINE",
"420 263 LINE",
"446 263 LINE",
"434 310 LINE",
"535 286 LINE",
"540 263 LINE",
"516 263 LINE",
"528 214 LINE",
"617 237 LINE",
"624 214 LINE",
"713 239 LINE",
"708 263 LINE",
"732 263 LINE",
"708 357 LINE"
);
},
{
closed = 1;
nodes = (
"530 310 LINE",
"518 357 LINE",
"542 357 LINE",
"530 406 LINE",
"619 429 LINE",
"638 357 LINE",
"612 357 LINE",
"617 333 LINE"
);
},
{
closed = 1;
nodes = (
"331 239 LINE",
"350 168 LINE",
"326 168 LINE",
"331 143 LINE",
"242 120 LINE",
"249 96 LINE",
"146 120 LINE",
"134 168 LINE",
"160 168 LINE",
"146 215 LINE",
"237 239 LINE",
"242 215 LINE"
);
}
);
width = 772;
}
);
note = ae;
unicode = 00E6;
},
{
glyphname = b;
lastChange = "2022-03-14 21:05:10 +0000";
layers = (
{
layerId = "F615FF3B-AC20-4656-A54C-A768163DB377";
paths = (
{
closed = 1;
nodes = (
"84 453 LINE",
"60 452 LINE",
"84 357 LINE",
"60 357 LINE",
"84 262 LINE",
"60 262 LINE",
"84 166 LINE",
"60 166 LINE",
"84 71 LINE",
"60 71 LINE",
"71 24 LINE",
"173 0 LINE",
"155 71 LINE",
"179 71 LINE",
"167 119 LINE",
"269 95 LINE",
"274 71 LINE",
"251 71 LINE",
"262 24 LINE",
"351 48 LINE",
"358 24 LINE",
"447 48 LINE",
"441 71 LINE",
"465 71 LINE",
"441 166 LINE",
"465 166 LINE",
"441 262 LINE",
"465 262 LINE",
"459 286 LINE",
"358 310 LINE",
"364 286 LINE",
"262 310 LINE",
"274 262 LINE",
"251 262 LINE",
"256 239 LINE",
"167 214 LINE",
"155 262 LINE",
"179 262 LINE",
"155 357 LINE",
"179 357 LINE",
"155 452 LINE",
"179 453 LINE",
"173 476 LINE",
"71 500 LINE"
);
},
{
closed = 1;
nodes = (
"251 167 LINE",
"275 166 LINE",
"263 214 LINE",
"352 238 LINE",
"370 166 LINE",
"346 167 LINE",
"352 143 LINE",
"263 119 LINE"
);
}
);
width = 515;
}
);
note = b;
unicode = 0062;
},
{
glyphname = c;
lastChange = "2022-03-14 21:06:06 +0000";
layers = (
{
layerId = "F615FF3B-AC20-4656-A54C-A768163DB377";
paths = (
{
closed = 1;
nodes = (
"432 72 LINE",
"438 48 LINE",
"349 24 LINE",
"354 0 LINE",
"253 24 LINE",
"259 0 LINE",
"158 24 LINE",
"146 72 LINE",
"170 72 LINE",
"164 96 LINE",
"62 119 LINE",
"50 167 LINE",
"74 166 LINE",
"50 261 LINE",
"74 262 LINE",
"50 357 LINE",
"74 357 LINE",
"62 405 LINE",
"152 429 LINE",
"146 452 LINE",
"170 452 LINE",
"158 500 LINE",
"259 476 LINE",
"253 500 LINE",
"354 476 LINE",
"349 500 LINE",
"450 476 LINE",
"456 452 LINE",
"432 452 LINE",
"450 381 LINE",
"349 405 LINE",
"343 429 LINE",
"253 405 LINE",
"247 429 LINE",
"158 405 LINE",
"170 357 LINE",
"146 357 LINE",
"170 262 LINE",
"146 261 LINE",
"170 166 LINE",
"146 167 LINE",
"158 119 LINE",
"259 96 LINE",
"253 119 LINE",
"354 95 LINE",
"349 119 LINE",
"438 143 LINE",
"456 72 LINE"
);
}
);
width = 501;
}
);
note = c;
unicode = 0063;
},
{
glyphname = ccedilla;
layers = (
{
layerId = "F615FF3B-AC20-4656-A54C-A768163DB377";
paths = (
{
closed = 1;
nodes = (
"142 238 LINE",
"52 214 LINE",
"40 261 LINE",
"64 261 LINE",
"40 357 LINE",
"64 357 LINE",
"52 405 LINE",
"142 429 LINE",
"136 452 LINE",
"160 452 LINE",
"148 500 LINE",
"249 476 LINE",
"243 500 LINE",
"344 476 LINE",
"350 452 LINE",
"327 452 LINE",
"332 428 LINE",
"243 405 LINE",
"237 429 LINE",
"148 405 LINE",
"160 357 LINE",
"136 357 LINE",
"148 309 LINE",
"249 285 LINE",
"243 309 LINE",
"344 285 LINE",
"350 261 LINE",
"327 261 LINE",
"332 238 LINE",
"243 214 LINE",
"344 190 LINE",
"350 166 LINE",
"327 166 LINE",
"350 71 LINE",
"327 71 LINE",
"333 48 LINE",
"243 24 LINE",
"249 0 LINE",
"148 24 LINE",
"136 71 LINE",
"160 71 LINE",
"148 118 LINE",
"249 95 LINE",
"231 166 LINE",
"255 166 LINE",
"249 190 LINE",
"148 214 LINE"
);
}
);
width = 390;
}
);
note = ccedilla;
unicode = 00E7;
},
{
glyphname = d;
lastChange = "2022-03-14 21:06:21 +0000";
layers = (
{
layerId = "F615FF3B-AC20-4656-A54C-A768163DB377";
paths = (
{
closed = 1;
nodes = (
"360 453 LINE",
"336 454 LINE",
"360 359 LINE",
"336 359 LINE",
"360 263 LINE",
"336 263 LINE",
"354 192 LINE",
"253 214 LINE",
"241 263 LINE",
"264 263 LINE",
"258 285 LINE",
"157 311 LINE",
"163 287 LINE",
"62 311 LINE",
"74 263 LINE",
"50 263 LINE",
"74 168 LINE",
"50 167 LINE",
"74 72 LINE",
"50 72 LINE",
"62 24 LINE",
"163 0 LINE",
"157 24 LINE",
"258 0 LINE",
"246 48 LINE",
"270 48 LINE",
"264 71 LINE",
"354 95 LINE",
"366 48 LINE",
"342 48 LINE",
"348 24 LINE",
"449 0 LINE",
"431 72 LINE",
"455 72 LINE",
"431 167 LINE",
"455 168 LINE",
"431 263 LINE",
"455 263 LINE",
"431 359 LINE",
"455 359 LINE",
"431 454 LINE",
"455 453 LINE",
"449 476 LINE",
"348 500 LINE"
);
},
{
closed = 1;
nodes = (
"258 192 LINE",
"264 168 LINE",
"241 167 LINE",
"258 96 LINE",
"157 119 LINE",
"145 167 LINE",
"169 168 LINE",
"157 215 LINE"
);
}
);
width = 515;
}
);
note = d;
unicode = 0064;
},
{
glyphname = e;
lastChange = "2022-03-14 21:06:40 +0000";
layers = (
{
layerId = "F615FF3B-AC20-4656-A54C-A768163DB377";
paths = (
{
closed = 1;
nodes = (
"456 357 LINE",
"432 453 LINE",
"456 453 LINE",
"449 476 LINE",
"348 500 LINE",
"355 476 LINE",
"252 500 LINE",
"259 476 LINE",
"158 500 LINE",
"170 453 LINE",
"146 453 LINE",
"163 380 LINE",
"62 404 LINE",
"74 357 LINE",
"50 357 LINE",
"74 263 LINE",
"50 263 LINE",
"74 167 LINE",
"50 167 LINE",
"62 118 LINE",
"163 94 LINE",
"170 71 LINE",
"146 71 LINE",
"158 24 LINE",
"259 0 LINE",
"254 24 LINE",
"355 0 LINE",
"348 24 LINE",
"437 47 LINE",
"432 71 LINE",
"456 71 LINE",
"437 143 LINE",
"348 118 LINE",
"355 94 LINE",
"254 118 LINE",
"259 94 LINE",
"158 120 LINE",
"146 167 LINE",
"170 167 LINE",
"146 261 LINE",
"170 261 LINE",
"158 310 LINE",
"259 286 LINE",
"265 261 LINE",
"240 261 LINE",
"254 214 LINE",
"343 237 LINE",
"348 214 LINE",
"437 237 LINE",
"432 261 LINE",
"456 261 LINE",
"432 357 LINE"
);
},
{
closed = 1;
nodes = (
"254 310 LINE",
"242 357 LINE",
"265 357 LINE",
"254 404 LINE",
"343 429 LINE",
"361 357 LINE",
"338 357 LINE",
"355 286 LINE"
);
}
);
width = 501;
}
);
note = e;
unicode = 0065;
},
{
glyphname = eacute;
layers = (
{
layerId = "F615FF3B-AC20-4656-A54C-A768163DB377";
paths = (
{
closed = 1;
nodes = (
"141 333 LINE",
"135 357 LINE",
"159 357 LINE",
"147 405 LINE",
"236 429 LINE",
"230 452 LINE",
"254 452 LINE",
"248 476 LINE",
"147 500 LINE",
"159 452 LINE",
"135 452 LINE",
"141 429 LINE",
"51 405 LINE",
"63 357 LINE",
"40 357 LINE",
"51 309 LINE"
);
},
{
closed = 1;
nodes = (
"242 119 LINE",
"248 95 LINE",
"147 119 LINE",
"236 143 LINE",
"230 166 LINE",
"254 166 LINE",
"248 190 LINE",
"147 214 LINE",
"236 238 LINE",
"242 214 LINE",
"343 190 LINE",
"325 262 LINE",
"349 262 LINE",
"343 285 LINE",
"242 309 LINE",
"248 285 LINE",
"147 309 LINE",
"153 285 LINE",
"52 309 LINE",
"63 262 LINE",
"40 262 LINE",
"63 166 LINE",
"40 166 LINE",
"63 71 LINE",
"40 71 LINE",
"52 24 LINE",
"141 48 LINE",
"147 24 LINE",
"248 0 LINE",
"242 24 LINE",
"331 48 LINE",
"325 71 LINE",
"349 71 LINE",
"331 143 LINE"
);
}
);
width = 389;
}
);
note = eacute;
unicode = 00E9;
},
{
glyphname = ecircumflex;
layers = (
{
layerId = "F615FF3B-AC20-4656-A54C-A768163DB377";
paths = (
{
closed = 1;
nodes = (
"141 333 LINE",
"135 357 LINE",
"159 357 LINE",
"147 405 LINE",
"248 381 LINE",
"254 357 LINE",
"230 357 LINE",
"242 309 LINE",
"331 333 LINE",
"325 357 LINE",
"349 357 LINE",
"331 429 LINE",
"242 405 LINE",
"230 452 LINE",
"254 452 LINE",
"248 476 LINE",
"147 500 LINE",
"159 452 LINE",
"135 452 LINE",
"141 429 LINE",
"52 405 LINE",
"63 357 LINE",
"40 357 LINE",
"52 309 LINE"
);
},
{
closed = 1;
nodes = (
"242 119 LINE",
"248 95 LINE",
"147 119 LINE",
"236 143 LINE",
"230 166 LINE",
"254 166 LINE",
"248 190 LINE",
"147 214 LINE",
"236 238 LINE",
"242 214 LINE",
"343 190 LINE",
"325 262 LINE",
"349 262 LINE",
"343 286 LINE",
"242 309 LINE",
"248 286 LINE",
"147 309 LINE",
"153 286 LINE",
"52 309 LINE",
"63 262 LINE",
"40 262 LINE",
"63 166 LINE",
"40 166 LINE",
"63 71 LINE",
"40 71 LINE",
"52 24 LINE",
"141 48 LINE",
"147 24 LINE",
"248 0 LINE",
"242 24 LINE",
"331 48 LINE",
"325 71 LINE",
"349 71 LINE",
"331 143 LINE"
);
}
);
width = 389;
}
);
note = ecircumflex;
unicode = 00EA;
},
{
glyphname = edieresis;
layers = (
{
layerId = "F615FF3B-AC20-4656-A54C-A768163DB377";
paths = (
{
closed = 1;
nodes = (
"40 453 LINE",
"63 453 LINE",
"52 500 LINE",
"153 476 LINE",
"159 453 LINE",
"135 453 LINE",
"153 381 LINE",
"52 405 LINE"
);
},
{
closed = 1;
nodes = (
"343 381 LINE",
"325 452 LINE",
"349 452 LINE",
"343 476 LINE",
"242 500 LINE",
"254 452 LINE",
"230 452 LINE",
"242 405 LINE"
);
},
{
closed = 1;
nodes = (
"242 119 LINE",
"248 95 LINE",
"147 119 LINE",
"236 143 LINE",
"230 166 LINE",
"254 166 LINE",
"248 190 LINE",
"147 214 LINE",
"236 238 LINE",
"242 214 LINE",
"343 190 LINE",
"325 262 LINE",
"349 262 LINE",
"343 286 LINE",
"242 309 LINE",
"248 286 LINE",
"147 309 LINE",
"153 286 LINE",
"52 309 LINE",
"63 262 LINE",
"40 262 LINE",
"63 166 LINE",
"40 166 LINE",
"63 71 LINE",
"40 71 LINE",
"52 24 LINE",
"141 48 LINE",
"147 24 LINE",
"248 0 LINE",
"242 24 LINE",
"331 48 LINE",
"325 71 LINE",
"349 71 LINE",
"331 143 LINE"
);
}
);
width = 389;
}
);
note = edieresis;
unicode = 00EB;
},
{
glyphname = egrave;
layers = (
{
layerId = "F615FF3B-AC20-4656-A54C-A768163DB377";
paths = (
{
closed = 1;
nodes = (
"242 119 LINE",
"248 95 LINE",
"147 119 LINE",
"236 143 LINE",
"230 166 LINE",
"254 166 LINE",
"248 190 LINE",
"147 214 LINE",
"236 238 LINE",
"242 214 LINE",
"343 190 LINE",
"325 262 LINE",
"349 262 LINE",
"343 286 LINE",
"242 309 LINE",
"230 357 LINE",
"254 357 LINE",
"248 381 LINE",
"147 405 LINE",
"135 452 LINE",
"159 453 LINE",
"153 476 LINE",
"51 500 LINE",
"63 453 LINE",
"40 452 LINE",
"51 405 LINE",
"153 381 LINE",
"159 357 LINE",
"135 357 LINE",
"147 309 LINE",
"153 286 LINE",
"52 309 LINE",
"63 262 LINE",
"40 262 LINE",
"63 166 LINE",
"40 166 LINE",
"63 71 LINE",
"40 71 LINE",
"52 24 LINE",
"141 48 LINE",
"147 24 LINE",
"248 0 LINE",
"242 24 LINE",
"331 48 LINE",
"325 71 LINE",
"349 71 LINE",
"331 143 LINE"
);
}
);
width = 389;
}
);
note = egrave;
unicode = 00E8;
},
{
glyphname = f;
lastChange = "2022-03-14 21:14:26 +0000";
layers = (
{
layerId = "F615FF3B-AC20-4656-A54C-A768163DB377";
paths = (
{
closed = 1;
nodes = (
"72 24 LINE",
"60 71 LINE",
"84 71 LINE",
"60 167 LINE",
"84 167 LINE",
"60 261 LINE",
"84 261 LINE",
"60 357 LINE",
"84 357 LINE",
"60 452 LINE",
"84 452 LINE",
"72 500 LINE",
"173 476 LINE",
"167 500 LINE",
"269 476 LINE",
"263 500 LINE",
"364 476 LINE",
"370 452 LINE",
"346 452 LINE",
"364 381 LINE",
"263 404 LINE",
"257 428 LINE",
"167 404 LINE",
"179 357 LINE",
"155 357 LINE",
"167 309 LINE",
"257 333 LINE",
"275 261 LINE",
"251 261 LINE",
"257 239 LINE",
"167 215 LINE",
"179 167 LINE",
"155 167 LINE",
"179 71 LINE",
"155 71 LINE",
"173 0 LINE"
);
}
);
width = 410;
}
);
note = f;
unicode = 0066;
},
{
glyphname = g;
lastChange = "2022-03-28 15:23:21 +0000";
layers = (
{
layerId = "F615FF3B-AC20-4656-A54C-A768163DB377";
paths = (
{
closed = 1;
nodes = (
"338 405 LINE",
"326 452 LINE",
"350 452 LINE",
"344 476 LINE",
"242 500 LINE",
"248 476 LINE",
"147 500 LINE",
"153 476 LINE",
"52 500 LINE",
"64 452 LINE",
"40 452 LINE",
"64 357 LINE",
"40 357 LINE",
"64 261 LINE",
"40 262 LINE",
"52 215 LINE",
"141 239 LINE",
"147 215 LINE",
"236 239 LINE",
"230 262 LINE",
"254 261 LINE",
"242 309 LINE",
"332 333 LINE",
"350 261 LINE",
"326 262 LINE",
"350 167 LINE",
"326 167 LINE",
"344 95 LINE",
"242 119 LINE",
"248 95 LINE",
"147 119 LINE",
"153 96 LINE",
"52 119 LINE",
"64 72 LINE",
"40 72 LINE",
"52 24 LINE",
"153 0 LINE",
"147 24 LINE",
"248 0 LINE",
"242 24 LINE",
"344 0 LINE",
"338 24 LINE",
"427 48 LINE",
"421 72 LINE",
"445 72 LINE",
"421 167 LINE",
"445 167 LINE",
"421 262 LINE",
"445 261 LINE",
"421 357 LINE",
"445 357 LINE",
"439 381 LINE"
);
},
{
closed = 1;
nodes = (
"236 333 LINE",
"147 309 LINE",
"135 357 LINE",
"159 357 LINE",
"147 405 LINE",
"236 428 LINE",
"254 357 LINE",
"231 357 LINE"
);
}
);
width = 485;
}
);
note = g;
unicode = 0067;
},
{
glyphname = h;
lastChange = "2022-03-14 21:07:28 +0000";
layers = (
{
layerId = "F615FF3B-AC20-4656-A54C-A768163DB377";
paths = (
{
closed = 1;
nodes = (
"160 71 LINE",
"178 0 LINE",
"77 24 LINE",
"65 70 LINE",
"89 70 LINE",
"65 168 LINE",
"89 168 LINE",
"65 263 LINE",
"89 262 LINE",
"65 357 LINE",
"89 357 LINE",
"65 452 LINE",
"89 452 LINE",
"77 500 LINE",
"178 476 LINE",
"184 452 LINE",
"160 452 LINE",
"182 360 LINE",
"158 360 LINE",
"184 262 LINE",
"160 263 LINE",
"172 217 LINE",
"261 241 LINE",
"255 265 LINE",
"279 265 LINE",
"267 312 LINE",
"368 289 LINE",
"362 312 LINE",
"463 289 LINE",
"469 265 LINE",
"445 265 LINE",
"469 170 LINE",
"445 170 LINE",
"469 75 LINE",
"445 75 LINE",
"464 0 LINE",
"362 27 LINE",
"350 75 LINE",
"374 75 LINE",
"350 170 LINE",
"374 170 LINE",
"356 241 LINE",
"267 217 LINE",
"279 170 LINE",
"255 170 LINE",
"261 146 LINE",
"172 122 LINE",
"184 70 LINE"
);
}
);
width = 529;
}
);
note = h;
unicode = 0068;
},
{
glyphname = i;
lastChange = "2022-03-14 21:07:59 +0000";
layers = (
{
layerId = "F615FF3B-AC20-4656-A54C-A768163DB377";
paths = (
{
closed = 1;
nodes = (
"179 477 LINE",
"185 453 LINE",
"161 453 LINE",
"179 382 LINE",
"79 405 LINE",
"67 453 LINE",
"90 453 LINE",
"79 500 LINE"
);
},
{
closed = 1;
nodes = (
"78 311 LINE",
"178 288 LINE",
"184 264 LINE",
"160 264 LINE",
"184 169 LINE",
"160 168 LINE",
"184 74 LINE",
"160 74 LINE",
"179 0 LINE",
"78 27 LINE",
"66 74 LINE",
"89 74 LINE",
"66 168 LINE",
"89 169 LINE",
"65 264 LINE",
"88 264 LINE"
);
}
);
width = 245;
}
);
note = i;
unicode = 0069;
},
{
glyphname = iacute;
layers = (
{
layerId = "F615FF3B-AC20-4656-A54C-A768163DB377";
paths = (
{
closed = 1;
nodes = (
"141 334 LINE",
"135 357 LINE",
"158 357 LINE",
"147 405 LINE",
"236 429 LINE",
"230 452 LINE",
"253 452 LINE",
"248 476 LINE",
"147 500 LINE",
"158 452 LINE",
"135 452 LINE",
"141 429 LINE",
"51 405 LINE",
"63 357 LINE",
"40 357 LINE",
"51 310 LINE"
);
},
{
closed = 1;
nodes = (
"158 167 LINE",
"133 263 LINE",
"157 263 LINE",
"146 310 LINE",
"247 286 LINE",
"253 262 LINE",
"230 262 LINE",
"253 167 LINE",
"230 167 LINE",
"254 72 LINE",
"230 71 LINE",
"248 0 LINE",
"147 24 LINE",
"135 73 LINE",
"159 73 LINE",
"134 167 LINE"
);
}
);
width = 294;
}
);
note = iacute;
unicode = 00ED;
},
{
glyphname = icircumflex;
layers = (
{
layerId = "F615FF3B-AC20-4656-A54C-A768163DB377";
paths = (
{
closed = 1;
nodes = (
"141 333 LINE",
"135 357 LINE",
"158 357 LINE",
"147 405 LINE",
"248 381 LINE",
"254 357 LINE",
"230 357 LINE",
"242 310 LINE",
"331 334 LINE",
"325 357 LINE",
"349 357 LINE",
"331 429 LINE",
"242 405 LINE",
"230 452 LINE",
"254 452 LINE",
"248 476 LINE",
"147 500 LINE",
"158 452 LINE",
"135 452 LINE",
"141 429 LINE",
"51 405 LINE",
"63 357 LINE",
"40 357 LINE",
"51 310 LINE"
);
},
{
closed = 1;
nodes = (
"158 167 LINE",
"133 263 LINE",
"157 263 LINE",
"146 310 LINE",
"247 286 LINE",
"253 263 LINE",
"230 263 LINE",
"253 167 LINE",
"230 167 LINE",
"254 72 LINE",
"230 71 LINE",
"248 0 LINE",
"147 24 LINE",
"135 73 LINE",
"159 73 LINE",
"134 167 LINE"
);
}
);
width = 389;
}
);
note = icircumflex;
unicode = 00EE;
},
{
glyphname = idieresis;
layers = (
{
layerId = "F615FF3B-AC20-4656-A54C-A768163DB377";
paths = (
{
closed = 1;
nodes = (
"153 381 LINE",
"135 452 LINE",
"159 452 LINE",
"153 476 LINE",
"52 500 LINE",
"64 452 LINE",
"40 452 LINE",
"52 405 LINE"
);
},
{
closed = 1;
nodes = (
"230 452 LINE",
"254 452 LINE",
"242 500 LINE",
"343 476 LINE",
"349 452 LINE",
"325 452 LINE",
"343 381 LINE",
"242 405 LINE"
);
},
{
closed = 1;
nodes = (
"158 167 LINE",
"133 263 LINE",
"157 263 LINE",
"146 310 LINE",
"247 287 LINE",
"253 263 LINE",
"230 263 LINE",
"253 167 LINE",
"230 167 LINE",
"254 72 LINE",
"230 71 LINE",
"248 0 LINE",
"147 24 LINE",
"135 73 LINE",
"159 73 LINE",
"134 167 LINE"
);
}
);
width = 389;
}
);
note = idieresis;
unicode = 00EF;
},
{
glyphname = igrave;
layers = (
{
layerId = "F615FF3B-AC20-4656-A54C-A768163DB377";
paths = (
{
closed = 1;
nodes = (
"41 453 LINE",
"64 453 LINE",
"53 500 LINE",
"153 476 LINE",
"159 453 LINE",
"136 453 LINE",
"148 405 LINE",
"249 381 LINE",
"254 358 LINE",
"231 358 LINE",
"248 286 LINE",
"148 310 LINE",
"136 358 LINE",
"159 358 LINE",
"153 381 LINE",
"53 405 LINE"
);
},
{
closed = 1;
nodes = (
"64 167 LINE",
"40 263 LINE",
"63 263 LINE",
"52 310 LINE",
"153 286 LINE",
"159 262 LINE",
"136 262 LINE",
"159 167 LINE",
"136 167 LINE",
"160 72 LINE",
"136 71 LINE",
"154 0 LINE",
"53 24 LINE",
"41 73 LINE",
"65 73 LINE",
"41 167 LINE"
);
}
);
width = 284;
}
);
note = igrave;
unicode = 00EC;
},
{
glyphname = j;
lastChange = "2022-03-14 21:08:13 +0000";
layers = (
{
layerId = "F615FF3B-AC20-4656-A54C-A768163DB377";
paths = (
{
closed = 1;
nodes = (
"268 476 LINE",
"274 452 LINE",
"250 452 LINE",
"268 381 LINE",
"167 404 LINE",
"155 452 LINE",
"179 452 LINE",
"167 500 LINE"
);
},
{
closed = 1;
nodes = (
"273 167 LINE",
"249 262 LINE",
"273 262 LINE",
"267 286 LINE",
"166 310 LINE",
"177 263 LINE",
"153 262 LINE",
"178 167 LINE",
"154 167 LINE",
"173 96 LINE",
"72 119 LINE",
"84 72 LINE",
"60 71 LINE",
"72 24 LINE",
"173 0 LINE",
"167 24 LINE",
"268 0 LINE",
"250 71 LINE",
"274 72 LINE",
"249 167 LINE"
);
}
);
width = 334;
}
);
note = j;
unicode = 006A;
},
{
glyphname = k;
lastChange = "2022-03-14 21:12:51 +0000";
layers = (
{
layerId = "F615FF3B-AC20-4656-A54C-A768163DB377";
paths = (
{
closed = 1;
nodes = (
"262 238 LINE",
"268 214 LINE",
"369 190 LINE",
"375 166 LINE",
"351 167 LINE",
"375 71 LINE",
"351 71 LINE",
"363 24 LINE",
"465 0 LINE",
"447 71 LINE",
"471 71 LINE",
"447 167 LINE",
"471 166 LINE",
"453 238 LINE",
"363 214 LINE",
"351 261 LINE",
"375 262 LINE",
"363 309 LINE",
"453 333 LINE",
"447 357 LINE",
"471 357 LINE",
"453 429 LINE",
"363 405 LINE",
"375 357 LINE",
"351 357 LINE",
"357 333 LINE",
"268 309 LINE",
"274 286 LINE",
"172 309 LINE",
"160 357 LINE",
"184 357 LINE",
"160 452 LINE",
"184 452 LINE",
"178 476 LINE",
"77 500 LINE",
"89 452 LINE",
"65 452 LINE",
"89 357 LINE",
"65 357 LINE",
"89 262 LINE",
"65 261 LINE",
"89 166 LINE",
"65 167 LINE",
"89 71 LINE",
"65 71 LINE",
"77 24 LINE",
"178 0 LINE",
"160 71 LINE",
"184 71 LINE",
"160 167 LINE",
"184 166 LINE",
"172 214 LINE"
);
}
);
width = 511;
}
);
note = k;
unicode = 006B;
},
{
glyphname = l;
lastChange = "2022-03-14 21:09:55 +0000";
layers = (
{
layerId = "F615FF3B-AC20-4656-A54C-A768163DB377";
paths = (
{
closed = 1;
nodes = (
"178 476 LINE",
"184 453 LINE",
"161 452 LINE",
"184 357 LINE",
"161 357 LINE",
"184 262 LINE",
"161 262 LINE",
"184 167 LINE",
"161 167 LINE",
"172 119 LINE",
"262 143 LINE",
"280 71 LINE",
"256 71 LINE",
"262 48 LINE",
"172 24 LINE",
"178 0 LINE",
"77 24 LINE",
"65 71 LINE",
"89 71 LINE",
"65 167 LINE",
"89 167 LINE",
"65 262 LINE",
"89 262 LINE",
"65 357 LINE",
"89 357 LINE",
"65 452 LINE",
"89 453 LINE",
"77 500 LINE"
);
}
);
width = 340;
}
);
note = l;
unicode = 006C;
},
{
glyphname = m;
lastChange = "2022-03-14 21:10:23 +0000";
layers = (
{
layerId = "F615FF3B-AC20-4656-A54C-A768163DB377";
paths = (
{
closed = 1;
nodes = (
"440 262 LINE",
"464 169 LINE",
"440 169 LINE",
"464 72 LINE",
"440 72 LINE",
"457 0 LINE",
"357 25 LINE",
"345 72 LINE",
"368 72 LINE",
"345 169 LINE",
"368 169 LINE",
"345 262 LINE",
"368 262 LINE",
"345 358 LINE",
"368 358 LINE",
"350 428 LINE",
"261 404 LINE",
"273 358 LINE",
"249 358 LINE",
"256 334 LINE",
"167 309 LINE",
"179 262 LINE",
"156 262 LINE",
"179 169 LINE",
"156 169 LINE",
"179 72 LINE",
"156 72 LINE",
"172 0 LINE",
"72 25 LINE",
"60 72 LINE",
"83 72 LINE",
"60 169 LINE",
"83 169 LINE",
"60 262 LINE",
"83 262 LINE",
"60 358 LINE",
"83 358 LINE",
"60 453 LINE",
"83 453 LINE",
"72 500 LINE",
"172 477 LINE",
"179 453 LINE",
"156 453 LINE",
"167 404 LINE",
"256 428 LINE",
"249 453 LINE",
"273 453 LINE",
"261 500 LINE",
"363 477 LINE",
"357 500 LINE",
"457 477 LINE",
"464 453 LINE",
"440 453 LINE",
"454 403 LINE",
"543 426 LINE",
"536 450 LINE",
"559 450 LINE",
"548 500 LINE",
"648 473 LINE",
"643 500 LINE",
"744 473 LINE",
"750 450 LINE",
"727 450 LINE",
"750 356 LINE",
"727 356 LINE",
"750 260 LINE",
"727 260 LINE",
"750 166 LINE",
"727 166 LINE",
"750 72 LINE",
"727 72 LINE",
"744 0 LINE",
"643 23 LINE",
"631 72 LINE",
"655 72 LINE",
"631 166 LINE",
"655 166 LINE",
"631 260 LINE",
"655 260 LINE",
"631 356 LINE",
"655 356 LINE",
"636 426 LINE",
"548 403 LINE",
"559 356 LINE",
"536 356 LINE",
"543 332 LINE",
"454 307 LINE",
"464 262 LINE"
);
}
);
width = 810;
}
);
note = m;
unicode = 006D;
},
{
glyphname = n;
lastChange = "2022-03-14 21:00:46 +0000";
layers = (
{
layerId = "F615FF3B-AC20-4656-A54C-A768163DB377";
paths = (
{
closed = 1;
nodes = (
"464 168 LINE",
"441 262 LINE",
"464 262 LINE",
"441 357 LINE",
"464 357 LINE",
"441 453 LINE",
"464 453 LINE",
"459 477 LINE",
"359 500 LINE",
"364 477 LINE",
"263 500 LINE",
"275 453 LINE",
"251 453 LINE",
"256 430 LINE",
"167 404 LINE",
"156 453 LINE",
"179 453 LINE",
"174 477 LINE",
"73 500 LINE",
"85 453 LINE",
"60 453 LINE",
"85 357 LINE",
"60 357 LINE",
"85 262 LINE",
"60 262 LINE",
"85 168 LINE",
"60 168 LINE",
"85 70 LINE",
"60 70 LINE",
"73 23 LINE",
"174 0 LINE",
"156 70 LINE",
"181 70 LINE",
"156 168 LINE",
"179 168 LINE",
"156 262 LINE",
"179 262 LINE",
"167 310 LINE",
"256 334 LINE",
"251 357 LINE",
"275 357 LINE",
"263 404 LINE",
"352 430 LINE",
"370 357 LINE",
"347 357 LINE",
"370 262 LINE",
"347 262 LINE",
"370 168 LINE",
"347 168 LINE",
"370 70 LINE",
"347 70 LINE",
"359 23 LINE",
"459 0 LINE",
"441 70 LINE",
"466 70 LINE",
"441 168 LINE"
);
}
);
width = 526;
}
);
note = n;
unicode = 006E;
},
{
glyphname = ntilde;
layers = (
{
layerId = "F615FF3B-AC20-4656-A54C-A768163DB377";
paths = (
{
closed = 1;
nodes = (
"153 477 LINE",
"159 453 LINE",
"135 453 LINE",
"147 405 LINE",
"237 429 LINE",
"231 453 LINE",
"255 453 LINE",
"243 500 LINE",
"344 477 LINE",
"350 453 LINE",
"326 453 LINE",
"344 381 LINE",
"243 405 LINE",
"255 357 LINE",
"231 357 LINE",
"237 334 LINE",
"147 310 LINE",
"135 357 LINE",
"159 357 LINE",
"153 381 LINE",
"52 405 LINE",
"40 453 LINE",
"64 453 LINE",
"52 500 LINE"
);
},
{
closed = 1;
nodes = (
"153 0 LINE",
"135 71 LINE",
"159 71 LINE",
"135 167 LINE",
"159 167 LINE",
"147 214 LINE",
"237 238 LINE",
"255 167 LINE",
"231 167 LINE",
"255 71 LINE",
"231 71 LINE",
"243 24 LINE",
"344 0 LINE",
"326 71 LINE",
"350 71 LINE",
"326 167 LINE",
"350 167 LINE",
"326 262 LINE",
"350 262 LINE",
"344 286 LINE",
"243 310 LINE",
"249 286 LINE",
"147 310 LINE",
"153 286 LINE",
"52 309 LINE",
"64 262 LINE",
"40 262 LINE",
"64 167 LINE",
"40 167 LINE",
"64 71 LINE",
"40 71 LINE",
"52 24 LINE"
);
}
);
width = 390;
}
);
note = ntilde;
unicode = 00F1;
},
{
glyphname = o;
lastChange = "2022-03-14 21:02:08 +0000";
layers = (
{
layerId = "F615FF3B-AC20-4656-A54C-A768163DB377";
paths = (
{
closed = 1;
nodes = (
"169 452 LINE",
"157 500 LINE",
"259 476 LINE",
"253 500 LINE",
"354 476 LINE",
"348 500 LINE",
"449 476 LINE",
"455 452 LINE",
"432 452 LINE",
"455 357 LINE",
"432 357 LINE",
"455 262 LINE",
"432 261 LINE",
"455 166 LINE",
"432 167 LINE",
"438 143 LINE",
"348 119 LINE",
"360 71 LINE",
"336 71 LINE",
"342 48 LINE",
"253 24 LINE",
"259 0 LINE",
"157 24 LINE",
"151 48 LINE",
"62 24 LINE",
"50 71 LINE",
"74 71 LINE",
"50 167 LINE",
"74 166 LINE",
"50 261 LINE",
"74 262 LINE",
"50 357 LINE",
"74 357 LINE",
"62 405 LINE",
"151 429 LINE",
"145 452 LINE"
);
},
{
closed = 1;
nodes = (
"169 262 LINE",
"145 261 LINE",
"169 166 LINE",
"145 167 LINE",
"157 119 LINE",
"259 95 LINE",
"253 119 LINE",
"342 143 LINE",
"336 167 LINE",
"360 166 LINE",
"336 261 LINE",
"360 262 LINE",
"336 357 LINE",
"360 357 LINE",
"342 429 LINE",
"253 405 LINE",
"259 381 LINE",
"157 405 LINE",
"169 357 LINE",
"145 357 LINE"
);
}
);
width = 505;
}
);
note = o;
unicode = 006F;
},
{
glyphname = oacute;
layers = (
{
layerId = "F615FF3B-AC20-4656-A54C-A768163DB377";
paths = (
{
closed = 1;
nodes = (
"237 334 LINE",
"231 357 LINE",
"254 357 LINE",
"243 405 LINE",
"332 429 LINE",
"326 452 LINE",
"349 452 LINE",
"343 476 LINE",
"243 500 LINE",
"254 452 LINE",
"231 452 LINE",
"237 429 LINE",
"147 405 LINE",
"159 357 LINE",
"136 357 LINE",
"147 310 LINE"
);
},
{
closed = 1;
nodes = (
"349 71 LINE",
"326 167 LINE",
"349 167 LINE",
"326 262 LINE",
"349 262 LINE",
"343 286 LINE",
"242 310 LINE",
"248 286 LINE",
"147 310 LINE",
"153 286 LINE",
"52 309 LINE",
"64 262 LINE",
"40 262 LINE",
"64 167 LINE",
"40 167 LINE",
"64 71 LINE",
"40 71 LINE",
"52 24 LINE",
"141 48 LINE",
"147 24 LINE",
"248 0 LINE",
"242 24 LINE",
"331 48 LINE",
"326 71 LINE"
);
},
{
closed = 1;
nodes = (
"135 166 LINE",
"159 167 LINE",
"147 214 LINE",
"237 238 LINE",
"254 167 LINE",
"231 166 LINE",
"248 95 LINE",
"147 119 LINE"
);
}
);
width = 389;
}
);
note = oacute;
unicode = 00F3;
},
{
glyphname = ocircumflex;
lastChange = "2022-04-19 20:50:30 +0000";
layers = (
{
layerId = "F615FF3B-AC20-4656-A54C-A768163DB377";
paths = (
{
closed = 1;
nodes = (
"141 334 LINE",
"135 357 LINE",
"159 357 LINE",
"147 405 LINE",
"248 381 LINE",
"254 357 LINE",
"230 357 LINE",
"242 310 LINE",
"331 334 LINE",
"325 357 LINE",
"349 357 LINE",
"331 429 LINE",
"242 405 LINE",
"230 452 LINE",
"254 452 LINE",
"248 476 LINE",
"147 500 LINE",
"159 452 LINE",
"135 452 LINE",
"141 429 LINE",
"52 405 LINE",
"64 357 LINE",
"40 357 LINE",
"52 310 LINE"
);
},
{
closed = 1;
nodes = (
"350 71 LINE",
"326 167 LINE",
"350 167 LINE",
"326 262 LINE",
"350 262 LINE",
"344 286 LINE",
"243 310 LINE",
"248 286 LINE",
"147 310 LINE",
"153 286 LINE",
"52 310 LINE",
"64 262 LINE",
"40 262 LINE",
"64 167 LINE",
"40 167 LINE",
"64 71 LINE",
"40 71 LINE",
"52 24 LINE",
"141 48 LINE",
"148 24 LINE",
"249 0 LINE",
"243 24 LINE",
"332 48 LINE",
"326 71 LINE"
);
},
{
closed = 1;
nodes = (
"136 167 LINE",
"159 167 LINE",
"148 215 LINE",
"237 239 LINE",
"254 167 LINE",
"231 167 LINE",
"249 95 LINE",
"148 119 LINE"
);
}
);
width = 389;
}
);
note = ocircumflex;
unicode = 00F4;
},
{
glyphname = odieresis;
layers = (
{
layerId = "F615FF3B-AC20-4656-A54C-A768163DB377";
paths = (
{
closed = 1;
nodes = (
"40 453 LINE",
"64 453 LINE",
"52 500 LINE",
"153 476 LINE",
"159 453 LINE",
"135 453 LINE",
"153 381 LINE",
"52 405 LINE"
);
},
{
closed = 1;
nodes = (
"343 381 LINE",
"325 453 LINE",
"349 453 LINE",
"343 476 LINE",
"242 500 LINE",
"254 453 LINE",
"230 453 LINE",
"242 405 LINE"
);
},
{
closed = 1;
nodes = (
"349 71 LINE",
"325 167 LINE",
"349 167 LINE",
"325 262 LINE",
"349 262 LINE",
"343 286 LINE",
"242 309 LINE",
"248 286 LINE",
"147 309 LINE",
"153 286 LINE",
"52 309 LINE",
"64 262 LINE",
"40 262 LINE",
"64 167 LINE",
"40 167 LINE",
"64 71 LINE",
"40 71 LINE",
"52 24 LINE",
"141 47 LINE",
"147 24 LINE",
"248 0 LINE",
"242 24 LINE",
"331 48 LINE",
"325 71 LINE"
);
},
{
closed = 1;
nodes = (
"135 166 LINE",
"159 167 LINE",
"147 214 LINE",
"236 238 LINE",
"254 167 LINE",
"230 166 LINE",
"248 95 LINE",
"147 119 LINE"
);
}
);
width = 389;
}
);
note = odieresis;
unicode = 00F6;
},
{
glyphname = ograve;
lastChange = "2022-04-19 20:51:41 +0000";
layers = (
{
layerId = "F615FF3B-AC20-4656-A54C-A768163DB377";
paths = (
{
closed = 1;
nodes = (
"349 262 LINE",
"343 286 LINE",
"242 310 LINE",
"248 286 LINE",
"230 357 LINE",
"254 357 LINE",
"248 381 LINE",
"147 405 LINE",
"135 452 LINE",
"159 453 LINE",
"153 476 LINE",
"52 500 LINE",
"64 453 LINE",
"40 452 LINE",
"52 405 LINE",
"153 381 LINE",
"159 357 LINE",
"135 357 LINE",
"147 310 LINE",
"153 286 LINE",
"52 310 LINE",
"64 262 LINE",
"40 262 LINE",
"64 167 LINE",
"40 167 LINE",
"64 71 LINE",
"40 71 LINE",
"52 24 LINE",
"141 48 LINE",
"147 24 LINE",
"248 0 LINE",
"242 24 LINE",
"332 48 LINE",
"325 71 LINE",
"349 71 LINE",
"325 167 LINE",
"349 167 LINE",
"325 262 LINE"
);
},
{
closed = 1;
nodes = (
"147 119 LINE",
"135 166 LINE",
"159 167 LINE",
"147 214 LINE",
"237 239 LINE",
"254 167 LINE",
"230 166 LINE",
"248 95 LINE"
);
}
);
width = 389;
}
);
note = ograve;
unicode = 00F2;
},
{
glyphname = otilde;
layers = (
{
layerId = "F615FF3B-AC20-4656-A54C-A768163DB377";
paths = (
{
closed = 1;
nodes = (
"153 476 LINE",
"159 452 LINE",
"135 452 LINE",
"147 405 LINE",
"236 429 LINE",
"231 452 LINE",
"254 452 LINE",
"242 500 LINE",
"343 476 LINE",
"349 452 LINE",
"326 452 LINE",
"343 381 LINE",
"242 405 LINE",
"254 357 LINE",
"231 357 LINE",
"236 334 LINE",
"147 310 LINE",
"135 357 LINE",
"159 357 LINE",
"153 381 LINE",
"52 405 LINE",
"40 452 LINE",
"64 452 LINE",
"52 500 LINE"
);
},
{
closed = 1;
nodes = (
"349 71 LINE",
"326 167 LINE",
"349 167 LINE",
"326 262 LINE",
"349 262 LINE",
"343 286 LINE",
"242 310 LINE",
"248 286 LINE",
"147 310 LINE",
"153 286 LINE",
"52 310 LINE",
"64 262 LINE",
"40 262 LINE",
"64 167 LINE",
"40 167 LINE",
"64 71 LINE",
"40 71 LINE",
"52 24 LINE",
"141 48 LINE",
"147 24 LINE",
"248 0 LINE",
"242 24 LINE",
"332 48 LINE",
"326 71 LINE"
);
},
{
closed = 1;
nodes = (
"135 166 LINE",
"159 167 LINE",
"147 214 LINE",
"237 238 LINE",
"254 167 LINE",
"231 166 LINE",
"248 95 LINE",
"147 119 LINE"
);
}
);
width = 389;
}
);
note = otilde;
unicode = 00F5;
},
{
glyphname = oe;
lastChange = "2022-03-14 21:03:47 +0000";
layers = (
{
layerId = "F615FF3B-AC20-4656-A54C-A768163DB377";
paths = (
{
closed = 1;
nodes = (
"347 500 LINE",
"352 475 LINE",
"251 500 LINE",
"258 475 LINE",
"156 500 LINE",
"167 451 LINE",
"144 451 LINE",
"151 428 LINE",
"62 404 LINE",
"73 357 LINE",
"50 357 LINE",
"73 262 LINE",
"50 262 LINE",
"73 166 LINE",
"50 168 LINE",
"73 72 LINE",
"50 72 LINE",
"62 25 LINE",
"151 49 LINE",
"156 25 LINE",
"258 0 LINE",
"251 23 LINE",
"340 49 LINE",
"335 72 LINE",
"359 72 LINE",
"347 119 LINE",
"448 96 LINE",
"454 72 LINE",
"429 72 LINE",
"441 23 LINE",
"543 0 LINE",
"537 23 LINE",
"637 0 LINE",
"632 23 LINE",
"721 49 LINE",
"714 72 LINE",
"740 72 LINE",
"721 143 LINE",
"632 119 LINE",
"637 96 LINE",
"537 119 LINE",
"543 96 LINE",
"441 119 LINE",
"436 143 LINE",
"429 168 LINE",
"434 168 LINE",
"454 166 LINE",
"453 168 LINE",
"454 168 LINE",
"429 262 LINE",
"454 262 LINE",
"441 309 LINE",
"543 285 LINE",
"548 262 LINE",
"525 262 LINE",
"537 215 LINE",
"626 238 LINE",
"632 215 LINE",
"721 238 LINE",
"714 262 LINE",
"740 262 LINE",
"714 357 LINE",
"740 357 LINE",
"714 451 LINE",
"740 451 LINE",
"733 477 LINE",
"632 500 LINE",
"637 475 LINE",
"537 500 LINE",
"548 451 LINE",
"525 451 LINE",
"532 428 LINE",
"441 404 LINE",
"429 451 LINE",
"454 451 LINE",
"448 475 LINE"
);
},
{
closed = 1;
nodes = (
"156 119 LINE",
"144 168 LINE",
"167 166 LINE",
"144 262 LINE",
"167 262 LINE",
"144 357 LINE",
"167 357 LINE",
"156 404 LINE",
"258 381 LINE",
"251 404 LINE",
"340 428 LINE",
"347 403 LINE",
"359 357 LINE",
"335 357 LINE",
"359 262 LINE",
"335 262 LINE",
"359 168 LINE",
"335 168 LINE",
"340 143 LINE",
"251 119 LINE",
"258 96 LINE"
);
},
{
closed = 1;
nodes = (
"538 309 LINE",
"527 357 LINE",
"550 357 LINE",
"538 404 LINE",
"627 428 LINE",
"646 357 LINE",
"620 357 LINE",
"639 285 LINE"
);
}
);
width = 790;
}
);
note = oe;
unicode = 0153;
},
{
glyphname = p;
lastChange = "2022-03-14 21:11:08 +0000";
layers = (
{
layerId = "F615FF3B-AC20-4656-A54C-A768163DB377";
paths = (
{
closed = 1;
nodes = (
"160 71 LINE",
"183 72 LINE",
"160 167 LINE",
"183 167 LINE",
"160 262 LINE",
"183 262 LINE",
"171 310 LINE",
"273 287 LINE",
"278 262 LINE",
"255 262 LINE",
"267 216 LINE",
"356 239 LINE",
"361 217 LINE",
"452 239 LINE",
"445 262 LINE",
"470 261 LINE",
"445 357 LINE",
"470 357 LINE",
"445 453 LINE",
"470 453 LINE",
"463 477 LINE",
"363 500 LINE",
"368 477 LINE",
"267 500 LINE",
"278 453 LINE",
"255 453 LINE",
"262 429 LINE",
"171 404 LINE",
"160 453 LINE",
"185 453 LINE",
"178 477 LINE",
"77 500 LINE",
"88 453 LINE",
"65 453 LINE",
"88 357 LINE",
"65 357 LINE",
"88 261 LINE",
"65 262 LINE",
"88 167 LINE",
"65 167 LINE",
"88 72 LINE",
"65 71 LINE",
"77 24 LINE",
"178 0 LINE"
);
},
{
closed = 1;
nodes = (
"359 431 LINE",
"377 361 LINE",
"352 359 LINE",
"359 335 LINE",
"269 312 LINE",
"257 359 LINE",
"280 361 LINE",
"269 407 LINE"
);
}
);
width = 520;
}
);
note = p;
unicode = 0070;
},
{
glyphname = q;
lastChange = "2022-03-14 21:11:28 +0000";
layers = (
{
layerId = "F615FF3B-AC20-4656-A54C-A768163DB377";
paths = (
{
closed = 1;
nodes = (
"449 476 LINE",
"455 452 LINE",
"431 452 LINE",
"455 357 LINE",
"431 357 LINE",
"455 262 LINE",
"431 261 LINE",
"455 166 LINE",
"431 167 LINE",
"455 72 LINE",
"431 72 LINE",
"449 0 LINE",
"348 24 LINE",
"336 72 LINE",
"360 72 LINE",
"336 167 LINE",
"360 166 LINE",
"342 238 LINE",
"253 214 LINE",
"247 238 LINE",
"157 214 LINE",
"163 190 LINE",
"62 214 LINE",
"50 261 LINE",
"74 262 LINE",
"50 357 LINE",
"74 357 LINE",
"50 452 LINE",
"74 452 LINE",
"62 500 LINE",
"163 476 LINE",
"157 500 LINE",
"258 476 LINE",
"264 452 LINE",
"241 452 LINE",
"253 405 LINE",
"354 381 LINE",
"336 452 LINE",
"360 452 LINE",
"348 500 LINE"
);
},
{
closed = 1;
nodes = (
"169 358 LINE",
"145 357 LINE",
"157 309 LINE",
"259 286 LINE",
"241 357 LINE",
"264 358 LINE",
"258 381 LINE",
"157 405 LINE"
);
}
);
width = 515;
}
);
note = q;
unicode = 0071;
},
{
glyphname = r;
lastChange = "2022-04-21 11:51:01 +0000";
layers = (
{
layerId = "F615FF3B-AC20-4656-A54C-A768163DB377";
paths = (
{
closed = 1;
nodes = (
"256 334 LINE",
"250 357 LINE",
"274 357 LINE",
"262 405 LINE",
"351 429 LINE",
"357 405 LINE",
"458 381 LINE",
"441 452 LINE",
"464 452 LINE",
"458 476 LINE",
"357 500 LINE",
"363 476 LINE",
"262 500 LINE",
"274 452 LINE",
"250 452 LINE",
"256 429 LINE",
"167 405 LINE",
"156 452 LINE",
"179 452 LINE",
"173 476 LINE",
"72 500 LINE",
"84 452 LINE",
"60 452 LINE",
"84 357 LINE",
"60 357 LINE",
"84 262 LINE",
"60 263 LINE",
"84 168 LINE",
"60 168 LINE",
"85 70 LINE",
"60 70 LINE",
"73 24 LINE",
"174 0 LINE",
"156 71 LINE",
"180 70 LINE",
"155 167 LINE",
"179 167 LINE",
"156 263 LINE",
"179 262 LINE",
"167 310 LINE"
);
}
);
width = 474;
}
);
note = r;
unicode = 0072;
},
{
glyphname = s;
lastChange = "2022-03-14 21:14:53 +0000";
layers = (
{
layerId = "F615FF3B-AC20-4656-A54C-A768163DB377";
paths = (
{
closed = 1;
nodes = (
"151 428 LINE",
"145 452 LINE",
"169 453 LINE",
"157 500 LINE",
"258 476 LINE",
"252 500 LINE",
"353 476 LINE",
"347 500 LINE",
"448 476 LINE",
"454 453 LINE",
"431 451 LINE",
"448 381 LINE",
"347 404 LINE",
"341 428 LINE",
"252 404 LINE",
"246 428 LINE",
"157 404 LINE",
"169 357 LINE",
"145 357 LINE",
"157 309 LINE",
"258 286 LINE",
"252 309 LINE",
"353 286 LINE",
"347 309 LINE",
"448 286 LINE",
"454 262 LINE",
"430 261 LINE",
"454 166 LINE",
"430 166 LINE",
"454 71 LINE",
"430 71 LINE",
"436 47 LINE",
"347 24 LINE",
"353 0 LINE",
"252 24 LINE",
"258 0 LINE",
"157 24 LINE",
"151 48 LINE",
"62 24 LINE",
"50 71 LINE",
"74 71 LINE",
"62 119 LINE",
"151 143 LINE",
"157 119 LINE",
"258 95 LINE",
"252 119 LINE",
"353 95 LINE",
"335 166 LINE",
"359 166 LINE",
"341 237 LINE",
"252 214 LINE",
"246 238 LINE",
"157 214 LINE",
"151 238 LINE",
"62 214 LINE",
"50 261 LINE",
"74 262 LINE",
"50 357 LINE",
"74 357 LINE",
"62 404 LINE"
);
}
);
width = 504;
}
);
note = s;
unicode = 0073;
},
{
glyphname = t;
lastChange = "2022-03-14 21:14:58 +0000";
layers = (
{
layerId = "F615FF3B-AC20-4656-A54C-A768163DB377";
paths = (
{
closed = 1;
nodes = (
"340 136 LINE",
"253 114 LINE",
"260 91 LINE",
"163 114 LINE",
"152 159 LINE",
"174 159 LINE",
"152 249 LINE",
"174 249 LINE",
"161 296 LINE",
"248 318 LINE",
"253 296 LINE",
"338 318 LINE",
"334 341 LINE",
"356 341 LINE",
"338 408 LINE",
"253 386 LINE",
"248 408 LINE",
"161 386 LINE",
"150 432 LINE",
"174 432 LINE",
"157 500 LINE",
"71 477 LINE",
"83 432 LINE",
"60 432 LINE",
"71 386 LINE",
"168 363 LINE",
"174 341 LINE",
"150 341 LINE",
"157 318 LINE",
"71 296 LINE",
"83 249 LINE",
"60 249 LINE",
"83 159 LINE",
"60 159 LINE",
"83 69 LINE",
"60 69 LINE",
"71 22 LINE",
"168 0 LINE",
"163 22 LINE",
"248 46 LINE",
"253 22 LINE",
"340 46 LINE",
"334 69 LINE",
"356 69 LINE"
);
}
);
width = 396;
}
);
note = t;
unicode = 0074;
},
{
glyphname = u;
lastChange = "2022-03-14 21:12:23 +0000";
layers = (
{
layerId = "F615FF3B-AC20-4656-A54C-A768163DB377";
paths = (
{
closed = 1;
nodes = (
"163 476 LINE",
"169 452 LINE",
"145 452 LINE",
"169 357 LINE",
"145 358 LINE",
"169 263 LINE",
"145 263 LINE",
"169 167 LINE",
"145 167 LINE",
"157 119 LINE",
"258 96 LINE",
"252 120 LINE",
"353 96 LINE",
"335 167 LINE",
"359 167 LINE",
"335 263 LINE",
"359 263 LINE",
"335 358 LINE",
"359 357 LINE",
"335 452 LINE",
"359 452 LINE",
"347 500 LINE",
"449 476 LINE",
"455 452 LINE",
"431 452 LINE",
"455 357 LINE",
"431 358 LINE",
"455 263 LINE",
"431 263 LINE",
"455 167 LINE",
"431 167 LINE",
"455 72 LINE",
"431 71 LINE",
"447 5 LINE",
"347 24 LINE",
"341 48 LINE",
"252 24 LINE",
"258 0 LINE",
"157 24 LINE",
"163 0 LINE",
"62 24 LINE",
"50 71 LINE",
"74 72 LINE",
"50 167 LINE",
"74 167 LINE",
"50 263 LINE",
"74 263 LINE",
"50 358 LINE",
"74 357 LINE",
"50 452 LINE",
"74 452 LINE",
"62 500 LINE"
);
}
);
width = 505;
}
);
note = u;
unicode = 0075;
},
{
glyphname = uacute;
layers = (
{
layerId = "F615FF3B-AC20-4656-A54C-A768163DB377";
paths = (
{
closed = 1;
nodes = (
"236 333 LINE",
"230 357 LINE",
"254 357 LINE",
"242 405 LINE",
"332 429 LINE",
"326 452 LINE",
"349 452 LINE",
"343 476 LINE",
"242 500 LINE",
"254 452 LINE",
"230 452 LINE",
"236 429 LINE",
"147 405 LINE",
"159 357 LINE",
"135 357 LINE",
"147 309 LINE"
);
},
{
closed = 1;
nodes = (
"230 262 LINE",
"254 167 LINE",
"230 167 LINE",
"248 95 LINE",
"147 119 LINE",
"135 167 LINE",
"159 167 LINE",
"135 262 LINE",
"159 262 LINE",
"153 286 LINE",
"52 310 LINE",
"64 262 LINE",
"40 262 LINE",
"64 167 LINE",
"40 167 LINE",
"64 71 LINE",
"40 71 LINE",
"52 24 LINE",
"153 0 LINE",
"147 24 LINE",
"248 0 LINE",
"242 24 LINE",
"343 0 LINE",
"326 71 LINE",
"349 71 LINE",
"325 167 LINE",
"349 167 LINE",
"326 262 LINE",
"349 262 LINE",
"344 286 LINE",
"242 309 LINE",
"254 262 LINE"
);
}
);
width = 389;
}
);
note = uacute;
unicode = 00FA;
},
{
glyphname = ucircumflex;
layers = (
{
layerId = "F615FF3B-AC20-4656-A54C-A768163DB377";
paths = (
{
closed = 1;
nodes = (
"141 333 LINE",
"135 357 LINE",
"159 357 LINE",
"147 405 LINE",
"248 381 LINE",
"254 357 LINE",
"230 357 LINE",
"242 309 LINE",
"331 333 LINE",
"325 357 LINE",
"349 357 LINE",
"331 429 LINE",
"242 405 LINE",
"230 452 LINE",
"254 452 LINE",
"248 476 LINE",
"147 500 LINE",
"159 452 LINE",
"135 452 LINE",
"141 428 LINE",
"52 404 LINE",
"64 357 LINE",
"40 357 LINE",
"52 309 LINE"
);
},
{
closed = 1;
nodes = (
"230 262 LINE",
"254 167 LINE",
"230 166 LINE",
"248 95 LINE",
"147 119 LINE",
"135 166 LINE",
"159 167 LINE",
"135 262 LINE",
"159 262 LINE",
"153 286 LINE",
"52 309 LINE",
"64 262 LINE",
"40 262 LINE",
"64 167 LINE",
"40 167 LINE",
"64 71 LINE",
"40 71 LINE",
"52 24 LINE",
"153 0 LINE",
"147 24 LINE",
"248 0 LINE",
"242 24 LINE",
"343 0 LINE",
"325 71 LINE",
"349 71 LINE",
"325 167 LINE",
"349 167 LINE",
"325 262 LINE",
"349 262 LINE",
"343 286 LINE",
"242 309 LINE",
"254 262 LINE"
);
}
);
width = 389;
}
);
note = ucircumflex;
unicode = 00FB;
},
{
glyphname = udieresis;
layers = (
{
layerId = "F615FF3B-AC20-4656-A54C-A768163DB377";
paths = (
{
closed = 1;
nodes = (
"40 453 LINE",
"64 453 LINE",
"52 500 LINE",
"153 476 LINE",
"159 453 LINE",
"135 453 LINE",
"153 381 LINE",
"52 405 LINE"
);
},
{
closed = 1;
nodes = (
"343 381 LINE",
"325 452 LINE",
"349 452 LINE",
"343 476 LINE",
"242 500 LINE",
"254 452 LINE",
"230 452 LINE",
"242 405 LINE"
);
},
{
closed = 1;
nodes = (
"230 262 LINE",
"254 167 LINE",
"230 167 LINE",
"248 95 LINE",
"147 119 LINE",
"135 167 LINE",
"159 167 LINE",
"135 262 LINE",
"159 262 LINE",
"153 286 LINE",
"52 309 LINE",
"64 262 LINE",
"40 262 LINE",
"64 167 LINE",
"40 167 LINE",
"64 71 LINE",
"40 71 LINE",
"52 24 LINE",
"153 0 LINE",
"147 24 LINE",
"248 0 LINE",
"242 24 LINE",
"343 0 LINE",
"325 71 LINE",
"349 71 LINE",
"325 167 LINE",
"349 167 LINE",
"326 262 LINE",
"349 262 LINE",
"343 286 LINE",
"242 309 LINE",
"254 262 LINE"
);
}
);
width = 389;
}
);
note = udieresis;
unicode = 00FC;
},
{
glyphname = ugrave;
layers = (
{
layerId = "F615FF3B-AC20-4656-A54C-A768163DB377";
paths = (
{
closed = 1;
nodes = (
"40 452 LINE",
"64 453 LINE",
"52 500 LINE",
"153 476 LINE",
"159 453 LINE",
"135 452 LINE",
"147 405 LINE",
"248 381 LINE",
"254 357 LINE",
"231 357 LINE",
"248 286 LINE",
"147 309 LINE",
"135 357 LINE",
"159 357 LINE",
"153 381 LINE",
"52 405 LINE"
);
},
{
closed = 1;
nodes = (
"230 262 LINE",
"254 167 LINE",
"230 167 LINE",
"248 95 LINE",
"147 119 LINE",
"135 167 LINE",
"159 167 LINE",
"135 262 LINE",
"159 262 LINE",
"153 286 LINE",
"52 309 LINE",
"64 262 LINE",
"40 262 LINE",
"64 167 LINE",
"40 167 LINE",
"64 71 LINE",
"40 71 LINE",
"52 24 LINE",
"153 0 LINE",
"147 24 LINE",
"248 0 LINE",
"242 24 LINE",
"343 0 LINE",
"325 71 LINE",
"349 71 LINE",
"325 167 LINE",
"349 167 LINE",
"326 262 LINE",
"349 262 LINE",
"343 286 LINE",
"242 309 LINE",
"254 262 LINE"
);
}
);
width = 389;
}
);
note = ugrave;
unicode = 00F9;
},
{
glyphname = v;
lastChange = "2022-03-14 21:12:46 +0000";
layers = (
{
layerId = "F615FF3B-AC20-4656-A54C-A768163DB377";
paths = (
{
closed = 1;
nodes = (
"248 0 LINE",
"242 24 LINE",
"331 48 LINE",
"325 71 LINE",
"349 71 LINE",
"337 119 LINE",
"427 143 LINE",
"421 167 LINE",
"444 166 LINE",
"421 262 LINE",
"444 262 LINE",
"421 357 LINE",
"444 357 LINE",
"421 452 LINE",
"444 452 LINE",
"439 475 LINE",
"337 500 LINE",
"349 452 LINE",
"325 452 LINE",
"349 357 LINE",
"325 357 LINE",
"349 262 LINE",
"325 262 LINE",
"349 166 LINE",
"325 167 LINE",
"331 143 LINE",
"242 119 LINE",
"248 95 LINE",
"147 119 LINE",
"135 167 LINE",
"159 166 LINE",
"135 262 LINE",
"159 262 LINE",
"135 357 LINE",
"159 357 LINE",
"135 452 LINE",
"159 452 LINE",
"153 476 LINE",
"51 500 LINE",
"63 452 LINE",
"40 452 LINE",
"63 357 LINE",
"40 357 LINE",
"63 262 LINE",
"40 262 LINE",
"63 166 LINE",
"40 167 LINE",
"51 119 LINE",
"153 95 LINE",
"159 71 LINE",
"135 71 LINE",
"147 24 LINE"
);
}
);
width = 484;
}
);
note = v;
unicode = 0076;
},
{
glyphname = w;
layers = (
{
layerId = "F615FF3B-AC20-4656-A54C-A768163DB377";
paths = (
{
closed = 1;
nodes = (
"152 476 LINE",
"158 453 LINE",
"135 452 LINE",
"158 357 LINE",
"135 357 LINE",
"158 262 LINE",
"135 261 LINE",
"158 166 LINE",
"135 166 LINE",
"147 119 LINE",
"247 95 LINE",
"242 119 LINE",
"330 143 LINE",
"325 166 LINE",
"348 166 LINE",
"325 261 LINE",
"348 262 LINE",
"325 357 LINE",
"348 357 LINE",
"325 452 LINE",
"348 453 LINE",
"336 500 LINE",
"437 476 LINE",
"443 453 LINE",
"420 452 LINE",
"443 357 LINE",
"420 357 LINE",
"443 262 LINE",
"420 261 LINE",
"443 166 LINE",
"420 166 LINE",
"431 119 LINE",
"532 95 LINE",
"526 119 LINE",
"615 143 LINE",
"609 166 LINE",
"633 166 LINE",
"609 261 LINE",
"633 262 LINE",
"609 357 LINE",
"633 357 LINE",
"609 452 LINE",
"633 453 LINE",
"621 500 LINE",
"722 476 LINE",
"728 453 LINE",
"704 452 LINE",
"728 357 LINE",
"704 357 LINE",
"728 262 LINE",
"704 261 LINE",
"728 166 LINE",
"704 166 LINE",
"722 95 LINE",
"621 119 LINE",
"633 71 LINE",
"609 71 LINE",
"615 47 LINE",
"526 24 LINE",
"532 0 LINE",
"431 24 LINE",
"425 48 LINE",
"336 24 LINE",
"330 48 LINE",
"242 24 LINE",
"247 0 LINE",
"147 24 LINE",
"141 47 LINE",
"52 24 LINE",
"40 71 LINE",
"63 71 LINE",
"40 166 LINE",
"63 166 LINE",
"40 261 LINE",
"63 262 LINE",
"40 357 LINE",
"63 357 LINE",
"40 452 LINE",
"63 453 LINE",
"52 500 LINE"
);
}
);
width = 768;
}
);
note = w;
unicode = 0077;
},
{
glyphname = wacute;
layers = (
{
layerId = "F615FF3B-AC20-4656-A54C-A768163DB377";
paths = (
{
closed = 1;
nodes = (
"332 333 LINE",
"326 357 LINE",
"350 357 LINE",
"338 405 LINE",
"427 429 LINE",
"421 452 LINE",
"445 452 LINE",
"439 476 LINE",
"338 500 LINE",
"350 452 LINE",
"326 452 LINE",
"332 429 LINE",
"242 405 LINE",
"254 357 LINE",
"231 357 LINE",
"242 309 LINE"
);
},
{
closed = 1;
nodes = (
"439 0 LINE",
"433 24 LINE",
"522 48 LINE",
"516 72 LINE",
"540 71 LINE",
"516 167 LINE",
"540 167 LINE",
"516 262 LINE",
"540 262 LINE",
"534 286 LINE",
"433 310 LINE",
"445 262 LINE",
"421 262 LINE",
"445 167 LINE",
"421 167 LINE",
"439 95 LINE",
"338 119 LINE",
"326 167 LINE",
"349 167 LINE",
"326 262 LINE",
"350 262 LINE",
"344 286 LINE",
"242 309 LINE",
"254 262 LINE",
"230 262 LINE",
"254 167 LINE",
"230 167 LINE",
"248 95 LINE",
"147 119 LINE",
"135 167 LINE",
"159 167 LINE",
"135 262 LINE",
"159 262 LINE",
"153 286 LINE",
"52 310 LINE",
"64 263 LINE",
"40 263 LINE",
"64 167 LINE",
"40 167 LINE",
"64 71 LINE",
"40 71 LINE",
"52 24 LINE",
"141 48 LINE",
"147 24 LINE",
"248 0 LINE",
"242 24 LINE",
"332 48 LINE",
"338 24 LINE"
);
}
);
width = 580;
}
);
note = wacute;
unicode = 1E83;
},
{
glyphname = wcircumflex;
layers = (
{
layerId = "F615FF3B-AC20-4656-A54C-A768163DB377";
paths = (
{
closed = 1;
nodes = (
"237 333 LINE",
"231 357 LINE",
"254 357 LINE",
"243 405 LINE",
"344 381 LINE",
"350 357 LINE",
"326 357 LINE",
"338 309 LINE",
"427 333 LINE",
"421 357 LINE",
"445 357 LINE",
"427 429 LINE",
"338 405 LINE",
"326 452 LINE",
"350 452 LINE",
"344 476 LINE",
"243 500 LINE",
"254 452 LINE",
"231 452 LINE",
"237 429 LINE",
"147 405 LINE",
"159 357 LINE",
"135 357 LINE",
"147 309 LINE"
);
},
{
closed = 1;
nodes = (
"439 0 LINE",
"433 24 LINE",
"522 48 LINE",
"516 72 LINE",
"540 71 LINE",
"516 167 LINE",
"540 167 LINE",
"516 262 LINE",
"540 262 LINE",
"534 286 LINE",
"433 309 LINE",
"445 262 LINE",
"421 262 LINE",
"445 167 LINE",
"421 167 LINE",
"439 95 LINE",
"338 119 LINE",
"325 167 LINE",
"349 167 LINE",
"326 262 LINE",
"349 262 LINE",
"343 286 LINE",
"242 309 LINE",
"254 262 LINE",
"230 262 LINE",
"254 167 LINE",
"230 167 LINE",
"248 95 LINE",
"147 119 LINE",
"135 167 LINE",
"159 167 LINE",
"135 262 LINE",
"159 262 LINE",
"153 286 LINE",
"52 309 LINE",
"64 262 LINE",
"40 262 LINE",
"64 167 LINE",
"40 167 LINE",
"64 71 LINE",
"40 71 LINE",
"52 24 LINE",
"141 48 LINE",
"147 24 LINE",
"248 0 LINE",
"242 24 LINE",
"332 48 LINE",
"338 24 LINE"
);
}
);
width = 580;
}
);
note = wcircumflex;
unicode = 0175;
},
{
glyphname = wdieresis;
layers = (
{
layerId = "F615FF3B-AC20-4656-A54C-A768163DB377";
paths = (
{
closed = 1;
nodes = (
"136 453 LINE",
"159 453 LINE",
"147 500 LINE",
"249 476 LINE",
"255 453 LINE",
"231 453 LINE",
"249 381 LINE",
"147 405 LINE"
);
},
{
closed = 1;
nodes = (
"439 381 LINE",
"421 452 LINE",
"445 452 LINE",
"439 476 LINE",
"337 500 LINE",
"349 452 LINE",
"326 452 LINE",
"337 405 LINE"
);
},
{
closed = 1;
nodes = (
"439 0 LINE",
"433 24 LINE",
"522 48 LINE",
"516 72 LINE",
"540 71 LINE",
"516 167 LINE",
"540 167 LINE",
"516 262 LINE",
"540 262 LINE",
"534 286 LINE",
"433 309 LINE",
"445 262 LINE",
"421 262 LINE",
"445 167 LINE",
"421 167 LINE",
"439 95 LINE",
"338 119 LINE",
"325 167 LINE",
"349 167 LINE",
"326 262 LINE",
"349 262 LINE",
"343 286 LINE",
"242 309 LINE",
"254 262 LINE",
"230 262 LINE",
"254 167 LINE",
"230 167 LINE",
"248 95 LINE",
"147 119 LINE",
"135 167 LINE",
"159 167 LINE",
"135 262 LINE",
"159 262 LINE",
"153 286 LINE",
"52 309 LINE",
"64 262 LINE",
"40 262 LINE",
"64 167 LINE",
"40 167 LINE",
"64 71 LINE",
"40 71 LINE",
"52 24 LINE",
"141 48 LINE",
"147 24 LINE",
"248 0 LINE",
"242 24 LINE",
"332 48 LINE",
"338 24 LINE"
);
}
);
width = 580;
}
);
note = wdieresis;
unicode = 1E85;
},
{
glyphname = wgrave;
layers = (
{
layerId = "F615FF3B-AC20-4656-A54C-A768163DB377";
paths = (
{
closed = 1;
nodes = (
"231 452 LINE",
"254 453 LINE",
"242 500 LINE",
"344 476 LINE",
"350 453 LINE",
"326 452 LINE",
"338 405 LINE",
"439 381 LINE",
"445 357 LINE",
"421 357 LINE",
"439 286 LINE",
"338 309 LINE",
"326 357 LINE",
"350 357 LINE",
"344 381 LINE",
"242 405 LINE"
);
},
{
closed = 1;
nodes = (
"439 0 LINE",
"433 24 LINE",
"522 48 LINE",
"516 72 LINE",
"540 71 LINE",
"516 167 LINE",
"540 167 LINE",
"516 262 LINE",
"540 262 LINE",
"534 286 LINE",
"433 310 LINE",
"445 262 LINE",
"421 262 LINE",
"445 167 LINE",
"421 167 LINE",
"439 95 LINE",
"338 119 LINE",
"326 167 LINE",
"349 167 LINE",
"326 262 LINE",
"350 262 LINE",
"344 286 LINE",
"242 309 LINE",
"254 262 LINE",
"231 262 LINE",
"254 167 LINE",
"231 167 LINE",
"248 95 LINE",
"147 119 LINE",
"135 167 LINE",
"159 167 LINE",
"135 262 LINE",
"159 262 LINE",
"153 286 LINE",
"52 310 LINE",
"64 263 LINE",
"40 263 LINE",
"64 167 LINE",
"40 167 LINE",
"64 71 LINE",
"40 71 LINE",
"52 24 LINE",
"141 48 LINE",
"147 24 LINE",
"248 0 LINE",
"242 24 LINE",
"332 48 LINE",
"338 24 LINE"
);
}
);
width = 580;
}
);
note = wgrave;
unicode = 1E81;
},
{
glyphname = x;
layers = (
{
layerId = "F615FF3B-AC20-4656-A54C-A768163DB377";
paths = (
{
closed = 1;
nodes = (
"159 262 LINE",
"153 285 LINE",
"52 309 LINE",
"40 356 LINE",
"64 356 LINE",
"40 452 LINE",
"64 452 LINE",
"52 500 LINE",
"153 475 LINE",
"159 452 LINE",
"136 452 LINE",
"159 356 LINE",
"136 356 LINE",
"148 309 LINE",
"249 285 LINE",
"243 308 LINE",
"332 333 LINE",
"326 356 LINE",
"350 356 LINE",
"327 452 LINE",
"350 452 LINE",
"339 500 LINE",
"440 475 LINE",
"446 452 LINE",
"423 452 LINE",
"446 356 LINE",
"423 356 LINE",
"439 285 LINE",
"338 308 LINE",
"349 262 LINE",
"326 262 LINE",
"338 214 LINE",
"439 190 LINE",
"445 167 LINE",
"421 167 LINE",
"445 71 LINE",
"421 71 LINE",
"439 0 LINE",
"338 23 LINE",
"326 71 LINE",
"349 71 LINE",
"326 167 LINE",
"349 167 LINE",
"343 190 LINE",
"243 214 LINE",
"255 167 LINE",
"230 167 LINE",
"236 143 LINE",
"148 119 LINE",
"159 71 LINE",
"136 71 LINE",
"153 0 LINE",
"52 23 LINE",
"40 71 LINE",
"64 71 LINE",
"40 167 LINE",
"64 167 LINE",
"52 214 LINE",
"153 190 LINE",
"136 262 LINE"
);
}
);
width = 486;
}
);
note = x;
unicode = 0078;
},
{
glyphname = y;
layers = (
{
layerId = "F615FF3B-AC20-4656-A54C-A768163DB377";
paths = (
{
closed = 1;
nodes = (
"438 476 LINE",
"444 453 LINE",
"420 452 LINE",
"444 357 LINE",
"420 357 LINE",
"444 262 LINE",
"420 261 LINE",
"444 166 LINE",
"420 166 LINE",
"444 71 LINE",
"420 71 LINE",
"426 47 LINE",
"337 24 LINE",
"343 0 LINE",
"242 24 LINE",
"248 0 LINE",
"147 24 LINE",
"141 48 LINE",
"52 24 LINE",
"40 71 LINE",
"64 71 LINE",
"52 119 LINE",
"141 143 LINE",
"147 119 LINE",
"248 95 LINE",
"242 119 LINE",
"343 95 LINE",
"325 166 LINE",
"349 166 LINE",
"331 237 LINE",
"242 214 LINE",
"236 237 LINE",
"147 214 LINE",
"141 238 LINE",
"52 214 LINE",
"40 261 LINE",
"64 262 LINE",
"40 357 LINE",
"64 357 LINE",
"40 452 LINE",
"64 453 LINE",
"52 500 LINE",
"153 476 LINE",
"159 453 LINE",
"135 452 LINE",
"159 357 LINE",
"135 357 LINE",
"147 309 LINE",
"248 286 LINE",
"242 309 LINE",
"343 286 LINE",
"325 357 LINE",
"349 357 LINE",
"325 452 LINE",
"349 453 LINE",
"337 500 LINE"
);
}
);
width = 484;
}
);
note = y;
unicode = 0079;
},
{
glyphname = yacute;
layers = (
{
layerId = "F615FF3B-AC20-4656-A54C-A768163DB377";
paths = (
{
closed = 1;
nodes = (
"237 333 LINE",
"231 357 LINE",
"254 357 LINE",
"243 405 LINE",
"332 429 LINE",
"326 452 LINE",
"350 452 LINE",
"344 476 LINE",
"243 500 LINE",
"254 452 LINE",
"231 452 LINE",
"237 429 LINE",
"147 405 LINE",
"159 357 LINE",
"135 357 LINE",
"147 309 LINE"
);
},
{
closed = 1;
nodes = (
"153 0 LINE",
"147 24 LINE",
"248 0 LINE",
"243 24 LINE",
"332 48 LINE",
"326 71 LINE",
"350 71 LINE",
"326 166 LINE",
"350 167 LINE",
"326 262 LINE",
"350 262 LINE",
"344 286 LINE",
"243 309 LINE",
"254 262 LINE",
"231 262 LINE",
"248 190 LINE",
"147 214 LINE",
"135 262 LINE",
"159 262 LINE",
"153 286 LINE",
"52 309 LINE",
"64 262 LINE",
"40 262 LINE",
"64 167 LINE",
"40 166 LINE",
"52 119 LINE",
"141 143 LINE",
"147 119 LINE",
"236 143 LINE",
"248 95 LINE",
"147 119 LINE",
"153 95 LINE",
"52 119 LINE",
"64 71 LINE",
"40 71 LINE",
"52 24 LINE"
);
}
);
width = 390;
}
);
note = yacute;
unicode = 00FD;
},
{
glyphname = ycircumflex;
layers = (
{
layerId = "F615FF3B-AC20-4656-A54C-A768163DB377";
paths = (
{
closed = 1;
nodes = (
"142 333 LINE",
"136 357 LINE",
"159 357 LINE",
"147 405 LINE",
"249 381 LINE",
"255 357 LINE",
"231 357 LINE",
"243 309 LINE",
"332 333 LINE",
"326 357 LINE",
"350 357 LINE",
"332 429 LINE",
"243 405 LINE",
"231 452 LINE",
"255 452 LINE",
"249 476 LINE",
"147 500 LINE",
"159 452 LINE",
"136 452 LINE",
"142 429 LINE",
"52 405 LINE",
"64 357 LINE",
"40 357 LINE",
"52 309 LINE"
);
},
{
closed = 1;
nodes = (
"153 0 LINE",
"147 24 LINE",
"248 0 LINE",
"243 24 LINE",
"332 48 LINE",
"326 71 LINE",
"350 71 LINE",
"326 166 LINE",
"350 167 LINE",
"326 262 LINE",
"350 262 LINE",
"344 286 LINE",
"243 309 LINE",
"254 262 LINE",
"231 262 LINE",
"248 190 LINE",
"147 214 LINE",
"135 262 LINE",
"159 262 LINE",
"153 286 LINE",
"52 309 LINE",
"64 262 LINE",
"40 262 LINE",
"64 167 LINE",
"40 166 LINE",
"52 119 LINE",
"141 143 LINE",
"147 119 LINE",
"236 143 LINE",
"248 95 LINE",
"147 119 LINE",
"153 95 LINE",
"52 119 LINE",
"64 71 LINE",
"40 71 LINE",
"52 24 LINE"
);
}
);
width = 390;
}
);
note = ycircumflex;
unicode = 0177;
},
{
glyphname = ydieresis;
layers = (
{
layerId = "F615FF3B-AC20-4656-A54C-A768163DB377";
paths = (
{
closed = 1;
nodes = (
"40 453 LINE",
"64 453 LINE",
"52 500 LINE",
"154 476 LINE",
"160 453 LINE",
"136 453 LINE",
"154 381 LINE",
"52 405 LINE"
);
},
{
closed = 1;
nodes = (
"344 381 LINE",
"326 452 LINE",
"350 452 LINE",
"344 476 LINE",
"243 500 LINE",
"254 452 LINE",
"231 452 LINE",
"243 405 LINE"
);
},
{
closed = 1;
nodes = (
"153 0 LINE",
"147 24 LINE",
"248 0 LINE",
"243 24 LINE",
"332 48 LINE",
"326 71 LINE",
"350 71 LINE",
"326 166 LINE",
"350 167 LINE",
"326 262 LINE",
"350 262 LINE",
"344 286 LINE",
"243 309 LINE",
"254 262 LINE",
"231 262 LINE",
"248 190 LINE",
"147 214 LINE",
"135 262 LINE",
"159 262 LINE",
"153 286 LINE",
"52 309 LINE",
"64 262 LINE",
"40 262 LINE",
"64 167 LINE",
"40 166 LINE",
"52 119 LINE",
"141 143 LINE",
"147 119 LINE",
"236 143 LINE",
"248 95 LINE",
"147 119 LINE",
"153 95 LINE",
"52 119 LINE",
"64 71 LINE",
"40 71 LINE",
"52 24 LINE"
);
}
);
width = 390;
}
);
note = ydieresis;
unicode = 00FF;
},
{
glyphname = ygrave;
layers = (
{
layerId = "F615FF3B-AC20-4656-A54C-A768163DB377";
paths = (
{
closed = 1;
nodes = (
"40 452 LINE",
"64 453 LINE",
"52 500 LINE",
"153 476 LINE",
"159 453 LINE",
"135 452 LINE",
"147 405 LINE",
"249 381 LINE",
"254 357 LINE",
"231 357 LINE",
"248 286 LINE",
"147 309 LINE",
"135 357 LINE",
"159 357 LINE",
"153 381 LINE",
"52 405 LINE"
);
},
{
closed = 1;
nodes = (
"153 0 LINE",
"147 24 LINE",
"248 0 LINE",
"243 24 LINE",
"332 48 LINE",
"326 71 LINE",
"350 71 LINE",
"326 166 LINE",
"350 167 LINE",
"326 262 LINE",
"350 262 LINE",
"344 286 LINE",
"243 309 LINE",
"254 262 LINE",
"231 262 LINE",
"248 190 LINE",
"147 214 LINE",
"135 262 LINE",
"159 262 LINE",
"153 286 LINE",
"52 309 LINE",
"64 262 LINE",
"40 262 LINE",
"64 167 LINE",
"40 166 LINE",
"52 119 LINE",
"141 143 LINE",
"147 119 LINE",
"236 143 LINE",
"248 95 LINE",
"147 119 LINE",
"153 95 LINE",
"52 119 LINE",
"64 71 LINE",
"40 71 LINE",
"52 24 LINE"
);
}
);
width = 390;
}
);
note = ygrave;
unicode = 1EF3;
},
{
glyphname = z;
lastChange = "2022-03-14 21:15:09 +0000";
layers = (
{
layerId = "F615FF3B-AC20-4656-A54C-A768163DB377";
paths = (
{
closed = 1;
nodes = (
"163 476 LINE",
"157 500 LINE",
"258 476 LINE",
"252 500 LINE",
"353 476 LINE",
"347 500 LINE",
"448 476 LINE",
"454 453 LINE",
"430 452 LINE",
"454 357 LINE",
"430 357 LINE",
"448 286 LINE",
"347 309 LINE",
"359 262 LINE",
"335 261 LINE",
"341 238 LINE",
"252 214 LINE",
"246 238 LINE",
"157 214 LINE",
"169 166 LINE",
"145 166 LINE",
"157 119 LINE",
"258 95 LINE",
"252 119 LINE",
"353 95 LINE",
"347 119 LINE",
"436 143 LINE",
"454 71 LINE",
"430 71 LINE",
"448 0 LINE",
"347 24 LINE",
"353 0 LINE",
"252 24 LINE",
"258 0 LINE",
"157 24 LINE",
"151 47 LINE",
"62 24 LINE",
"50 71 LINE",
"74 71 LINE",
"50 166 LINE",
"74 166 LINE",
"62 214 LINE",
"151 238 LINE",
"145 261 LINE",
"169 262 LINE",
"157 309 LINE",
"258 286 LINE",
"252 309 LINE",
"341 333 LINE",
"335 357 LINE",
"359 357 LINE",
"341 428 LINE",
"252 404 LINE",
"258 381 LINE",
"157 404 LINE",
"162 381 LINE",
"62 404 LINE",
"50 452 LINE",
"74 453 LINE",
"62 500 LINE"
);
}
);
width = 504;
}
);
note = z;
unicode = 007A;
},
{
glyphname = zero;
lastChange = "2022-03-14 21:31:26 +0000";
layers = (
{
layerId = "F615FF3B-AC20-4656-A54C-A768163DB377";
paths = (
{
closed = 1;
nodes = (
"167 477 LINE",
"162 500 LINE",
"263 477 LINE",
"258 500 LINE",
"359 477 LINE",
"352 500 LINE",
"454 477 LINE",
"459 453 LINE",
"436 451 LINE",
"459 357 LINE",
"436 357 LINE",
"459 262 LINE",
"436 262 LINE",
"459 168 LINE",
"436 166 LINE",
"459 72 LINE",
"436 72 LINE",
"454 0 LINE",
"352 25 LINE",
"359 0 LINE",
"258 25 LINE",
"263 0 LINE",
"162 25 LINE",
"167 0 LINE",
"67 25 LINE",
"55 72 LINE",
"78 72 LINE",
"55 166 LINE",
"78 168 LINE",
"55 262 LINE",
"78 262 LINE",
"55 357 LINE",
"78 357 LINE",
"55 451 LINE",
"78 453 LINE",
"67 500 LINE"
);
},
{
closed = 1;
nodes = (
"174 262 LINE",
"151 262 LINE",
"174 166 LINE",
"151 166 LINE",
"162 119 LINE",
"263 96 LINE",
"258 119 LINE",
"359 96 LINE",
"340 166 LINE",
"365 166 LINE",
"340 262 LINE",
"365 262 LINE",
"340 356 LINE",
"365 356 LINE",
"359 381 LINE",
"258 404 LINE",
"263 381 LINE",
"162 404 LINE",
"174 356 LINE",
"151 356 LINE"
);
}
);
width = 514;
}
);
note = zero;
unicode = 0030;
},
{
glyphname = one;
lastChange = "2022-03-14 21:31:49 +0000";
layers = (
{
layerId = "F615FF3B-AC20-4656-A54C-A768163DB377";
paths = (
{
closed = 1;
nodes = (
"45 357 LINE",
"69 357 LINE",
"57 406 LINE",
"146 429 LINE",
"141 453 LINE",
"165 453 LINE",
"153 500 LINE",
"254 476 LINE",
"249 500 LINE",
"350 476 LINE",
"355 453 LINE",
"331 453 LINE",
"355 357 LINE",
"331 357 LINE",
"355 263 LINE",
"331 263 LINE",
"355 167 LINE",
"331 167 LINE",
"355 71 LINE",
"331 71 LINE",
"350 0 LINE",
"249 24 LINE",
"235 71 LINE",
"260 71 LINE",
"235 167 LINE",
"260 167 LINE",
"235 263 LINE",
"260 263 LINE",
"235 357 LINE",
"260 357 LINE",
"242 429 LINE",
"153 406 LINE",
"165 357 LINE",
"141 357 LINE",
"158 286 LINE",
"57 310 LINE"
);
}
);
width = 420;
}
);
note = one;
unicode = 0031;
},
{
glyphname = two;
lastChange = "2022-03-14 21:32:48 +0000";
layers = (
{
layerId = "F615FF3B-AC20-4656-A54C-A768163DB377";
paths = (
{
closed = 1;
nodes = (
"459 451 LINE",
"454 475 LINE",
"352 500 LINE",
"359 475 LINE",
"258 500 LINE",
"263 475 LINE",
"162 500 LINE",
"167 475 LINE",
"67 500 LINE",
"78 451 LINE",
"55 451 LINE",
"67 404 LINE",
"167 381 LINE",
"162 404 LINE",
"263 381 LINE",
"258 404 LINE",
"359 381 LINE",
"364 356 LINE",
"340 357 LINE",
"359 285 LINE",
"258 309 LINE",
"263 285 LINE",
"162 309 LINE",
"167 285 LINE",
"67 309 LINE",
"78 262 LINE",
"55 262 LINE",
"78 166 LINE",
"55 166 LINE",
"67 119 LINE",
"78 70 LINE",
"55 72 LINE",
"67 23 LINE",
"167 0 LINE",
"162 23 LINE",
"263 0 LINE",
"258 23 LINE",
"359 0 LINE",
"352 23 LINE",
"454 0 LINE",
"436 72 LINE",
"459 70 LINE",
"454 96 LINE",
"352 119 LINE",
"359 96 LINE",
"258 119 LINE",
"263 96 LINE",
"162 119 LINE",
"151 166 LINE",
"174 166 LINE",
"162 213 LINE",
"263 190 LINE",
"258 213 LINE",
"347 238 LINE",
"352 215 LINE",
"441 238 LINE",
"436 262 LINE",
"459 262 LINE",
"436 357 LINE",
"459 356 LINE",
"436 451 LINE"
);
}
);
width = 504;
}
);
note = two;
unicode = 0032;
},
{
glyphname = three;
lastChange = "2022-03-14 21:32:44 +0000";
layers = (
{
layerId = "F615FF3B-AC20-4656-A54C-A768163DB377";
paths = (
{
closed = 1;
nodes = (
"448 70 LINE",
"424 70 LINE",
"443 0 LINE",
"342 23 LINE",
"347 0 LINE",
"246 23 LINE",
"251 0 LINE",
"151 23 LINE",
"157 0 LINE",
"57 23 LINE",
"45 70 LINE",
"68 70 LINE",
"57 119 LINE",
"157 96 LINE",
"151 119 LINE",
"251 96 LINE",
"246 119 LINE",
"347 96 LINE",
"330 166 LINE",
"354 166 LINE",
"335 238 LINE",
"246 213 LINE",
"240 238 LINE",
"151 213 LINE",
"139 262 LINE",
"162 262 LINE",
"151 309 LINE",
"251 285 LINE",
"246 309 LINE",
"347 285 LINE",
"330 357 LINE",
"354 356 LINE",
"335 428 LINE",
"246 404 LINE",
"251 381 LINE",
"151 404 LINE",
"157 381 LINE",
"57 404 LINE",
"45 451 LINE",
"68 451 LINE",
"57 500 LINE",
"157 475 LINE",
"151 500 LINE",
"251 475 LINE",
"246 500 LINE",
"347 475 LINE",
"342 500 LINE",
"443 475 LINE",
"448 451 LINE",
"424 451 LINE",
"448 356 LINE",
"424 357 LINE",
"448 262 LINE",
"424 262 LINE",
"448 166 LINE",
"424 166 LINE"
);
}
);
width = 513;
}
);
note = three;
unicode = 0033;
},
{
glyphname = four;
lastChange = "2022-03-14 21:33:31 +0000";
layers = (
{
layerId = "F615FF3B-AC20-4656-A54C-A768163DB377";
paths = (
{
closed = 1;
nodes = (
"357 262 LINE",
"333 357 LINE",
"357 357 LINE",
"333 452 LINE",
"357 452 LINE",
"345 500 LINE",
"446 476 LINE",
"452 452 LINE",
"428 452 LINE",
"452 357 LINE",
"428 357 LINE",
"452 262 LINE",
"428 262 LINE",
"452 167 LINE",
"428 167 LINE",
"452 71 LINE",
"428 71 LINE",
"446 0 LINE",
"345 24 LINE",
"333 71 LINE",
"357 71 LINE",
"337 144 LINE",
"248 120 LINE",
"242 144 LINE",
"152 119 LINE",
"146 143 LINE",
"57 119 LINE",
"45 167 LINE",
"69 167 LINE",
"45 262 LINE",
"69 262 LINE",
"45 357 LINE",
"69 357 LINE",
"45 452 LINE",
"69 452 LINE",
"57 500 LINE",
"158 476 LINE",
"164 452 LINE",
"141 452 LINE",
"164 357 LINE",
"141 357 LINE",
"164 262 LINE",
"141 262 LINE",
"152 214 LINE",
"253 191 LINE",
"248 215 LINE",
"349 191 LINE",
"333 262 LINE"
);
}
);
width = 517;
}
);
note = four;
unicode = 0034;
},
{
glyphname = five;
lastChange = "2022-03-14 21:33:24 +0000";
layers = (
{
layerId = "F615FF3B-AC20-4656-A54C-A768163DB377";
paths = (
{
closed = 1;
nodes = (
"342 500 LINE",
"348 476 LINE",
"247 500 LINE",
"253 476 LINE",
"152 500 LINE",
"158 476 LINE",
"57 500 LINE",
"69 452 LINE",
"45 452 LINE",
"69 357 LINE",
"45 358 LINE",
"69 263 LINE",
"45 263 LINE",
"57 215 LINE",
"146 239 LINE",
"152 215 LINE",
"241 239 LINE",
"247 215 LINE",
"337 239 LINE",
"354 167 LINE",
"331 167 LINE",
"348 96 LINE",
"247 119 LINE",
"253 96 LINE",
"152 119 LINE",
"146 143 LINE",
"57 119 LINE",
"69 72 LINE",
"45 71 LINE",
"57 24 LINE",
"146 48 LINE",
"152 24 LINE",
"253 0 LINE",
"247 24 LINE",
"348 0 LINE",
"342 24 LINE",
"432 48 LINE",
"426 71 LINE",
"450 72 LINE",
"426 167 LINE",
"450 167 LINE",
"426 263 LINE",
"450 263 LINE",
"444 287 LINE",
"342 310 LINE",
"337 334 LINE",
"247 310 LINE",
"253 286 LINE",
"152 310 LINE",
"140 358 LINE",
"164 357 LINE",
"152 404 LINE",
"241 428 LINE",
"247 404 LINE",
"337 428 LINE",
"342 405 LINE",
"444 381 LINE",
"426 452 LINE",
"450 452 LINE",
"444 476 LINE"
);
}
);
width = 505;
}
);
note = five;
unicode = 0035;
},
{
glyphname = six;
lastChange = "2022-03-14 21:33:57 +0000";
layers = (
{
layerId = "F615FF3B-AC20-4656-A54C-A768163DB377";
paths = (
{
closed = 1;
nodes = (
"446 452 LINE",
"470 452 LINE",
"464 476 LINE",
"363 500 LINE",
"369 476 LINE",
"268 500 LINE",
"274 476 LINE",
"172 500 LINE",
"178 476 LINE",
"77 500 LINE",
"89 452 LINE",
"65 452 LINE",
"89 357 LINE",
"65 358 LINE",
"89 263 LINE",
"65 263 LINE",
"89 168 LINE",
"65 167 LINE",
"89 72 LINE",
"65 72 LINE",
"77 24 LINE",
"178 0 LINE",
"172 24 LINE",
"274 0 LINE",
"268 24 LINE",
"369 0 LINE",
"363 24 LINE",
"464 0 LINE",
"446 72 LINE",
"470 72 LINE",
"446 167 LINE",
"470 168 LINE",
"446 263 LINE",
"470 263 LINE",
"464 287 LINE",
"363 310 LINE",
"369 287 LINE",
"268 310 LINE",
"274 287 LINE",
"172 310 LINE",
"160 358 LINE",
"184 357 LINE",
"172 405 LINE",
"274 381 LINE",
"268 405 LINE",
"369 381 LINE",
"363 405 LINE",
"464 381 LINE"
);
},
{
closed = 1;
nodes = (
"160 167 LINE",
"184 168 LINE",
"172 215 LINE",
"262 239 LINE",
"268 215 LINE",
"357 239 LINE",
"375 168 LINE",
"351 167 LINE",
"369 96 LINE",
"268 120 LINE",
"274 96 LINE",
"172 120 LINE"
);
}
);
width = 525;
}
);
note = six;
unicode = 0036;
},
{
glyphname = seven;
lastChange = "2022-03-14 21:34:36 +0000";
layers = (
{
layerId = "F615FF3B-AC20-4656-A54C-A768163DB377";
paths = (
{
closed = 1;
nodes = (
"45 452 LINE",
"69 452 LINE",
"57 500 LINE",
"158 476 LINE",
"152 500 LINE",
"253 476 LINE",
"247 500 LINE",
"348 476 LINE",
"343 500 LINE",
"444 476 LINE",
"450 452 LINE",
"426 452 LINE",
"450 357 LINE",
"426 357 LINE",
"432 334 LINE",
"343 310 LINE",
"354 262 LINE",
"331 262 LINE",
"354 167 LINE",
"331 166 LINE",
"354 71 LINE",
"331 71 LINE",
"348 0 LINE",
"247 24 LINE",
"235 71 LINE",
"259 71 LINE",
"235 166 LINE",
"259 167 LINE",
"235 262 LINE",
"259 262 LINE",
"247 310 LINE",
"337 334 LINE",
"331 357 LINE",
"354 357 LINE",
"337 429 LINE",
"247 405 LINE",
"253 381 LINE",
"152 405 LINE",
"158 381 LINE",
"57 405 LINE"
);
}
);
width = 510;
}
);
note = seven;
unicode = 0037;
},
{
glyphname = eight;
lastChange = "2022-03-14 21:34:12 +0000";
layers = (
{
layerId = "F615FF3B-AC20-4656-A54C-A768163DB377";
paths = (
{
closed = 1;
nodes = (
"178 476 LINE",
"172 500 LINE",
"274 476 LINE",
"268 500 LINE",
"369 476 LINE",
"363 500 LINE",
"464 476 LINE",
"470 452 LINE",
"446 452 LINE",
"470 357 LINE",
"446 357 LINE",
"470 262 LINE",
"446 262 LINE",
"470 167 LINE",
"446 166 LINE",
"470 71 LINE",
"446 71 LINE",
"464 0 LINE",
"363 24 LINE",
"369 0 LINE",
"268 24 LINE",
"274 0 LINE",
"172 24 LINE",
"178 0 LINE",
"77 24 LINE",
"65 71 LINE",
"89 71 LINE",
"65 166 LINE",
"89 167 LINE",
"65 262 LINE",
"89 262 LINE",
"65 357 LINE",
"89 357 LINE",
"65 452 LINE",
"89 452 LINE",
"77 500 LINE"
);
},
{
closed = 1;
nodes = (
"375 356 LINE",
"357 428 LINE",
"268 404 LINE",
"262 428 LINE",
"173 404 LINE",
"184 356 LINE",
"161 356 LINE",
"173 309 LINE",
"274 286 LINE",
"268 309 LINE",
"369 286 LINE",
"351 356 LINE"
);
},
{
closed = 1;
nodes = (
"161 166 LINE",
"173 119 LINE",
"274 95 LINE",
"268 119 LINE",
"369 95 LINE",
"351 166 LINE",
"375 166 LINE",
"357 238 LINE",
"268 214 LINE",
"262 238 LINE",
"173 214 LINE",
"184 166 LINE"
);
}
);
width = 535;
}
);
note = eight;
unicode = 0038;
},
{
glyphname = nine;
lastChange = "2022-03-14 21:34:20 +0000";
layers = (
{
layerId = "F615FF3B-AC20-4656-A54C-A768163DB377";
paths = (
{
closed = 1;
nodes = (
"168 0 LINE",
"162 24 LINE",
"263 0 LINE",
"257 24 LINE",
"358 0 LINE",
"353 24 LINE",
"454 0 LINE",
"436 71 LINE",
"460 71 LINE",
"436 167 LINE",
"460 167 LINE",
"436 262 LINE",
"460 262 LINE",
"436 357 LINE",
"460 357 LINE",
"436 452 LINE",
"460 452 LINE",
"454 476 LINE",
"353 500 LINE",
"358 476 LINE",
"257 500 LINE",
"263 476 LINE",
"162 500 LINE",
"168 476 LINE",
"67 500 LINE",
"79 452 LINE",
"55 452 LINE",
"79 357 LINE",
"55 357 LINE",
"79 262 LINE",
"55 262 LINE",
"67 214 LINE",
"168 191 LINE",
"162 214 LINE",
"263 191 LINE",
"257 214 LINE",
"358 191 LINE",
"364 167 LINE",
"341 167 LINE",
"358 95 LINE",
"257 119 LINE",
"263 95 LINE",
"162 119 LINE",
"168 95 LINE",
"67 119 LINE",
"78 72 LINE",
"55 71 LINE",
"67 24 LINE"
);
},
{
closed = 1;
nodes = (
"251 428 LINE",
"257 404 LINE",
"346 428 LINE",
"364 357 LINE",
"341 357 LINE",
"358 286 LINE",
"257 309 LINE",
"263 286 LINE",
"162 309 LINE",
"150 357 LINE",
"174 357 LINE",
"162 404 LINE"
);
}
);
width = 525;
}
);
note = nine;
unicode = 0039;
},
{
glyphname = period;
layers = (
{
layerId = "F615FF3B-AC20-4656-A54C-A768163DB377";
paths = (
{
closed = 1;
nodes = (
"118 96 LINE",
"123 72 LINE",
"100 71 LINE",
"118 0 LINE",
"17 24 LINE",
"5 71 LINE",
"28 72 LINE",
"17 119 LINE"
);
}
);
width = 128;
}
);
note = period;
unicode = 002E;
},
{
glyphname = comma;
layers = (
{
layerId = "F615FF3B-AC20-4656-A54C-A768163DB377";
paths = (
{
closed = 1;
nodes = (
"124 125 LINE",
"145 125 LINE",
"140 146 LINE",
"51 167 LINE",
"62 125 LINE",
"41 125 LINE",
"60 42 LINE",
"40 42 LINE",
"50 0 LINE",
"128 21 LINE",
"123 42 LINE",
"144 42 LINE"
);
}
);
width = 185;
}
);
note = comma;
unicode = 002C;
},
{
glyphname = colon;
layers = (
{
layerId = "F615FF3B-AC20-4656-A54C-A768163DB377";
paths = (
{
closed = 1;
nodes = (
"119 380 LINE",
"125 356 LINE",
"101 356 LINE",
"119 284 LINE",
"18 308 LINE",
"6 356 LINE",
"30 356 LINE",
"18 404 LINE"
);
},
{
closed = 1;
nodes = (
"118 191 LINE",
"124 167 LINE",
"101 167 LINE",
"118 95 LINE",
"17 119 LINE",
"5 167 LINE",
"29 167 LINE",
"17 215 LINE"
);
}
);
width = 130;
}
);
note = colon;
unicode = 003A;
},
{
glyphname = semicolon;
layers = (
{
layerId = "F615FF3B-AC20-4656-A54C-A768163DB377";
paths = (
{
closed = 1;
nodes = (
"150 312 LINE",
"156 291 LINE",
"135 291 LINE",
"150 228 LINE",
"62 249 LINE",
"51 291 LINE",
"72 291 LINE",
"62 333 LINE"
);
},
{
closed = 1;
nodes = (
"134 125 LINE",
"155 125 LINE",
"150 146 LINE",
"61 167 LINE",
"72 125 LINE",
"51 125 LINE",
"70 42 LINE",
"50 42 LINE",
"60 0 LINE",
"138 21 LINE",
"133 42 LINE",
"154 42 LINE"
);
}
);
width = 196;
}
);
note = semicolon;
unicode = 003B;
},
{
glyphname = ellipsis;
layers = (
{
layerId = "F615FF3B-AC20-4656-A54C-A768163DB377";
paths = (
{
closed = 1;
nodes = (
"148 96 LINE",
"153 72 LINE",
"130 71 LINE",
"148 0 LINE",
"47 24 LINE",
"35 71 LINE",
"58 72 LINE",
"47 119 LINE"
);
},
{
closed = 1;
nodes = (
"338 96 LINE",
"344 72 LINE",
"320 71 LINE",
"338 0 LINE",
"237 24 LINE",
"225 71 LINE",
"249 72 LINE",
"237 119 LINE"
);
},
{
closed = 1;
nodes = (
"528 96 LINE",
"534 72 LINE",
"510 71 LINE",
"528 0 LINE",
"427 24 LINE",
"415 71 LINE",
"439 72 LINE",
"427 119 LINE"
);
}
);
width = 569;
}
);
note = ellipsis;
unicode = 2026;
},
{
glyphname = exclam;
layers = (
{
layerId = "F615FF3B-AC20-4656-A54C-A768163DB377";
paths = (
{
closed = 1;
nodes = (
"149 358 LINE",
"126 452 LINE",
"150 453 LINE",
"144 476 LINE",
"43 500 LINE",
"55 453 LINE",
"31 452 LINE",
"54 358 LINE",
"30 357 LINE",
"54 262 LINE",
"30 262 LINE",
"42 215 LINE",
"131 239 LINE",
"125 262 LINE",
"149 262 LINE",
"125 357 LINE"
);
},
{
closed = 1;
nodes = (
"143 96 LINE",
"149 72 LINE",
"125 71 LINE",
"143 0 LINE",
"42 24 LINE",
"30 71 LINE",
"54 72 LINE",
"42 119 LINE"
);
}
);
width = 190;
}
);
note = exclam;
unicode = 0021;
},
{
glyphname = exclamdown;
layers = (
{
layerId = "F615FF3B-AC20-4656-A54C-A768163DB377";
paths = (
{
closed = 1;
nodes = (
"143 476 LINE",
"149 453 LINE",
"125 452 LINE",
"143 381 LINE",
"42 404 LINE",
"30 452 LINE",
"54 453 LINE",
"42 500 LINE"
);
},
{
closed = 1;
nodes = (
"131 333 LINE",
"149 262 LINE",
"125 262 LINE",
"149 167 LINE",
"125 167 LINE",
"149 71 LINE",
"125 71 LINE",
"143 0 LINE",
"42 24 LINE",
"30 71 LINE",
"53 71 LINE",
"30 167 LINE",
"53 167 LINE",
"30 262 LINE",
"53 262 LINE",
"42 309 LINE"
);
}
);
width = 189;
}
);
note = exclamdown;
unicode = 00A1;
},
{
glyphname = question;
lastChange = "2022-03-14 11:40:22 +0000";
layers = (
{
layerId = "F615FF3B-AC20-4656-A54C-A768163DB377";
paths = (
{
closed = 1;
nodes = (
"52 405 LINE",
"40 453 LINE",
"63 453 LINE",
"52 500 LINE",
"153 477 LINE",
"147 500 LINE",
"248 477 LINE",
"242 500 LINE",
"343 477 LINE",
"349 453 LINE",
"326 453 LINE",
"349 357 LINE",
"326 357 LINE",
"331 334 LINE",
"242 310 LINE",
"254 262 LINE",
"230 262 LINE",
"248 191 LINE",
"147 215 LINE",
"135 262 LINE",
"159 262 LINE",
"147 310 LINE",
"236 334 LINE",
"230 357 LINE",
"254 357 LINE",
"236 429 LINE",
"147 405 LINE",
"153 381 LINE"
);
},
{
closed = 1;
nodes = (
"248 96 LINE",
"254 72 LINE",
"230 71 LINE",
"248 0 LINE",
"147 24 LINE",
"135 71 LINE",
"159 72 LINE",
"147 120 LINE"
);
}
);
width = 399;
}
);
note = question;
unicode = 003F;
},
{
glyphname = questiondown;
layers = (
{
layerId = "F615FF3B-AC20-4656-A54C-A768163DB377";
paths = (
{
closed = 1;
nodes = (
"279 476 LINE",
"285 452 LINE",
"261 452 LINE",
"279 380 LINE",
"177 404 LINE",
"165 452 LINE",
"189 452 LINE",
"177 500 LINE"
);
},
{
closed = 1;
nodes = (
"362 144 LINE",
"380 72 LINE",
"356 72 LINE",
"362 48 LINE",
"273 24 LINE",
"279 0 LINE",
"177 24 LINE",
"171 48 LINE",
"82 24 LINE",
"70 72 LINE",
"94 72 LINE",
"70 167 LINE",
"94 167 LINE",
"82 215 LINE",
"171 239 LINE",
"165 263 LINE",
"189 263 LINE",
"177 310 LINE",
"267 334 LINE",
"285 263 LINE",
"261 263 LINE",
"267 239 LINE",
"177 215 LINE",
"189 167 LINE",
"165 167 LINE",
"177 119 LINE",
"279 96 LINE",
"273 119 LINE"
);
}
);
width = 430;
}
);
note = questiondown;
unicode = 00BF;
},
{
glyphname = periodcentered;
layers = (
{
layerId = "F615FF3B-AC20-4656-A54C-A768163DB377";
paths = (
{
closed = 1;
nodes = (
"122 286 LINE",
"128 262 LINE",
"104 262 LINE",
"122 191 LINE",
"22 214 LINE",
"10 262 LINE",
"33 262 LINE",
"22 309 LINE"
);
}
);
width = 138;
}
);
note = periodcentered;
unicode = 00B7;
},
{
glyphname = bullet;
layers = (
{
layerId = "F615FF3B-AC20-4656-A54C-A768163DB377";
paths = (
{
closed = 1;
nodes = (
"163 190 LINE",
"157 214 LINE",
"258 190 LINE",
"240 262 LINE",
"264 262 LINE",
"246 333 LINE",
"157 309 LINE",
"151 333 LINE",
"62 309 LINE",
"74 262 LINE",
"50 262 LINE",
"62 214 LINE"
);
}
);
width = 314;
}
);
note = bullet;
unicode = 2022;
},
{
glyphname = asterisk;
layers = (
{
layerId = "F615FF3B-AC20-4656-A54C-A768163DB377";
paths = (
{
closed = 1;
nodes = (
"227 334 LINE",
"233 310 LINE",
"322 334 LINE",
"316 358 LINE",
"340 358 LINE",
"322 430 LINE",
"233 406 LINE",
"221 453 LINE",
"245 452 LINE",
"239 476 LINE",
"138 500 LINE",
"149 452 LINE",
"126 453 LINE",
"144 382 LINE",
"42 405 LINE",
"54 358 LINE",
"30 358 LINE",
"42 310 LINE",
"132 334 LINE",
"138 310 LINE"
);
},
{
closed = 1;
nodes = (
"233 310 LINE",
"239 287 LINE",
"138 310 LINE",
"144 287 LINE",
"42 310 LINE",
"54 263 LINE",
"30 263 LINE",
"42 215 LINE",
"132 239 LINE",
"149 167 LINE",
"126 167 LINE",
"138 119 LINE",
"227 143 LINE",
"221 167 LINE",
"245 167 LINE",
"233 215 LINE",
"334 191 LINE",
"316 263 LINE",
"340 263 LINE",
"334 287 LINE"
);
}
);
width = 370;
}
);
note = asterisk;
unicode = 002A;
},
{
glyphname = numbersign;
layers = (
{
layerId = "F615FF3B-AC20-4656-A54C-A768163DB377";
paths = (
{
closed = 1;
nodes = (
"523 143 LINE",
"516 169 LINE",
"540 169 LINE",
"535 191 LINE",
"433 216 LINE",
"421 263 LINE",
"445 263 LINE",
"433 310 LINE",
"523 334 LINE",
"516 358 LINE",
"540 358 LINE",
"534 382 LINE",
"433 406 LINE",
"421 453 LINE",
"445 452 LINE",
"439 476 LINE",
"338 500 LINE",
"349 452 LINE",
"326 453 LINE",
"343 382 LINE",
"243 405 LINE",
"231 453 LINE",
"255 452 LINE",
"249 476 LINE",
"148 500 LINE",
"160 452 LINE",
"136 453 LINE",
"148 405 LINE",
"147 405 LINE",
"153 382 LINE",
"52 405 LINE",
"64 358 LINE",
"40 358 LINE",
"52 310 LINE",
"141 334 LINE",
"160 263 LINE",
"136 263 LINE",
"153 192 LINE",
"52 216 LINE",
"64 169 LINE",
"40 169 LINE",
"52 121 LINE",
"141 145 LINE",
"145 131 LINE",
"160 71 LINE",
"136 71 LINE",
"148 24 LINE",
"249 0 LINE",
"231 71 LINE",
"255 71 LINE",
"243 121 LINE",
"331 145 LINE",
"349 71 LINE",
"326 71 LINE",
"338 24 LINE",
"439 0 LINE",
"421 71 LINE",
"445 71 LINE",
"433 121 LINE"
);
},
{
closed = 1;
nodes = (
"255 263 LINE",
"243 310 LINE",
"332 334 LINE",
"349 263 LINE",
"326 263 LINE",
"343 193 LINE",
"243 216 LINE",
"231 263 LINE"
);
}
);
width = 580;
}
);
note = numbersign;
unicode = 0023;
},
{
glyphname = slash;
layers = (
{
layerId = "F615FF3B-AC20-4656-A54C-A768163DB377";
paths = (
{
closed = 1;
nodes = (
"325 452 LINE",
"349 452 LINE",
"343 476 LINE",
"242 500 LINE",
"254 452 LINE",
"230 452 LINE",
"254 357 LINE",
"230 357 LINE",
"236 333 LINE",
"147 309 LINE",
"159 262 LINE",
"135 262 LINE",
"159 167 LINE",
"135 167 LINE",
"141 143 LINE",
"52 119 LINE",
"64 71 LINE",
"40 71 LINE",
"52 24 LINE",
"153 0 LINE",
"135 71 LINE",
"159 71 LINE",
"147 119 LINE",
"236 143 LINE",
"230 167 LINE",
"254 167 LINE",
"230 262 LINE",
"254 262 LINE",
"242 309 LINE",
"331 333 LINE",
"325 357 LINE",
"349 357 LINE"
);
}
);
width = 389;
}
);
note = slash;
unicode = 002F;
},
{
glyphname = backslash;
layers = (
{
layerId = "F615FF3B-AC20-4656-A54C-A768163DB377";
paths = (
{
closed = 1;
nodes = (
"153 476 LINE",
"159 452 LINE",
"135 452 LINE",
"147 405 LINE",
"248 381 LINE",
"254 357 LINE",
"230 357 LINE",
"254 262 LINE",
"230 262 LINE",
"254 165 LINE",
"230 167 LINE",
"242 119 LINE",
"343 95 LINE",
"349 72 LINE",
"325 71 LINE",
"343 0 LINE",
"242 24 LINE",
"230 71 LINE",
"254 72 LINE",
"248 95 LINE",
"147 119 LINE",
"135 167 LINE",
"159 167 LINE",
"135 262 LINE",
"159 262 LINE",
"135 357 LINE",
"159 357 LINE",
"153 381 LINE",
"51 405 LINE",
"40 452 LINE",
"63 452 LINE",
"51 500 LINE"
);
}
);
width = 389;
}
);
note = backslash;
unicode = 005C;
},
{
glyphname = hyphen;
layers = (
{
layerId = "F615FF3B-AC20-4656-A54C-A768163DB377";
paths = (
{
closed = 1;
nodes = (
"40 261 LINE",
"64 261 LINE",
"52 308 LINE",
"153 285 LINE",
"147 308 LINE",
"248 285 LINE",
"242 308 LINE",
"343 285 LINE",
"349 261 LINE",
"325 261 LINE",
"343 190 LINE",
"242 214 LINE",
"248 190 LINE",
"147 214 LINE",
"153 190 LINE",
"52 214 LINE"
);
}
);
width = 379;
}
);
note = hyphen;
unicode = 002D;
},
{
glyphname = underscore;
layers = (
{
layerId = "F615FF3B-AC20-4656-A54C-A768163DB377";
paths = (
{
closed = 1;
nodes = (
"202 -71 LINE",
"208 -95 LINE",
"107 -71 LINE",
"113 -95 LINE",
"12 -71 LINE",
"0 -24 LINE",
"24 -24 LINE",
"12 24 LINE",
"113 0 LINE",
"107 24 LINE",
"208 0 LINE",
"202 24 LINE",
"303 0 LINE",
"296 24 LINE",
"397 0 LINE",
"403 -24 LINE",
"379 -24 LINE",
"397 -95 LINE",
"296 -71 LINE",
"303 -95 LINE"
);
}
);
width = 403;
}
);
note = underscore;
unicode = 005F;
},
{
glyphname = quotedbl;
layers = (
{
layerId = "F615FF3B-AC20-4656-A54C-A768163DB377";
paths = (
{
closed = 1;
nodes = (
"127 452 LINE",
"150 452 LINE",
"144 476 LINE",
"43 500 LINE",
"55 452 LINE",
"31 452 LINE",
"54 357 LINE",
"30 357 LINE",
"42 310 LINE",
"131 333 LINE",
"125 357 LINE",
"149 357 LINE"
);
},
{
closed = 1;
nodes = (
"319 452 LINE",
"343 452 LINE",
"337 476 LINE",
"236 500 LINE",
"248 452 LINE",
"224 452 LINE",
"247 357 LINE",
"223 357 LINE",
"235 310 LINE",
"324 333 LINE",
"318 357 LINE",
"342 357 LINE"
);
}
);
width = 383;
}
);
note = quotedbl;
unicode = 0022;
},
{
glyphname = quotesingle;
layers = (
{
layerId = "F615FF3B-AC20-4656-A54C-A768163DB377";
paths = (
{
closed = 1;
nodes = (
"126 477 LINE",
"149 477 LINE",
"143 500 LINE",
"43 523 LINE",
"54 477 LINE",
"31 477 LINE",
"53 383 LINE",
"30 382 LINE",
"41 334 LINE",
"130 359 LINE",
"125 382 LINE",
"148 383 LINE"
);
}
);
width = 189;
}
);
note = quotesingle;
unicode = 0027;
},
{
glyphname = uni0308;
layers = (
{
layerId = "F615FF3B-AC20-4656-A54C-A768163DB377";
paths = (
{
closed = 1;
nodes = (
"-349 453 LINE",
"-325 453 LINE",
"-337 500 LINE",
"-236 476 LINE",
"-230 453 LINE",
"-254 453 LINE",
"-236 381 LINE",
"-337 405 LINE"
);
},
{
closed = 1;
nodes = (
"-46 381 LINE",
"-64 453 LINE",
"-40 453 LINE",
"-46 476 LINE",
"-147 500 LINE",
"-135 453 LINE",
"-159 453 LINE",
"-147 405 LINE"
);
}
);
width = 0;
}
);
note = uni0308;
unicode = 0308;
},
{
glyphname = uni0307;
layers = (
{
layerId = "F615FF3B-AC20-4656-A54C-A768163DB377";
paths = (
{
closed = 1;
nodes = (
"-159 453 LINE",
"-135 453 LINE",
"-147 500 LINE",
"-46 476 LINE",
"-40 453 LINE",
"-64 453 LINE",
"-46 381 LINE",
"-147 405 LINE"
);
}
);
width = 0;
}
);
note = uni0307;
unicode = 0307;
},
{
glyphname = gravecomb;
layers = (
{
layerId = "F615FF3B-AC20-4656-A54C-A768163DB377";
paths = (
{
closed = 1;
nodes = (
"-254 452 LINE",
"-230 453 LINE",
"-242 500 LINE",
"-141 476 LINE",
"-135 453 LINE",
"-159 452 LINE",
"-147 405 LINE",
"-46 381 LINE",
"-40 357 LINE",
"-64 357 LINE",
"-46 286 LINE",
"-147 310 LINE",
"-159 357 LINE",
"-135 357 LINE",
"-141 381 LINE",
"-242 405 LINE"
);
}
);
width = 0;
}
);
note = gravecomb;
unicode = 0300;
},
{
glyphname = acutecomb;
layers = (
{
layerId = "F615FF3B-AC20-4656-A54C-A768163DB377";
paths = (
{
closed = 1;
nodes = (
"-152 334 LINE",
"-158 357 LINE",
"-135 357 LINE",
"-146 405 LINE",
"-57 429 LINE",
"-63 452 LINE",
"-40 452 LINE",
"-46 476 LINE",
"-146 500 LINE",
"-135 452 LINE",
"-158 452 LINE",
"-152 429 LINE",
"-242 405 LINE",
"-230 357 LINE",
"-253 357 LINE",
"-242 310 LINE"
);
}
);
width = 0;
}
);
note = acutecomb;
unicode = 0301;
},
{
glyphname = uni0302;
layers = (
{
layerId = "F615FF3B-AC20-4656-A54C-A768163DB377";
paths = (
{
closed = 1;
nodes = (
"-248 333 LINE",
"-254 357 LINE",
"-231 357 LINE",
"-242 405 LINE",
"-141 381 LINE",
"-135 357 LINE",
"-159 357 LINE",
"-147 309 LINE",
"-58 333 LINE",
"-64 357 LINE",
"-40 357 LINE",
"-58 429 LINE",
"-147 405 LINE",
"-159 452 LINE",
"-135 452 LINE",
"-141 476 LINE",
"-242 500 LINE",
"-231 452 LINE",
"-254 452 LINE",
"-248 429 LINE",
"-338 405 LINE",
"-326 357 LINE",
"-350 357 LINE",
"-338 309 LINE"
);
}
);
width = 0;
}
);
note = uni0302;
unicode = 0302;
},
{
glyphname = tildecomb;
layers = (
{
layerId = "F615FF3B-AC20-4656-A54C-A768163DB377";
paths = (
{
closed = 1;
nodes = (
"-237 477 LINE",
"-231 453 LINE",
"-255 453 LINE",
"-243 405 LINE",
"-153 429 LINE",
"-159 453 LINE",
"-135 453 LINE",
"-147 500 LINE",
"-46 477 LINE",
"-40 453 LINE",
"-64 453 LINE",
"-46 381 LINE",
"-147 405 LINE",
"-135 357 LINE",
"-159 357 LINE",
"-153 334 LINE",
"-243 310 LINE",
"-255 357 LINE",
"-231 357 LINE",
"-237 381 LINE",
"-338 405 LINE",
"-350 453 LINE",
"-326 453 LINE",
"-338 500 LINE"
);
}
);
width = 0;
}
);
note = tildecomb;
unicode = 0303;
},
{
glyphname = uni0327;
layers = (
{
layerId = "F615FF3B-AC20-4656-A54C-A768163DB377";
paths = (
{
closed = 1;
nodes = (
"-148 214 LINE",
"-47 190 LINE",
"-41 166 LINE",
"-64 166 LINE",
"-40 71 LINE",
"-64 71 LINE",
"-58 48 LINE",
"-148 24 LINE",
"-142 0 LINE",
"-243 24 LINE",
"-255 71 LINE",
"-231 71 LINE",
"-243 118 LINE",
"-142 95 LINE",
"-160 166 LINE",
"-136 166 LINE"
);
}
);
width = 0;
}
);
note = uni0327;
unicode = 0327;
},
{
glyphname = A_E;
lastChange = "2022-04-21 15:31:41 +0000";
layers = (
{
layerId = "F615FF3B-AC20-4656-A54C-A768163DB377";
paths = (
{
closed = 1;
nodes = (
"620 119 LINE",
"625 95 LINE",
"525 119 LINE",
"532 95 LINE",
"431 119 LINE",
"420 166 LINE",
"441 166 LINE",
"431 214 LINE",
"532 191 LINE",
"525 214 LINE",
"625 191 LINE",
"609 261 LINE",
"632 261 LINE",
"625 286 LINE",
"525 309 LINE",
"532 286 LINE",
"431 309 LINE",
"418 356 LINE",
"441 356 LINE",
"431 405 LINE",
"532 380 LINE",
"525 403 LINE",
"625 380 LINE",
"620 405 LINE",
"721 380 LINE",
"702 452 LINE",
"727 452 LINE",
"721 477 LINE",
"620 500 LINE",
"625 477 LINE",
"525 500 LINE",
"532 477 LINE",
"430 500 LINE",
"436 477 LINE",
"336 500 LINE",
"341 475 LINE",
"241 500 LINE",
"247 475 LINE",
"145 500 LINE",
"152 475 LINE",
"52 500 LINE",
"63 452 LINE",
"40 452 LINE",
"63 358 LINE",
"40 358 LINE",
"63 263 LINE",
"40 263 LINE",
"63 167 LINE",
"40 167 LINE",
"63 74 LINE",
"40 74 LINE",
"52 25 LINE",
"152 2 LINE",
"134 74 LINE",
"157 74 LINE",
"134 167 LINE",
"157 167 LINE",
"145 214 LINE",
"247 191 LINE",
"241 214 LINE",
"341 191 LINE",
"348 167 LINE",
"324 167 LINE",
"348 74 LINE",
"324 74 LINE",
"336 23 LINE",
"436 0 LINE",
"431 23 LINE",
"532 0 LINE",
"525 23 LINE",
"625 0 LINE",
"620 23 LINE",
"709 47 LINE",
"702 72 LINE",
"727 72 LINE",
"709 142 LINE"
);
},
{
closed = 1;
nodes = (
"134 358 LINE",
"157 358 LINE",
"145 405 LINE",
"234 428 LINE",
"241 405 LINE",
"329 428 LINE",
"348 358 LINE",
"324 358 LINE",
"341 286 LINE",
"241 309 LINE",
"247 286 LINE",
"145 309 LINE"
);
}
);
width = 767;
}
);
unicode = F1010;
},
{
glyphname = A_L;
lastChange = "2022-04-20 13:28:04 +0000";
layers = (
{
layerId = "F615FF3B-AC20-4656-A54C-A768163DB377";
paths = (
{
closed = 1;
nodes = (
"730 72 LINE",
"712 143 LINE",
"623 119 LINE",
"629 95 LINE",
"528 119 LINE",
"534 95 LINE",
"433 119 LINE",
"421 167 LINE",
"445 167 LINE",
"421 262 LINE",
"445 261 LINE",
"421 357 LINE",
"445 357 LINE",
"421 452 LINE",
"445 452 LINE",
"439 476 LINE",
"337 500 LINE",
"343 476 LINE",
"242 500 LINE",
"248 476 LINE",
"147 500 LINE",
"153 476 LINE",
"52 500 LINE",
"64 452 LINE",
"40 452 LINE",
"64 357 LINE",
"40 357 LINE",
"64 261 LINE",
"40 262 LINE",
"64 167 LINE",
"40 167 LINE",
"64 72 LINE",
"40 72 LINE",
"52 24 LINE",
"153 0 LINE",
"135 72 LINE",
"159 72 LINE",
"135 167 LINE",
"159 167 LINE",
"147 215 LINE",
"248 191 LINE",
"242 215 LINE",
"343 191 LINE",
"349 167 LINE",
"325 167 LINE",
"349 72 LINE",
"325 72 LINE",
"337 24 LINE",
"439 0 LINE",
"433 24 LINE",
"534 0 LINE",
"528 22 LINE",
"629 0 LINE",
"623 24 LINE",
"724 0 LINE",
"706 72 LINE"
);
},
{
closed = 1;
nodes = (
"343 286 LINE",
"242 309 LINE",
"248 286 LINE",
"147 309 LINE",
"135 357 LINE",
"159 357 LINE",
"147 405 LINE",
"236 428 LINE",
"242 405 LINE",
"331 428 LINE",
"349 357 LINE",
"325 357 LINE"
);
}
);
width = 770;
}
);
unicode = F1020;
},
{
glyphname = A_O;
lastChange = "2022-04-21 15:33:41 +0000";
layers = (
{
layerId = "F615FF3B-AC20-4656-A54C-A768163DB377";
paths = (
{
closed = 1;
nodes = (
"731 357 LINE",
"707 452 LINE",
"731 452 LINE",
"725 476 LINE",
"624 500 LINE",
"630 476 LINE",
"528 500 LINE",
"534 476 LINE",
"433 500 LINE",
"439 476 LINE",
"338 500 LINE",
"344 476 LINE",
"242 500 LINE",
"248 476 LINE",
"147 500 LINE",
"153 476 LINE",
"52 500 LINE",
"64 452 LINE",
"40 452 LINE",
"64 357 LINE",
"40 357 LINE",
"64 262 LINE",
"40 263 LINE",
"64 166 LINE",
"40 166 LINE",
"64 71 LINE",
"40 71 LINE",
"52 23 LINE",
"153 0 LINE",
"135 71 LINE",
"159 71 LINE",
"135 166 LINE",
"159 166 LINE",
"147 214 LINE",
"248 190 LINE",
"242 214 LINE",
"344 190 LINE",
"350 165 LINE",
"326 166 LINE",
"350 71 LINE",
"326 71 LINE",
"338 23 LINE",
"439 0 LINE",
"433 23 LINE",
"534 0 LINE",
"528 23 LINE",
"618 47 LINE",
"612 71 LINE",
"636 71 LINE",
"624 119 LINE",
"713 142 LINE",
"707 166 LINE",
"731 166 LINE",
"707 263 LINE",
"731 262 LINE",
"707 357 LINE"
);
},
{
closed = 1;
nodes = (
"242 309 LINE",
"248 286 LINE",
"147 309 LINE",
"135 357 LINE",
"159 357 LINE",
"147 405 LINE",
"236 429 LINE",
"242 405 LINE",
"332 429 LINE",
"350 357 LINE",
"326 357 LINE",
"344 286 LINE"
);
},
{
closed = 1;
nodes = (
"612 263 LINE",
"636 166 LINE",
"612 166 LINE",
"618 142 LINE",
"528 119 LINE",
"534 95 LINE",
"433 119 LINE",
"421 166 LINE",
"445 166 LINE",
"421 263 LINE",
"445 262 LINE",
"421 357 LINE",
"445 357 LINE",
"433 405 LINE",
"523 429 LINE",
"528 405 LINE",
"618 429 LINE",
"636 357 LINE",
"612 357 LINE",
"636 262 LINE"
);
}
);
width = 781;
}
);
unicode = F1030;
},
{
glyphname = C_H;
lastChange = "2022-04-21 15:33:51 +0000";
layers = (
{
layerId = "F615FF3B-AC20-4656-A54C-A768163DB377";
paths = (
{
closed = 1;
nodes = (
"336 357 LINE",
"359 261 LINE",
"336 262 LINE",
"348 214 LINE",
"449 191 LINE",
"431 262 LINE",
"455 261 LINE",
"443 309 LINE",
"532 333 LINE",
"551 261 LINE",
"526 262 LINE",
"538 214 LINE",
"640 191 LINE",
"622 262 LINE",
"646 261 LINE",
"622 357 LINE",
"646 357 LINE",
"622 452 LINE",
"646 452 LINE",
"640 476 LINE",
"538 500 LINE",
"551 452 LINE",
"526 452 LINE",
"544 381 LINE",
"443 405 LINE",
"431 452 LINE",
"455 452 LINE",
"449 476 LINE",
"348 500 LINE",
"354 476 LINE",
"252 500 LINE",
"258 476 LINE",
"157 500 LINE",
"163 476 LINE",
"62 500 LINE",
"74 452 LINE",
"50 452 LINE",
"74 357 LINE",
"50 357 LINE",
"74 261 LINE",
"50 261 LINE",
"74 166 LINE",
"50 167 LINE",
"74 72 LINE",
"50 72 LINE",
"62 24 LINE",
"151 48 LINE",
"157 24 LINE",
"258 0 LINE",
"252 24 LINE",
"354 0 LINE",
"348 24 LINE",
"449 0 LINE",
"431 71 LINE",
"455 72 LINE",
"449 95 LINE",
"348 119 LINE",
"354 95 LINE",
"252 119 LINE",
"258 95 LINE",
"157 119 LINE",
"145 167 LINE",
"169 166 LINE",
"145 261 LINE",
"169 261 LINE",
"145 357 LINE",
"169 357 LINE",
"157 405 LINE",
"258 381 LINE",
"252 405 LINE",
"342 428 LINE",
"359 357 LINE"
);
}
);
width = 686;
}
);
unicode = F1410;
},
{
glyphname = C_H_E;
lastChange = "2022-04-21 15:43:01 +0000";
layers = (
{
layerId = "F615FF3B-AC20-4656-A54C-A768163DB377";
paths = (
{
closed = 1;
nodes = (
"537 215 LINE",
"524 259 LINE",
"550 259 LINE",
"531 330 LINE",
"442 310 LINE",
"455 259 LINE",
"430 259 LINE",
"448 190 LINE",
"347 215 LINE",
"335 259 LINE",
"360 259 LINE",
"335 354 LINE",
"360 354 LINE",
"341 431 LINE",
"252 405 LINE",
"258 380 LINE",
"157 405 LINE",
"170 354 LINE",
"145 354 LINE",
"170 259 LINE",
"145 259 LINE",
"170 164 LINE",
"145 164 LINE",
"157 120 LINE",
"258 95 LINE",
"252 120 LINE",
"353 95 LINE",
"347 120 LINE",
"448 95 LINE",
"455 69 LINE",
"430 69 LINE",
"448 0 LINE",
"347 19 LINE",
"353 0 LINE",
"252 19 LINE",
"258 0 LINE",
"157 26 LINE",
"151 44 LINE",
"62 26 LINE",
"50 69 LINE",
"76 69 LINE",
"50 164 LINE",
"76 164 LINE",
"50 259 LINE",
"76 259 LINE",
"50 354 LINE",
"76 354 LINE",
"50 449 LINE",
"76 449 LINE",
"62 500 LINE",
"163 474 LINE",
"157 500 LINE",
"258 474 LINE",
"252 500 LINE",
"353 474 LINE",
"347 500 LINE",
"448 474 LINE",
"455 449 LINE",
"430 449 LINE",
"442 405 LINE",
"543 380 LINE",
"524 449 LINE",
"550 449 LINE",
"537 500 LINE",
"639 474 LINE",
"632 500 LINE",
"740 474 LINE",
"734 500 LINE",
"835 474 LINE",
"841 449 LINE",
"815 449 LINE",
"835 380 LINE",
"734 405 LINE",
"727 424 LINE",
"632 405 LINE",
"740 380 LINE",
"740 354 LINE",
"720 354 LINE",
"727 330 LINE",
"632 310 LINE",
"740 285 LINE",
"734 310 LINE",
"821 330 LINE",
"841 259 LINE",
"815 259 LINE",
"821 235 LINE",
"734 215 LINE",
"740 190 LINE",
"632 215 LINE",
"639 190 LINE"
);
}
);
width = 891;
}
);
unicode = F1420;
},
{
glyphname = C_Q;
lastChange = "2022-04-20 13:44:00 +0000";
layers = (
{
layerId = "F615FF3B-AC20-4656-A54C-A768163DB377";
paths = (
{
closed = 1;
nodes = (
"349 213 LINE",
"354 189 LINE",
"360 167 LINE",
"336 167 LINE",
"354 95 LINE",
"253 118 LINE",
"258 95 LINE",
"157 118 LINE",
"146 167 LINE",
"169 166 LINE",
"146 261 LINE",
"169 261 LINE",
"146 357 LINE",
"169 357 LINE",
"157 404 LINE",
"247 428 LINE",
"253 404 LINE",
"342 428 LINE",
"349 404 LINE",
"450 381 LINE",
"433 453 LINE",
"456 452 LINE",
"450 476 LINE",
"349 500 LINE",
"354 476 LINE",
"253 500 LINE",
"258 476 LINE",
"157 500 LINE",
"163 476 LINE",
"62 500 LINE",
"74 452 LINE",
"50 453 LINE",
"74 357 LINE",
"50 357 LINE",
"74 261 LINE",
"50 261 LINE",
"74 166 LINE",
"50 167 LINE",
"74 71 LINE",
"50 71 LINE",
"62 24 LINE",
"151 47 LINE",
"157 24 LINE",
"258 0 LINE",
"253 24 LINE",
"354 0 LINE",
"349 24 LINE",
"438 46 LINE",
"444 22 LINE",
"534 46 LINE",
"527 70 LINE",
"552 70 LINE",
"534 142 LINE",
"444 118 LINE",
"433 166 LINE",
"456 166 LINE",
"438 237 LINE"
);
}
);
width = 572;
}
);
unicode = F1440;
},
{
glyphname = D_E;
lastChange = "2022-04-21 15:34:44 +0000";
layers = (
{
layerId = "F615FF3B-AC20-4656-A54C-A768163DB377";
paths = (
{
closed = 1;
nodes = (
"548 119 LINE",
"554 95 LINE",
"453 119 LINE",
"542 145 LINE",
"535 164 LINE",
"560 164 LINE",
"554 190 LINE",
"453 214 LINE",
"542 240 LINE",
"548 214 LINE",
"650 190 LINE",
"630 259 LINE",
"656 259 LINE",
"650 284 LINE",
"548 310 LINE",
"554 284 LINE",
"453 310 LINE",
"441 355 LINE",
"465 355 LINE",
"459 379 LINE",
"358 405 LINE",
"346 450 LINE",
"370 456 LINE",
"364 474 LINE",
"263 500 LINE",
"269 474 LINE",
"161 500 LINE",
"167 474 LINE",
"66 500 LINE",
"78 456 LINE",
"60 450 LINE",
"78 355 LINE",
"60 355 LINE",
"78 259 LINE",
"60 259 LINE",
"78 164 LINE",
"60 164 LINE",
"78 69 LINE",
"60 69 LINE",
"66 25 LINE",
"161 44 LINE",
"161 25 LINE",
"269 0 LINE",
"263 25 LINE",
"364 0 LINE",
"358 25 LINE",
"447 44 LINE",
"453 25 LINE",
"554 0 LINE",
"548 25 LINE",
"636 50 LINE",
"630 69 LINE",
"656 69 LINE",
"636 145 LINE"
);
},
{
closed = 1;
nodes = (
"346 259 LINE",
"370 164 LINE",
"346 164 LINE",
"364 95 LINE",
"263 119 LINE",
"269 95 LINE",
"161 119 LINE",
"155 164 LINE",
"175 164 LINE",
"155 259 LINE",
"175 259 LINE",
"155 355 LINE",
"175 355 LINE",
"161 405 LINE",
"269 379 LINE",
"263 405 LINE",
"364 379 LINE",
"370 355 LINE",
"346 355 LINE",
"370 259 LINE"
);
}
);
width = 696;
}
);
unicode = F1610;
},
{
glyphname = E_A;
lastChange = "2022-06-08 22:00:01 +0000";
layers = (
{
layerId = "F615FF3B-AC20-4656-A54C-A768163DB377";
paths = (
{
closed = 1;
nodes = (
"749 453 LINE",
"743 476 LINE",
"642 500 LINE",
"648 476 LINE",
"547 500 LINE",
"553 476 LINE",
"452 500 LINE",
"458 476 LINE",
"357 500 LINE",
"363 476 LINE",
"262 500 LINE",
"268 476 LINE",
"167 500 LINE",
"173 476 LINE",
"72 500 LINE",
"84 453 LINE",
"60 453 LINE",
"84 358 LINE",
"60 357 LINE",
"84 262 LINE",
"60 262 LINE",
"84 167 LINE",
"60 167 LINE",
"84 72 LINE",
"60 72 LINE",
"72 24 LINE",
"173 0 LINE",
"167 24 LINE",
"268 0 LINE",
"262 24 LINE",
"363 0 LINE",
"357 24 LINE",
"458 0 LINE",
"440 71 LINE",
"464 72 LINE",
"446 143 LINE",
"357 119 LINE",
"363 96 LINE",
"262 119 LINE",
"268 96 LINE",
"167 119 LINE",
"155 167 LINE",
"179 167 LINE",
"167 214 LINE",
"268 191 LINE",
"262 214 LINE",
"363 191 LINE",
"357 214 LINE",
"458 190 LINE",
"452 214 LINE",
"553 191 LINE",
"547 214 LINE",
"648 191 LINE",
"654 167 LINE",
"630 167 LINE",
"654 72 LINE",
"630 71 LINE",
"642 24 LINE",
"743 0 LINE",
"725 71 LINE",
"749 72 LINE",
"725 167 LINE",
"749 167 LINE",
"725 262 LINE",
"749 262 LINE",
"725 357 LINE",
"749 358 LINE",
"725 453 LINE"
);
},
{
closed = 1;
nodes = (
"648 286 LINE",
"547 310 LINE",
"553 286 LINE",
"452 310 LINE",
"446 334 LINE",
"357 310 LINE",
"363 286 LINE",
"262 310 LINE",
"268 286 LINE",
"167 310 LINE",
"155 357 LINE",
"179 358 LINE",
"167 405 LINE",
"268 381 LINE",
"262 405 LINE",
"363 381 LINE",
"357 405 LINE",
"458 381 LINE",
"452 405 LINE",
"541 429 LINE",
"547 405 LINE",
"636 429 LINE",
"654 358 LINE",
"630 357 LINE"
);
}
);
width = 789;
}
);
unicode = F1810;
},
{
glyphname = E_O;
lastChange = "2022-04-21 15:34:54 +0000";
layers = (
{
layerId = "F615FF3B-AC20-4656-A54C-A768163DB377";
paths = (
{
closed = 1;
nodes = (
"742 450 LINE",
"735 475 LINE",
"635 500 LINE",
"641 475 LINE",
"541 500 LINE",
"547 475 LINE",
"448 500 LINE",
"454 475 LINE",
"354 500 LINE",
"360 475 LINE",
"260 500 LINE",
"266 475 LINE",
"166 500 LINE",
"166 475 LINE",
"66 500 LINE",
"79 450 LINE",
"60 450 LINE",
"79 356 LINE",
"60 356 LINE",
"79 263 LINE",
"60 263 LINE",
"79 169 LINE",
"60 169 LINE",
"79 75 LINE",
"60 75 LINE",
"66 25 LINE",
"166 0 LINE",
"166 25 LINE",
"266 0 LINE",
"260 25 LINE",
"360 0 LINE",
"354 25 LINE",
"441 50 LINE",
"448 25 LINE",
"547 0 LINE",
"541 25 LINE",
"628 50 LINE",
"623 75 LINE",
"647 75 LINE",
"635 119 LINE",
"723 144 LINE",
"717 169 LINE",
"742 169 LINE",
"717 263 LINE",
"742 263 LINE",
"717 356 LINE",
"742 356 LINE",
"717 450 LINE"
);
},
{
closed = 1;
nodes = (
"342 263 LINE",
"367 169 LINE",
"342 169 LINE",
"360 93 LINE",
"260 119 LINE",
"266 93 LINE",
"166 119 LINE",
"154 169 LINE",
"172 169 LINE",
"166 212 LINE",
"266 193 LINE",
"248 263 LINE",
"266 263 LINE",
"266 288 LINE",
"166 307 LINE",
"154 356 LINE",
"172 356 LINE",
"166 400 LINE",
"266 381 LINE",
"260 400 LINE",
"342 425 LINE",
"367 356 LINE",
"342 356 LINE",
"367 263 LINE"
);
},
{
closed = 1;
nodes = (
"623 263 LINE",
"647 169 LINE",
"623 169 LINE",
"628 144 LINE",
"541 119 LINE",
"547 93 LINE",
"448 119 LINE",
"435 169 LINE",
"460 169 LINE",
"435 263 LINE",
"460 263 LINE",
"435 356 LINE",
"460 356 LINE",
"448 400 LINE",
"547 381 LINE",
"541 400 LINE",
"628 425 LINE",
"647 356 LINE",
"623 356 LINE",
"647 263 LINE"
);
}
);
width = 792;
}
);
unicode = F1840;
},
{
glyphname = E_S;
lastChange = "2022-04-21 15:35:06 +0000";
layers = (
{
layerId = "F615FF3B-AC20-4656-A54C-A768163DB377";
paths = (
{
closed = 1;
nodes = (
"641 311 LINE",
"648 286 LINE",
"547 310 LINE",
"553 286 LINE",
"452 310 LINE",
"440 357 LINE",
"464 358 LINE",
"452 405 LINE",
"540 429 LINE",
"547 405 LINE",
"636 429 LINE",
"641 406 LINE",
"742 383 LINE",
"724 454 LINE",
"748 454 LINE",
"742 477 LINE",
"641 500 LINE",
"648 476 LINE",
"547 500 LINE",
"553 476 LINE",
"452 500 LINE",
"458 476 LINE",
"357 500 LINE",
"363 477 LINE",
"262 500 LINE",
"268 477 LINE",
"168 500 LINE",
"174 477 LINE",
"72 500 LINE",
"84 453 LINE",
"60 453 LINE",
"84 358 LINE",
"60 357 LINE",
"84 263 LINE",
"60 262 LINE",
"84 167 LINE",
"60 166 LINE",
"84 71 LINE",
"60 71 LINE",
"72 24 LINE",
"174 0 LINE",
"168 24 LINE",
"268 0 LINE",
"262 24 LINE",
"363 0 LINE",
"357 24 LINE",
"446 47 LINE",
"452 24 LINE",
"553 0 LINE",
"547 24 LINE",
"648 0 LINE",
"641 25 LINE",
"742 1 LINE",
"724 72 LINE",
"748 72 LINE",
"724 167 LINE",
"748 168 LINE",
"724 263 LINE",
"748 264 LINE",
"742 287 LINE"
);
},
{
closed = 1;
nodes = (
"547 118 LINE",
"553 95 LINE",
"452 118 LINE",
"446 142 LINE",
"357 118 LINE",
"363 95 LINE",
"262 118 LINE",
"268 95 LINE",
"168 118 LINE",
"155 166 LINE",
"180 167 LINE",
"168 215 LINE",
"268 191 LINE",
"251 262 LINE",
"274 263 LINE",
"268 286 LINE",
"168 310 LINE",
"155 357 LINE",
"180 358 LINE",
"168 405 LINE",
"268 382 LINE",
"262 405 LINE",
"363 382 LINE",
"369 358 LINE",
"345 357 LINE",
"369 263 LINE",
"345 262 LINE",
"357 215 LINE",
"446 239 LINE",
"452 215 LINE",
"540 239 LINE",
"547 215 LINE",
"636 239 LINE",
"654 167 LINE",
"630 166 LINE",
"648 95 LINE"
);
}
);
width = 793;
}
);
unicode = F1850;
},
{
glyphname = E_S_S_E;
lastChange = "2022-04-21 15:35:16 +0000";
layers = (
{
layerId = "F615FF3B-AC20-4656-A54C-A768163DB377";
paths = (
{
closed = 1;
nodes = (
"1118 0 LINE",
"1017 24 LINE",
"1023 0 LINE",
"923 24 LINE",
"917 47 LINE",
"828 24 LINE",
"816 71 LINE",
"840 71 LINE",
"828 118 LINE",
"917 142 LINE",
"923 118 LINE",
"1023 95 LINE",
"1017 118 LINE",
"1118 95 LINE",
"1100 166 LINE",
"1124 167 LINE",
"1106 238 LINE",
"1017 214 LINE",
"1011 238 LINE",
"923 214 LINE",
"917 238 LINE",
"828 214 LINE",
"816 262 LINE",
"840 262 LINE",
"816 357 LINE",
"840 357 LINE",
"816 453 LINE",
"840 453 LINE",
"828 500 LINE",
"928 477 LINE",
"923 500 LINE",
"1023 476 LINE",
"1017 500 LINE",
"1118 476 LINE",
"1112 500 LINE",
"1213 476 LINE",
"1218 452 LINE",
"1195 452 LINE",
"1213 381 LINE",
"1112 404 LINE",
"1106 428 LINE",
"1017 404 LINE",
"1011 428 LINE",
"923 404 LINE",
"934 357 LINE",
"911 357 LINE",
"923 309 LINE",
"1023 286 LINE",
"1017 309 LINE",
"1118 286 LINE",
"1112 309 LINE",
"1213 286 LINE",
"1206 309 LINE",
"1307 285 LINE",
"1301 309 LINE",
"1402 285 LINE",
"1408 262 LINE",
"1384 261 LINE",
"1402 191 LINE",
"1301 214 LINE",
"1295 238 LINE",
"1206 214 LINE",
"1307 191 LINE",
"1313 167 LINE",
"1289 166 LINE",
"1295 142 LINE",
"1206 118 LINE",
"1307 95 LINE",
"1301 118 LINE",
"1390 142 LINE",
"1408 71 LINE",
"1384 71 LINE",
"1390 47 LINE",
"1301 24 LINE",
"1307 0 LINE",
"1206 24 LINE",
"1213 0 LINE",
"1112 24 LINE"
);
},
{
closed = 1;
nodes = (
"638 310 LINE",
"645 285 LINE",
"545 309 LINE",
"550 285 LINE",
"450 309 LINE",
"438 356 LINE",
"462 357 LINE",
"450 404 LINE",
"538 428 LINE",
"545 404 LINE",
"633 428 LINE",
"638 405 LINE",
"739 382 LINE",
"721 453 LINE",
"745 453 LINE",
"739 476 LINE",
"638 500 LINE",
"645 475 LINE",
"545 500 LINE",
"550 475 LINE",
"450 500 LINE",
"456 475 LINE",
"355 500 LINE",
"361 476 LINE",
"260 500 LINE",
"266 476 LINE",
"167 500 LINE",
"173 476 LINE",
"72 500 LINE",
"84 452 LINE",
"60 452 LINE",
"84 357 LINE",
"60 356 LINE",
"84 262 LINE",
"60 261 LINE",
"84 167 LINE",
"60 166 LINE",
"84 71 LINE",
"60 71 LINE",
"72 24 LINE",
"173 0 LINE",
"167 24 LINE",
"266 0 LINE",
"260 24 LINE",
"361 0 LINE",
"355 24 LINE",
"444 47 LINE",
"450 24 LINE",
"550 0 LINE",
"545 24 LINE",
"645 0 LINE",
"638 25 LINE",
"739 0 LINE",
"721 72 LINE",
"745 72 LINE",
"721 167 LINE",
"745 168 LINE",
"721 262 LINE",
"745 263 LINE",
"739 286 LINE"
);
},
{
closed = 1;
nodes = (
"545 118 LINE",
"550 95 LINE",
"450 118 LINE",
"444 142 LINE",
"355 118 LINE",
"361 95 LINE",
"260 118 LINE",
"266 95 LINE",
"167 118 LINE",
"155 166 LINE",
"178 167 LINE",
"167 214 LINE",
"266 191 LINE",
"249 261 LINE",
"272 262 LINE",
"266 285 LINE",
"167 309 LINE",
"155 356 LINE",
"178 357 LINE",
"167 404 LINE",
"266 381 LINE",
"260 404 LINE",
"361 381 LINE",
"367 357 LINE",
"343 356 LINE",
"367 262 LINE",
"343 261 LINE",
"355 214 LINE",
"444 238 LINE",
"450 214 LINE",
"538 238 LINE",
"545 214 LINE",
"633 238 LINE",
"651 167 LINE",
"627 166 LINE",
"645 95 LINE"
);
}
);
width = 1448;
}
);
unicode = F18C0;
},
{
glyphname = E_S_S_E_S;
lastChange = "2022-04-22 09:03:12 +0000";
layers = (
{
layerId = "F615FF3B-AC20-4656-A54C-A768163DB377";
paths = (
{
closed = 1;
nodes = (
"1580 49 LINE",
"1586 25 LINE",
"1687 1 LINE",
"1681 25 LINE",
"1781 1 LINE",
"1776 25 LINE",
"1864 49 LINE",
"1858 72 LINE",
"1882 72 LINE",
"1858 167 LINE",
"1882 168 LINE",
"1858 262 LINE",
"1882 263 LINE",
"1876 286 LINE",
"1776 310 LINE",
"1781 286 LINE",
"1681 310 LINE",
"1687 286 LINE",
"1586 310 LINE",
"1574 357 LINE",
"1598 358 LINE",
"1586 405 LINE",
"1675 429 LINE",
"1681 405 LINE",
"1770 429 LINE",
"1776 405 LINE",
"1876 382 LINE",
"1858 453 LINE",
"1882 453 LINE",
"1876 476 LINE",
"1776 500 LINE",
"1781 476 LINE",
"1681 500 LINE",
"1687 476 LINE",
"1586 500 LINE",
"1592 476 LINE",
"1492 500 LINE",
"1503 453 LINE",
"1480 453 LINE",
"1503 358 LINE",
"1480 357 LINE",
"1503 263 LINE",
"1480 262 LINE",
"1492 215 LINE",
"1580 239 LINE",
"1586 215 LINE",
"1675 239 LINE",
"1681 215 LINE",
"1770 239 LINE",
"1787 168 LINE",
"1764 167 LINE",
"1781 96 LINE",
"1681 119 LINE",
"1687 96 LINE",
"1586 119 LINE",
"1580 143 LINE",
"1492 119 LINE",
"1486 143 LINE",
"1397 119 LINE",
"1391 142 LINE",
"1302 118 LINE",
"1308 95 LINE",
"1208 118 LINE",
"1296 142 LINE",
"1290 166 LINE",
"1314 167 LINE",
"1308 191 LINE",
"1208 214 LINE",
"1296 238 LINE",
"1302 214 LINE",
"1403 191 LINE",
"1385 261 LINE",
"1409 262 LINE",
"1403 285 LINE",
"1302 309 LINE",
"1308 285 LINE",
"1208 309 LINE",
"1214 286 LINE",
"1113 309 LINE",
"1119 286 LINE",
"1018 309 LINE",
"1024 286 LINE",
"924 309 LINE",
"912 357 LINE",
"936 357 LINE",
"924 404 LINE",
"1012 428 LINE",
"1018 404 LINE",
"1107 428 LINE",
"1113 404 LINE",
"1214 381 LINE",
"1196 452 LINE",
"1220 452 LINE",
"1214 476 LINE",
"1113 499 LINE",
"1119 476 LINE",
"1018 499 LINE",
"1024 476 LINE",
"924 499 LINE",
"929 477 LINE",
"829 500 LINE",
"841 453 LINE",
"817 453 LINE",
"841 357 LINE",
"817 357 LINE",
"841 262 LINE",
"817 262 LINE",
"829 214 LINE",
"918 238 LINE",
"924 214 LINE",
"1012 238 LINE",
"1018 214 LINE",
"1107 238 LINE",
"1125 167 LINE",
"1101 166 LINE",
"1119 95 LINE",
"1018 118 LINE",
"1024 95 LINE",
"924 118 LINE",
"918 142 LINE",
"829 118 LINE",
"841 71 LINE",
"817 71 LINE",
"829 24 LINE",
"918 47 LINE",
"924 24 LINE",
"1024 0 LINE",
"1018 24 LINE",
"1119 0 LINE",
"1113 24 LINE",
"1214 0 LINE",
"1208 24 LINE",
"1308 0 LINE",
"1302 24 LINE",
"1391 47 LINE",
"1397 25 LINE",
"1486 48 LINE",
"1492 25 LINE"
);
},
{
closed = 1;
nodes = (
"640 310 LINE",
"646 285 LINE",
"546 309 LINE",
"551 285 LINE",
"451 309 LINE",
"439 356 LINE",
"463 357 LINE",
"451 404 LINE",
"540 428 LINE",
"546 404 LINE",
"634 428 LINE",
"640 405 LINE",
"740 382 LINE",
"722 453 LINE",
"746 453 LINE",
"740 476 LINE",
"640 500 LINE",
"646 475 LINE",
"546 499 LINE",
"551 475 LINE",
"451 499 LINE",
"457 475 LINE",
"356 499 LINE",
"362 476 LINE",
"262 499 LINE",
"267 476 LINE",
"167 499 LINE",
"173 476 LINE",
"72 499 LINE",
"84 452 LINE",
"60 452 LINE",
"84 357 LINE",
"60 356 LINE",
"84 262 LINE",
"60 261 LINE",
"84 167 LINE",
"60 166 LINE",
"84 71 LINE",
"60 71 LINE",
"72 24 LINE",
"173 0 LINE",
"167 24 LINE",
"267 0 LINE",
"262 24 LINE",
"362 0 LINE",
"356 24 LINE",
"445 47 LINE",
"451 24 LINE",
"551 0 LINE",
"546 24 LINE",
"646 0 LINE",
"640 25 LINE",
"740 1 LINE",
"722 72 LINE",
"746 72 LINE",
"722 167 LINE",
"746 168 LINE",
"722 262 LINE",
"746 263 LINE",
"740 286 LINE"
);
},
{
closed = 1;
nodes = (
"546 118 LINE",
"551 95 LINE",
"451 118 LINE",
"445 142 LINE",
"356 118 LINE",
"362 95 LINE",
"262 118 LINE",
"267 95 LINE",
"167 118 LINE",
"155 166 LINE",
"179 167 LINE",
"167 214 LINE",
"267 191 LINE",
"250 261 LINE",
"273 262 LINE",
"267 285 LINE",
"167 309 LINE",
"155 356 LINE",
"179 357 LINE",
"167 404 LINE",
"267 381 LINE",
"262 404 LINE",
"362 381 LINE",
"368 357 LINE",
"344 356 LINE",
"368 262 LINE",
"344 261 LINE",
"356 214 LINE",
"445 238 LINE",
"451 214 LINE",
"540 238 LINE",
"546 214 LINE",
"634 238 LINE",
"652 167 LINE",
"628 166 LINE",
"646 95 LINE"
);
}
);
width = 1927;
}
);
unicode = F18D0;
},
{
glyphname = E_T;
lastChange = "2022-06-08 22:05:02 +0000";
layers = (
{
layerId = "F615FF3B-AC20-4656-A54C-A768163DB377";
paths = (
{
closed = 1;
nodes = (
"547 500 LINE",
"553 476 LINE",
"452 500 LINE",
"458 476 LINE",
"357 500 LINE",
"363 476 LINE",
"262 500 LINE",
"268 476 LINE",
"167 500 LINE",
"173 476 LINE",
"72 500 LINE",
"84 453 LINE",
"60 452 LINE",
"84 357 LINE",
"60 357 LINE",
"84 262 LINE",
"60 262 LINE",
"84 167 LINE",
"60 166 LINE",
"84 71 LINE",
"60 71 LINE",
"72 24 LINE",
"173 0 LINE",
"167 24 LINE",
"268 0 LINE",
"262 24 LINE",
"363 0 LINE",
"357 24 LINE",
"446 47 LINE",
"440 71 LINE",
"464 71 LINE",
"446 142 LINE",
"357 118 LINE",
"363 95 LINE",
"262 118 LINE",
"268 95 LINE",
"167 118 LINE",
"155 166 LINE",
"179 167 LINE",
"167 214 LINE",
"268 191 LINE",
"262 214 LINE",
"363 191 LINE",
"345 262 LINE",
"369 262 LINE",
"363 286 LINE",
"262 309 LINE",
"268 286 LINE",
"167 309 LINE",
"155 357 LINE",
"179 357 LINE",
"167 405 LINE",
"268 381 LINE",
"262 405 LINE",
"363 381 LINE",
"357 405 LINE",
"458 381 LINE",
"464 357 LINE",
"440 357 LINE",
"464 262 LINE",
"440 262 LINE",
"452 214 LINE",
"553 191 LINE",
"535 262 LINE",
"558 262 LINE",
"535 357 LINE",
"558 357 LINE",
"547 405 LINE",
"647 381 LINE",
"630 452 LINE",
"653 453 LINE",
"647 476 LINE"
);
}
);
width = 693;
}
);
unicode = F1860;
},
{
glyphname = E_U;
lastChange = "2022-04-22 09:35:23 +0000";
layers = (
{
layerId = "F615FF3B-AC20-4656-A54C-A768163DB377";
paths = (
{
closed = 1;
nodes = (
"847 452 LINE",
"841 476 LINE",
"739 500 LINE",
"751 452 LINE",
"727 452 LINE",
"751 357 LINE",
"727 357 LINE",
"751 262 LINE",
"727 262 LINE",
"751 166 LINE",
"727 167 LINE",
"745 95 LINE",
"644 119 LINE",
"650 95 LINE",
"549 119 LINE",
"537 167 LINE",
"561 166 LINE",
"537 262 LINE",
"561 262 LINE",
"537 357 LINE",
"561 357 LINE",
"537 452 LINE",
"561 452 LINE",
"555 476 LINE",
"453 500 LINE",
"459 476 LINE",
"358 500 LINE",
"364 476 LINE",
"263 500 LINE",
"269 476 LINE",
"167 500 LINE",
"173 476 LINE",
"72 500 LINE",
"84 452 LINE",
"60 453 LINE",
"84 357 LINE",
"60 357 LINE",
"84 262 LINE",
"60 262 LINE",
"84 167 LINE",
"60 167 LINE",
"84 71 LINE",
"60 71 LINE",
"72 24 LINE",
"173 0 LINE",
"167 24 LINE",
"269 0 LINE",
"263 24 LINE",
"364 0 LINE",
"358 24 LINE",
"459 0 LINE",
"453 24 LINE",
"555 0 LINE",
"549 24 LINE",
"650 0 LINE",
"644 24 LINE",
"745 0 LINE",
"739 24 LINE",
"841 0 LINE",
"823 71 LINE",
"847 71 LINE",
"823 167 LINE",
"847 166 LINE",
"823 262 LINE",
"847 262 LINE",
"823 357 LINE",
"847 357 LINE",
"823 452 LINE"
);
},
{
closed = 1;
nodes = (
"442 262 LINE",
"465 166 LINE",
"442 167 LINE",
"459 95 LINE",
"358 119 LINE",
"364 95 LINE",
"263 119 LINE",
"269 95 LINE",
"167 119 LINE",
"156 167 LINE",
"179 167 LINE",
"167 214 LINE",
"269 191 LINE",
"263 214 LINE",
"364 190 LINE",
"346 262 LINE",
"370 262 LINE",
"364 286 LINE",
"263 310 LINE",
"269 286 LINE",
"167 310 LINE",
"156 357 LINE",
"179 357 LINE",
"167 405 LINE",
"269 381 LINE",
"263 405 LINE",
"364 381 LINE",
"358 405 LINE",
"459 381 LINE",
"465 357 LINE",
"442 357 LINE",
"465 262 LINE"
);
}
);
width = 902;
}
);
unicode = F18A0;
},
{
glyphname = Eacute_E;
lastChange = "2022-04-21 15:35:37 +0000";
layers = (
{
layerId = "F615FF3B-AC20-4656-A54C-A768163DB377";
paths = (
{
closed = 1;
nodes = (
"432 215 LINE",
"533 189 LINE",
"540 171 LINE",
"520 171 LINE",
"533 95 LINE",
"432 120 LINE",
"439 95 LINE",
"338 120 LINE",
"331 145 LINE",
"243 120 LINE",
"250 95 LINE",
"147 120 LINE",
"237 145 LINE",
"230 171 LINE",
"256 171 LINE",
"250 189 LINE",
"147 215 LINE",
"237 240 LINE",
"243 215 LINE",
"344 189 LINE",
"325 266 LINE",
"351 266 LINE",
"344 290 LINE",
"243 310 LINE",
"250 290 LINE",
"147 310 LINE",
"154 290 LINE",
"53 310 LINE",
"65 266 LINE",
"40 266 LINE",
"65 171 LINE",
"40 171 LINE",
"65 76 LINE",
"40 76 LINE",
"53 26 LINE",
"154 0 LINE",
"147 26 LINE",
"250 0 LINE",
"243 26 LINE",
"331 51 LINE",
"338 26 LINE",
"439 0 LINE",
"432 26 LINE",
"533 0 LINE",
"533 26 LINE",
"634 0 LINE",
"615 76 LINE",
"641 70 LINE",
"615 165 LINE",
"641 171 LINE",
"615 266 LINE",
"641 266 LINE",
"615 360 LINE",
"641 360 LINE",
"615 456 LINE",
"641 456 LINE",
"634 481 LINE",
"533 500 LINE",
"533 481 LINE",
"432 500 LINE",
"439 481 LINE",
"338 500 LINE",
"344 481 LINE",
"243 500 LINE",
"256 456 LINE",
"230 456 LINE",
"237 430 LINE",
"147 405 LINE",
"160 360 LINE",
"135 360 LINE",
"147 310 LINE",
"237 335 LINE",
"230 360 LINE",
"256 360 LINE",
"243 405 LINE",
"331 430 LINE",
"338 405 LINE",
"439 386 LINE",
"432 405 LINE",
"533 386 LINE",
"540 360 LINE",
"520 360 LINE",
"533 284 LINE",
"432 310 LINE",
"445 266 LINE",
"426 266 LINE"
);
}
);
width = 701;
}
);
unicode = F1820;
},
{
glyphname = Ecircumflex_T_E;
lastChange = "2022-06-09 13:58:29 +0000";
layers = (
{
layerId = "F615FF3B-AC20-4656-A54C-A768163DB377";
paths = (
{
closed = 1;
nodes = (
"811 310 LINE",
"817 286 LINE",
"715 310 LINE",
"805 334 LINE",
"799 358 LINE",
"823 358 LINE",
"817 381 LINE",
"715 405 LINE",
"805 428 LINE",
"811 405 LINE",
"911 381 LINE",
"893 452 LINE",
"917 452 LINE",
"911 476 LINE",
"811 500 LINE",
"817 476 LINE",
"715 500 LINE",
"721 476 LINE",
"621 500 LINE",
"627 476 LINE",
"526 500 LINE",
"531 476 LINE",
"431 500 LINE",
"437 476 LINE",
"337 498 LINE",
"349 451 LINE",
"325 451 LINE",
"331 428 LINE",
"242 405 LINE",
"230 451 LINE",
"254 452 LINE",
"248 476 LINE",
"147 500 LINE",
"159 452 LINE",
"135 451 LINE",
"141 428 LINE",
"52 405 LINE",
"64 357 LINE",
"40 356 LINE",
"52 308 LINE",
"53 308 LINE",
"52 310 LINE",
"54 309 LINE",
"141 332 LINE",
"135 356 LINE",
"159 357 LINE",
"147 405 LINE",
"248 381 LINE",
"254 357 LINE",
"230 356 LINE",
"242 308 LINE",
"243 308 LINE",
"242 310 LINE",
"244 309 LINE",
"331 332 LINE",
"325 356 LINE",
"349 357 LINE",
"337 404 LINE",
"425 428 LINE",
"443 358 LINE",
"419 358 LINE",
"443 262 LINE",
"419 262 LINE",
"443 168 LINE",
"419 168 LINE",
"443 72 LINE",
"419 72 LINE",
"431 25 LINE",
"531 0 LINE",
"514 72 LINE",
"537 72 LINE",
"514 168 LINE",
"537 168 LINE",
"514 262 LINE",
"537 262 LINE",
"514 358 LINE",
"537 358 LINE",
"526 405 LINE",
"615 428 LINE",
"633 358 LINE",
"609 358 LINE",
"633 262 LINE",
"609 262 LINE",
"621 216 LINE",
"710 239 LINE",
"715 215 LINE",
"817 192 LINE",
"811 215 LINE",
"899 239 LINE",
"893 262 LINE",
"917 262 LINE",
"899 334 LINE"
);
},
{
closed = 1;
nodes = (
"147 310 LINE",
"153 286 LINE",
"54 309 LINE",
"53 308 LINE",
"64 262 LINE",
"40 262 LINE",
"64 167 LINE",
"40 166 LINE",
"64 72 LINE",
"40 72 LINE",
"52 24 LINE",
"153 0 LINE",
"147 24 LINE",
"248 0 LINE",
"242 24 LINE",
"331 48 LINE",
"325 71 LINE",
"349 71 LINE",
"331 142 LINE",
"242 118 LINE",
"248 95 LINE",
"147 118 LINE",
"236 142 LINE",
"230 166 LINE",
"254 167 LINE",
"248 191 LINE",
"147 215 LINE",
"236 239 LINE",
"242 215 LINE",
"343 191 LINE",
"325 262 LINE",
"349 262 LINE",
"343 286 LINE",
"244 309 LINE",
"243 308 LINE",
"248 286 LINE"
);
}
);
width = 957;
}
);
unicode = F1890;
},
{
glyphname = F_E;
lastChange = "2022-04-21 15:35:46 +0000";
layers = (
{
layerId = "F615FF3B-AC20-4656-A54C-A768163DB377";
paths = (
{
closed = 1;
nodes = (
"174 481 LINE",
"167 500 LINE",
"269 481 LINE",
"262 500 LINE",
"364 481 LINE",
"358 500 LINE",
"459 481 LINE",
"465 455 LINE",
"446 455 LINE",
"459 380 LINE",
"358 405 LINE",
"364 380 LINE",
"262 405 LINE",
"269 380 LINE",
"167 405 LINE",
"180 361 LINE",
"155 361 LINE",
"167 311 LINE",
"269 285 LINE",
"262 311 LINE",
"364 285 LINE",
"358 311 LINE",
"459 285 LINE",
"453 311 LINE",
"560 285 LINE",
"554 311 LINE",
"655 285 LINE",
"661 266 LINE",
"636 266 LINE",
"655 189 LINE",
"554 215 LINE",
"547 240 LINE",
"453 215 LINE",
"560 189 LINE",
"560 165 LINE",
"541 165 LINE",
"547 146 LINE",
"453 120 LINE",
"560 95 LINE",
"554 120 LINE",
"642 146 LINE",
"661 69 LINE",
"636 76 LINE",
"642 51 LINE",
"554 26 LINE",
"560 0 LINE",
"453 26 LINE",
"453 51 LINE",
"358 26 LINE",
"345 76 LINE",
"371 69 LINE",
"345 165 LINE",
"371 165 LINE",
"351 240 LINE",
"262 215 LINE",
"269 189 LINE",
"167 215 LINE",
"180 165 LINE",
"155 165 LINE",
"180 69 LINE",
"155 76 LINE",
"174 0 LINE",
"73 26 LINE",
"60 76 LINE",
"86 69 LINE",
"60 165 LINE",
"86 165 LINE",
"60 266 LINE",
"86 266 LINE",
"60 361 LINE",
"86 361 LINE",
"60 455 LINE",
"86 455 LINE",
"73 500 LINE"
);
}
);
width = 701;
}
);
unicode = F2010;
},
{
glyphname = F_F_E;
lastChange = "2022-04-21 15:33:04 +0000";
layers = (
{
layerId = "F615FF3B-AC20-4656-A54C-A768163DB377";
paths = (
{
closed = 1;
nodes = (
"440 354 LINE",
"466 260 LINE",
"440 260 LINE",
"466 164 LINE",
"440 164 LINE",
"466 70 LINE",
"440 70 LINE",
"453 18 LINE",
"554 0 LINE",
"535 70 LINE",
"560 70 LINE",
"535 164 LINE",
"560 164 LINE",
"548 208 LINE",
"649 190 LINE",
"643 208 LINE",
"731 234 LINE",
"750 164 LINE",
"731 164 LINE",
"750 70 LINE",
"731 70 LINE",
"738 18 LINE",
"833 44 LINE",
"839 18 LINE",
"940 0 LINE",
"934 18 LINE",
"1022 44 LINE",
"1016 70 LINE",
"1042 70 LINE",
"1022 140 LINE",
"934 114 LINE",
"940 88 LINE",
"839 114 LINE",
"928 140 LINE",
"921 164 LINE",
"940 164 LINE",
"940 190 LINE",
"839 208 LINE",
"928 234 LINE",
"934 208 LINE",
"1035 190 LINE",
"1016 260 LINE",
"1042 260 LINE",
"1035 284 LINE",
"934 304 LINE",
"940 284 LINE",
"839 304 LINE",
"839 284 LINE",
"738 304 LINE",
"744 284 LINE",
"643 304 LINE",
"649 284 LINE",
"548 304 LINE",
"535 354 LINE",
"560 354 LINE",
"548 406 LINE",
"649 380 LINE",
"643 406 LINE",
"744 380 LINE",
"738 406 LINE",
"839 380 LINE",
"826 450 LINE",
"845 450 LINE",
"839 474 LINE",
"738 500 LINE",
"744 474 LINE",
"643 500 LINE",
"649 474 LINE",
"548 500 LINE",
"554 474 LINE",
"453 500 LINE",
"459 474 LINE",
"358 500 LINE",
"364 474 LINE",
"263 500 LINE",
"269 474 LINE",
"168 500 LINE",
"174 474 LINE",
"73 500 LINE",
"86 450 LINE",
"60 450 LINE",
"86 354 LINE",
"60 354 LINE",
"86 260 LINE",
"60 260 LINE",
"86 164 LINE",
"60 164 LINE",
"86 70 LINE",
"60 70 LINE",
"73 18 LINE",
"174 0 LINE",
"155 70 LINE",
"181 70 LINE",
"155 164 LINE",
"181 164 LINE",
"168 208 LINE",
"269 190 LINE",
"263 208 LINE",
"364 190 LINE",
"345 260 LINE",
"371 260 LINE",
"364 284 LINE",
"263 304 LINE",
"269 284 LINE",
"168 304 LINE",
"155 354 LINE",
"181 354 LINE",
"168 406 LINE",
"269 380 LINE",
"263 406 LINE",
"364 380 LINE",
"358 406 LINE",
"447 424 LINE",
"466 354 LINE"
);
}
);
width = 1082;
}
);
unicode = F2030;
},
{
glyphname = F_V;
lastChange = "2022-04-22 09:46:48 +0000";
layers = (
{
layerId = "F615FF3B-AC20-4656-A54C-A768163DB377";
paths = (
{
closed = 1;
nodes = (
"173 475 LINE",
"167 500 LINE",
"268 475 LINE",
"262 500 LINE",
"363 475 LINE",
"357 500 LINE",
"458 475 LINE",
"453 500 LINE",
"554 475 LINE",
"559 451 LINE",
"536 452 LINE",
"559 357 LINE",
"536 357 LINE",
"559 261 LINE",
"536 261 LINE",
"559 166 LINE",
"536 166 LINE",
"548 119 LINE",
"649 95 LINE",
"642 120 LINE",
"731 144 LINE",
"725 168 LINE",
"749 167 LINE",
"725 262 LINE",
"749 263 LINE",
"725 358 LINE",
"749 358 LINE",
"725 453 LINE",
"749 452 LINE",
"737 500 LINE",
"838 476 LINE",
"844 452 LINE",
"820 453 LINE",
"844 358 LINE",
"820 358 LINE",
"844 263 LINE",
"820 262 LINE",
"844 167 LINE",
"820 168 LINE",
"826 144 LINE",
"737 120 LINE",
"749 72 LINE",
"725 72 LINE",
"731 49 LINE",
"642 25 LINE",
"649 0 LINE",
"548 24 LINE",
"536 71 LINE",
"559 71 LINE",
"554 95 LINE",
"453 119 LINE",
"441 166 LINE",
"464 166 LINE",
"441 261 LINE",
"464 261 LINE",
"441 357 LINE",
"464 357 LINE",
"446 428 LINE",
"357 404 LINE",
"363 380 LINE",
"262 404 LINE",
"268 380 LINE",
"167 404 LINE",
"179 357 LINE",
"155 357 LINE",
"167 309 LINE",
"268 285 LINE",
"262 309 LINE",
"363 285 LINE",
"369 261 LINE",
"346 261 LINE",
"363 190 LINE",
"262 214 LINE",
"268 190 LINE",
"167 214 LINE",
"179 166 LINE",
"155 166 LINE",
"179 71 LINE",
"155 71 LINE",
"173 0 LINE",
"72 24 LINE",
"60 71 LINE",
"84 71 LINE",
"60 166 LINE",
"84 166 LINE",
"60 261 LINE",
"84 261 LINE",
"60 357 LINE",
"84 357 LINE",
"60 452 LINE",
"84 451 LINE",
"72 500 LINE"
);
}
);
width = 884;
}
);
unicode = F2050;
},
{
glyphname = F_i;
lastChange = "2022-04-21 14:52:28 +0000";
layers = (
{
layerId = "F615FF3B-AC20-4656-A54C-A768163DB377";
paths = (
{
closed = 1;
nodes = (
"262 309 LINE",
"268 286 LINE",
"167 309 LINE",
"155 357 LINE",
"179 357 LINE",
"167 404 LINE",
"268 381 LINE",
"262 404 LINE",
"362 381 LINE",
"357 404 LINE",
"446 428 LINE",
"452 403 LINE",
"552 380 LINE",
"535 451 LINE",
"558 451 LINE",
"552 475 LINE",
"452 499 LINE",
"457 476 LINE",
"357 500 LINE",
"362 476 LINE",
"262 500 LINE",
"268 476 LINE",
"167 500 LINE",
"173 476 LINE",
"72 500 LINE",
"84 453 LINE",
"60 452 LINE",
"84 357 LINE",
"60 357 LINE",
"84 262 LINE",
"60 261 LINE",
"84 166 LINE",
"60 166 LINE",
"84 71 LINE",
"60 71 LINE",
"72 24 LINE",
"173 0 LINE",
"155 71 LINE",
"179 71 LINE",
"155 166 LINE",
"179 166 LINE",
"167 214 LINE",
"268 190 LINE",
"262 214 LINE",
"362 190 LINE",
"345 261 LINE",
"368 262 LINE",
"362 286 LINE"
);
},
{
closed = 1;
nodes = (
"451 308 LINE",
"463 261 LINE",
"439 261 LINE",
"463 166 LINE",
"439 166 LINE",
"463 71 LINE",
"439 71 LINE",
"451 24 LINE",
"552 0 LINE",
"534 71 LINE",
"558 71 LINE",
"534 166 LINE",
"558 166 LINE",
"534 261 LINE",
"558 261 LINE",
"552 285 LINE"
);
}
);
width = 618;
}
);
},
{
glyphname = F_j;
lastChange = "2022-03-14 21:43:13 +0000";
layers = (
{
layerId = "F615FF3B-AC20-4656-A54C-A768163DB377";
paths = (
{
closed = 1;
nodes = (
"557 167 LINE",
"534 262 LINE",
"557 262 LINE",
"552 286 LINE",
"451 310 LINE",
"461 263 LINE",
"438 263 LINE",
"463 167 LINE",
"439 167 LINE",
"457 96 LINE",
"356 119 LINE",
"368 72 LINE",
"344 71 LINE",
"356 24 LINE",
"457 0 LINE",
"451 24 LINE",
"552 0 LINE",
"534 71 LINE",
"558 72 LINE",
"534 167 LINE"
);
},
{
closed = 1;
nodes = (
"357 500 LINE",
"363 476 LINE",
"262 500 LINE",
"268 476 LINE",
"167 500 LINE",
"173 476 LINE",
"72 500 LINE",
"84 453 LINE",
"60 452 LINE",
"84 357 LINE",
"60 357 LINE",
"84 262 LINE",
"60 261 LINE",
"84 166 LINE",
"60 166 LINE",
"84 71 LINE",
"60 71 LINE",
"72 24 LINE",
"173 0 LINE",
"155 71 LINE",
"179 71 LINE",
"155 166 LINE",
"179 166 LINE",
"167 214 LINE",
"268 190 LINE",
"262 214 LINE",
"363 190 LINE",
"345 261 LINE",
"369 262 LINE",
"363 286 LINE",
"262 309 LINE",
"268 286 LINE",
"167 309 LINE",
"155 357 LINE",
"179 357 LINE",
"167 404 LINE",
"268 381 LINE",
"262 404 LINE",
"363 381 LINE",
"357 404 LINE",
"446 428 LINE",
"452 404 LINE",
"553 381 LINE",
"535 452 LINE",
"558 453 LINE",
"553 476 LINE",
"452 500 LINE",
"458 476 LINE"
);
}
);
width = 608;
}
);
},
{
glyphname = F_l;
lastChange = "2022-04-21 14:53:07 +0000";
layers = (
{
layerId = "F615FF3B-AC20-4656-A54C-A768163DB377";
paths = (
{
closed = 1;
nodes = (
"440 358 LINE",
"464 263 LINE",
"440 263 LINE",
"464 168 LINE",
"440 168 LINE",
"464 73 LINE",
"440 73 LINE",
"452 25 LINE",
"553 2 LINE",
"547 25 LINE",
"636 49 LINE",
"630 73 LINE",
"654 73 LINE",
"636 144 LINE",
"547 120 LINE",
"535 168 LINE",
"559 168 LINE",
"535 263 LINE",
"559 263 LINE",
"535 358 LINE",
"559 358 LINE",
"535 453 LINE",
"559 453 LINE",
"553 476 LINE",
"452 500 LINE",
"458 476 LINE",
"357 500 LINE",
"363 476 LINE",
"262 500 LINE",
"268 476 LINE",
"167 500 LINE",
"173 476 LINE",
"72 500 LINE",
"84 452 LINE",
"60 452 LINE",
"84 357 LINE",
"60 357 LINE",
"84 262 LINE",
"60 261 LINE",
"84 166 LINE",
"60 166 LINE",
"84 71 LINE",
"60 71 LINE",
"72 24 LINE",
"173 0 LINE",
"155 71 LINE",
"179 71 LINE",
"155 166 LINE",
"179 166 LINE",
"167 214 LINE",
"268 190 LINE",
"262 214 LINE",
"363 190 LINE",
"345 261 LINE",
"369 262 LINE",
"363 286 LINE",
"262 309 LINE",
"268 286 LINE",
"167 309 LINE",
"155 357 LINE",
"179 357 LINE",
"167 404 LINE",
"268 381 LINE",
"262 404 LINE",
"363 380 LINE",
"357 404 LINE",
"446 429 LINE",
"464 358 LINE"
);
}
);
width = 694;
}
);
},
